# Blender v2.80 (sub 55) OBJ File: 'mannquin.blend'
# www.blender.org
mtllib chest.mtl
o Chest.001_Cube.007
v 0.245312 0.241017 0.156097
v 0.253047 0.698020 0.141784
v 0.245312 0.248001 -0.067926
v 0.254624 0.779699 -0.096124
v 0.177609 0.187558 -0.158306
v 0.138343 0.822132 -0.149963
v 0.177609 0.175121 0.189463
v 0.143449 0.714750 0.190324
v 0.249968 0.510011 -0.139274
v 0.249968 0.511240 0.172420
v 0.153419 0.509860 0.222623
v 0.153419 0.518401 -0.196159
v 0.245312 0.244509 0.044086
v 0.254619 0.786395 0.015033
v 0.139074 0.834706 0.107580
v 0.177609 0.155005 0.015578
v 0.249968 0.510626 0.016573
v 0.000000 0.130510 0.208928
v 0.000000 0.717690 0.204782
v 0.000000 0.108143 -0.105053
v 0.000000 0.826446 -0.160920
v -0.245312 0.241017 0.156097
v -0.253047 0.698020 0.141784
v -0.245312 0.248001 -0.067926
v -0.254624 0.779699 -0.096124
v -0.177609 0.187558 -0.158306
v -0.138343 0.822132 -0.149963
v -0.177609 0.175121 0.189463
v -0.143449 0.714750 0.190324
v 0.000000 0.510440 0.244355
v 0.000000 0.519553 -0.220469
v -0.249968 0.510011 -0.139274
v -0.249968 0.511240 0.172420
v -0.153419 0.509860 0.222623
v -0.153419 0.518401 -0.196159
v 0.000000 0.092992 0.051938
v 0.000000 0.838754 0.109525
v -0.245312 0.244509 0.044086
v -0.254619 0.786395 0.015033
v -0.139074 0.834706 0.107580
v -0.177609 0.155005 0.015578
v -0.249968 0.510626 0.016573
v 0.000000 0.514997 0.011943
v 0.042346 0.163448 -0.033780
v 0.080065 0.136448 -0.062352
v 0.105268 0.096041 -0.081444
v 0.114118 0.048377 -0.088148
v 0.105268 0.000712 -0.081444
v 0.080065 -0.039695 -0.062352
v 0.042346 -0.066695 -0.033780
v 0.060776 0.163448 -0.000076
v 0.114118 0.136448 -0.000076
v 0.149760 0.096041 -0.000076
v 0.162275 0.048377 -0.000076
v 0.149760 0.000712 -0.000076
v 0.114118 -0.039695 -0.000076
v 0.060776 -0.066695 -0.000076
v 0.042346 0.163448 0.033627
v 0.080065 0.136448 0.062200
v 0.105268 0.096041 0.081292
v 0.114118 0.048377 0.087996
v 0.105268 0.000712 0.081292
v 0.080065 -0.039695 0.062200
v 0.042346 -0.066695 0.033627
v 0.000000 0.048377 -0.124629
v 0.000000 0.172929 -0.000076
v -0.042346 0.163448 -0.033780
v -0.080065 0.136448 -0.062352
v -0.105268 0.096041 -0.081444
v -0.114118 0.048377 -0.088148
v -0.105268 0.000712 -0.081444
v -0.080065 -0.039695 -0.062352
v -0.042346 -0.066695 -0.033780
v -0.060776 0.163448 -0.000076
v -0.114118 0.136448 -0.000076
v -0.149760 0.096041 -0.000076
v -0.162275 0.048377 -0.000076
v -0.149760 0.000712 -0.000076
v -0.114118 -0.039695 -0.000076
v -0.060776 -0.066695 -0.000076
v 0.000000 -0.076176 -0.000076
v -0.042346 0.163448 0.033627
v -0.080065 0.136448 0.062200
v -0.105268 0.096041 0.081292
v -0.114118 0.048377 0.087996
v -0.105268 0.000712 0.081292
v -0.080065 -0.039695 0.062200
v -0.042346 -0.066695 0.033627
v 0.000000 0.163448 0.047588
v 0.000000 0.136448 0.087996
v 0.000000 0.096041 0.114995
v 0.000000 0.048377 0.124476
v 0.000000 0.000712 0.114995
v 0.000000 -0.039695 0.087996
v 0.000000 -0.066695 0.047588
v 0.000000 0.163448 0.033627
v 0.000000 0.136448 0.062200
v 0.000000 0.096041 0.081292
v 0.000000 0.048377 0.087996
v 0.000000 0.000712 0.081292
v 0.000000 -0.039695 0.062200
v 0.000000 -0.066695 0.033627
v 0.000000 0.163448 -0.000076
v 0.000000 0.136448 -0.000076
v 0.000000 0.096041 -0.000076
v 0.000000 0.048377 -0.000076
v 0.000000 0.000712 -0.000076
v 0.000000 -0.039695 -0.000076
v 0.000000 -0.066695 -0.000076
v 0.000000 0.163448 -0.033780
v 0.000000 0.136448 -0.062352
v 0.000000 0.096041 -0.081444
v 0.000000 0.048377 -0.088148
v 0.000000 0.000712 -0.081444
v 0.000000 -0.039695 -0.062352
v 0.000000 -0.066695 -0.033780
v 0.000000 0.163448 -0.047740
v 0.000000 0.136448 -0.088148
v 0.000000 0.096041 -0.115148
v 0.000000 0.000712 -0.115148
v 0.000000 -0.039695 -0.088148
v 0.000000 -0.066695 -0.047740
vt 0.500000 0.375000
vt 0.625000 0.500000
vt 0.500000 0.500000
vt 0.500000 0.625000
vt 0.582667 0.750000
vt 0.500000 0.750000
vt 0.582667 0.875000
vt 0.500000 1.000000
vt 0.500000 0.875000
vt 0.250000 0.625000
vt 0.375000 0.750000
vt 0.250000 0.750000
vt 0.747415 0.645097
vt 0.872067 0.766184
vt 0.731969 0.767694
vt 0.624872 0.625000
vt 0.125551 0.625725
vt 0.126101 0.751449
vt 0.500000 0.250000
vt 0.625000 0.375000
vt 0.375000 0.375000
vt 0.375000 0.250000
vt 0.375000 0.875000
vt 0.377533 1.000000
vt 0.375000 0.625000
vt 0.375000 0.500000
vt 0.125000 0.500000
vt 0.750000 0.500000
vt 0.874580 0.644880
vt 0.250000 0.500000
vt 0.500000 0.125000
vt 0.625000 0.250000
vt 0.618942 0.107436
vt 0.500000 0.375000
vt 0.625000 0.500000
vt 0.625000 0.375000
vt 0.500000 0.625000
vt 0.582667 0.750000
vt 0.624872 0.625000
vt 0.582667 0.875000
vt 0.500000 0.875000
vt 0.250000 0.625000
vt 0.375000 0.750000
vt 0.375000 0.625000
vt 0.747415 0.645097
vt 0.250000 0.750000
vt 0.500000 0.750000
vt 0.375000 0.375000
vt 0.375000 0.875000
vt 0.375000 0.500000
vt 0.376266 0.125000
vt 0.377533 0.000000
vt 0.500000 0.000000
vt 0.500000 0.500000
vt 0.250000 0.500000
vt 0.750000 0.500000
vt 0.875000 0.500000
vt 0.582667 0.000000
vt 0.582667 1.000000
vt 0.731969 0.767694
vt 0.687500 0.000000
vt 0.750000 0.125000
vt 0.625000 0.125000
vt 0.750000 0.375000
vt 0.625000 0.250000
vt 0.750000 0.250000
vt 0.750000 0.500000
vt 0.625000 0.625000
vt 0.625000 0.500000
vt 0.750000 0.750000
vt 0.625000 0.875000
vt 0.625000 0.750000
vt 0.625000 0.375000
vt 0.750000 0.625000
vt 0.750000 0.875000
vt 0.687500 1.000000
vt 0.500000 0.875000
vt 0.500000 0.750000
vt 0.500000 0.125000
vt 0.500000 0.375000
vt 0.500000 0.625000
vt 0.562500 1.000000
vt 0.562500 0.000000
vt 0.500000 0.250000
vt 0.500000 0.500000
vt 0.375000 0.250000
vt 0.375000 0.125000
vt 0.375000 0.500000
vt 0.375000 0.375000
vt 0.375000 0.625000
vt 0.437500 1.000000
vt 0.375000 0.875000
vt 0.437500 0.000000
vt 0.375000 0.750000
vt 0.312500 1.000000
vt 0.250000 0.875000
vt 0.312500 0.000000
vt 0.250000 0.125000
vt 0.250000 0.375000
vt 0.250000 0.250000
vt 0.250000 0.500000
vt 0.250000 0.750000
vt 0.250000 0.625000
vt 0.625000 0.125000
vt 0.625000 0.250000
vt 0.625000 0.625000
vt 0.625000 0.875000
vt 0.625000 0.375000
vt 0.625000 0.750000
vt 0.500000 0.875000
vt 0.500000 0.125000
vt 0.500000 0.375000
vt 0.625000 0.500000
vt 0.500000 0.750000
vt 0.500000 0.250000
vt 0.500000 0.625000
vt 0.375000 0.250000
vt 0.375000 0.500000
vt 0.500000 0.500000
vt 0.375000 0.625000
vt 0.375000 0.875000
vt 0.375000 0.125000
vt 0.375000 0.375000
vt 0.375000 0.750000
vt 0.125000 0.375000
vt 0.125000 0.500000
vt 0.125000 0.750000
vt 0.125000 0.250000
vt 0.125000 0.625000
vt 0.125000 0.875000
vt 0.187500 1.000000
vt 0.187500 0.000000
vt 0.125000 0.125000
vt 0.000000 0.250000
vt 0.000000 0.500000
vt 0.000000 0.625000
vt 0.000000 0.875000
vt 0.062500 1.000000
vt 0.062500 0.000000
vt 0.000000 0.125000
vt 0.000000 0.375000
vt 0.000000 0.750000
vt 0.875000 0.375000
vt 1.000000 0.500000
vt 1.000000 0.375000
vt 1.000000 0.625000
vt 0.875000 0.750000
vt 1.000000 0.750000
vt 1.000000 0.875000
vt 0.875000 0.875000
vt 0.937500 1.000000
vt 0.937500 0.000000
vt 0.875000 0.125000
vt 1.000000 0.125000
vt 0.875000 0.250000
vt 1.000000 0.250000
vt 0.875000 0.625000
vt 0.812500 0.000000
vt 0.875000 0.500000
vt 0.812500 1.000000
vn 0.5117 0.1271 -0.8497
vn 0.9999 -0.0165 0.0001
vn 0.1390 0.1608 0.9771
vn 0.7153 -0.6942 0.0803
vn 0.0941 0.5676 0.8179
vn 0.6268 0.6355 0.4509
vn 0.2605 -0.9390 0.2244
vn 0.4555 0.1368 0.8797
vn 0.1557 0.1561 -0.9754
vn -0.1656 -0.2664 -0.9495
vn 0.4816 -0.0519 0.8748
vn 0.1313 -0.0920 0.9871
vn 0.9999 -0.0172 -0.0005
vn 0.8033 -0.0094 -0.5955
vn 0.9998 -0.0176 -0.0005
vn 0.3116 -0.9458 -0.0913
vn 0.3650 0.9293 -0.0560
vn 0.0284 0.9984 -0.0488
vn 0.7469 -0.6536 -0.1224
vn 0.9999 -0.0173 0.0001
vn 1.0000 0.0000 0.0000
vn -0.4613 0.1557 -0.8735
vn -0.9999 -0.0169 0.0006
vn -0.1390 0.1608 0.9771
vn -0.8002 -0.5994 -0.0187
vn -0.0290 0.6181 0.7856
vn -0.6268 0.6355 0.4509
vn -0.3473 -0.9315 0.1078
vn -0.4555 0.1368 0.8797
vn -0.0834 0.1898 -0.9783
vn 0.1656 -0.2664 -0.9495
vn -0.4612 -0.0614 0.8852
vn -0.1394 -0.0876 0.9864
vn -0.9998 -0.0175 0.0001
vn -0.8033 -0.0094 -0.5955
vn -0.9998 -0.0177 0.0001
vn -0.3587 -0.9175 -0.1718
vn -0.3650 0.9293 -0.0560
vn -0.0347 0.9984 -0.0454
vn -0.7469 -0.6536 -0.1224
vn -0.9999 -0.0173 0.0001
vn 0.4613 0.1557 -0.8735
vn 0.9999 -0.0169 0.0006
vn 0.1023 0.1866 0.9771
vn 0.8002 -0.5994 -0.0187
vn 0.0290 0.6181 0.7856
vn 0.4100 0.5280 0.7437
vn 0.3473 -0.9315 0.1078
vn 0.4201 0.1612 0.8930
vn 0.0834 0.1898 -0.9783
vn 0.1550 -0.1011 -0.9827
vn 0.4612 -0.0614 0.8852
vn 0.1394 -0.0876 0.9864
vn 0.9998 -0.0175 0.0001
vn 0.4775 -0.2388 -0.8456
vn 0.9998 -0.0177 0.0001
vn 0.3587 -0.9175 -0.1718
vn 0.3533 0.9343 -0.0466
vn 0.0347 0.9984 -0.0454
vn 0.9999 -0.0169 0.0011
vn -0.5117 0.1271 -0.8497
vn -0.9999 -0.0165 0.0001
vn -0.1023 0.1866 0.9771
vn -0.7153 -0.6942 0.0803
vn -0.0941 0.5676 0.8179
vn -0.4100 0.5280 0.7437
vn -0.2605 -0.9390 0.2244
vn -0.4201 0.1612 0.8930
vn -0.1557 0.1561 -0.9754
vn -0.1550 -0.1011 -0.9827
vn -0.4816 -0.0519 0.8748
vn -0.1313 -0.0920 0.9871
vn -0.9999 -0.0172 -0.0005
vn -0.4775 -0.2388 -0.8456
vn -0.9998 -0.0176 -0.0005
vn -0.3116 -0.9458 -0.0913
vn -0.3533 0.9343 -0.0466
vn -0.0284 0.9984 -0.0488
vn -0.9999 -0.0169 0.0011
vn 0.0642 -0.9788 -0.1947
vn 0.2588 -0.5366 -0.8032
vn 0.2991 0.1871 -0.9357
vn 0.1753 0.8206 -0.5440
vn 0.1802 -0.8179 -0.5465
vn 0.2996 -0.1861 -0.9357
vn 0.2568 0.5391 -0.8021
vn 0.0642 0.9788 -0.1947
vn 0.4384 0.8662 -0.2397
vn 0.4384 -0.8662 -0.2397
vn 0.8550 -0.2245 -0.4675
vn 0.6939 0.6120 -0.3794
vn 0.1536 0.9846 -0.0840
vn 0.1536 -0.9846 -0.0840
vn 0.6939 -0.6120 -0.3794
vn 0.8550 0.2245 -0.4675
vn 0.4384 -0.8662 0.2397
vn 0.8550 -0.2245 0.4675
vn 0.6939 0.6120 0.3794
vn 0.1536 0.9846 0.0840
vn 0.1536 -0.9846 0.0840
vn 0.6939 -0.6120 0.3794
vn 0.8550 0.2245 0.4675
vn 0.4384 0.8662 0.2397
vn 0.0642 0.9788 0.1947
vn 0.0642 -0.9788 0.1947
vn 0.2588 -0.5366 0.8032
vn 0.2991 0.1871 0.9357
vn 0.1753 0.8206 0.5440
vn 0.1802 -0.8179 0.5465
vn 0.2996 -0.1861 0.9357
vn 0.2568 0.5391 0.8021
vn -0.0642 -0.9788 -0.1947
vn -0.2588 -0.5366 -0.8032
vn -0.2996 0.1861 -0.9357
vn -0.1802 0.8179 -0.5465
vn -0.1802 -0.8179 -0.5465
vn -0.2996 -0.1861 -0.9357
vn -0.2588 0.5366 -0.8032
vn -0.0642 0.9788 -0.1947
vn -0.4384 0.8662 -0.2397
vn -0.4384 -0.8662 -0.2397
vn -0.8550 -0.2245 -0.4675
vn -0.6939 0.6120 -0.3794
vn -0.1536 0.9846 -0.0840
vn -0.1536 -0.9846 -0.0840
vn -0.6939 -0.6120 -0.3794
vn -0.8550 0.2245 -0.4675
vn -0.4384 -0.8662 0.2397
vn -0.8550 -0.2245 0.4675
vn -0.6939 0.6120 0.3794
vn -0.1536 0.9846 0.0840
vn -0.1536 -0.9846 0.0840
vn -0.6939 -0.6120 0.3794
vn -0.8550 0.2245 0.4675
vn -0.4384 0.8662 0.2397
vn -0.0642 0.9788 0.1947
vn -0.0642 -0.9788 0.1947
vn -0.2568 -0.5391 0.8021
vn -0.2991 0.1871 0.9357
vn -0.1753 0.8206 0.5440
vn -0.1753 -0.8206 0.5440
vn -0.2991 -0.1871 0.9357
vn -0.2568 0.5391 0.8021
vn 0.2568 -0.5391 -0.8021
vn 0.2996 0.1861 -0.9357
vn 0.1802 0.8179 -0.5465
vn 0.1753 -0.8206 -0.5440
vn 0.2991 -0.1871 -0.9357
vn 0.2588 0.5366 -0.8032
vn 0.2568 -0.5391 0.8021
vn 0.2996 0.1861 0.9357
vn 0.1802 0.8179 0.5465
vn 0.1753 -0.8206 0.5440
vn 0.2991 -0.1871 0.9357
vn 0.2588 0.5366 0.8032
vn -0.2568 -0.5391 -0.8021
vn -0.2991 0.1871 -0.9357
vn -0.1753 0.8206 -0.5440
vn -0.1753 -0.8206 -0.5440
vn -0.2991 -0.1871 -0.9357
vn -0.2568 0.5391 -0.8021
vn -0.2588 -0.5366 0.8032
vn -0.2996 0.1861 0.9357
vn -0.1802 0.8179 0.5465
vn -0.1802 -0.8179 0.5465
vn -0.2996 -0.1861 0.9357
vn -0.2588 0.5366 0.8032
usemtl Base
s off
f 12/1/1 4/2/1 9/3/1
f 17/4/2 2/5/2 10/6/2
f 8/7/3 30/8/3 11/9/3
f 16/10/4 1/11/4 7/12/4
f 15/13/5 19/14/5 8/15/5
f 15/13/6 2/5/6 14/16/6
f 36/17/7 7/12/7 18/18/7
f 2/5/8 11/9/8 10/6/8
f 31/19/9 6/20/9 12/1/9
f 31/19/10 5/21/10 20/22/10
f 1/11/11 11/9/11 7/23/11
f 7/23/12 30/8/12 18/24/12
f 13/25/13 10/6/13 1/11/13
f 12/1/14 3/26/14 5/21/14
f 3/26/15 17/4/15 13/25/15
f 20/27/16 16/10/16 36/17/16
f 6/28/17 14/16/17 4/2/17
f 6/28/18 37/29/18 15/13/18
f 3/26/19 16/10/19 5/30/19
f 4/2/20 17/4/20 9/3/20
f 43/31/21 21/32/21 37/33/21
f 35/34/22 25/35/22 27/36/22
f 42/37/23 23/38/23 39/39/23
f 30/8/24 29/40/24 34/41/24
f 41/42/25 22/43/25 38/44/25
f 40/45/26 19/14/26 37/29/26
f 23/38/27 40/45/27 39/39/27
f 36/17/28 28/46/28 41/42/28
f 34/41/29 23/38/29 33/47/29
f 31/19/30 27/36/30 21/32/30
f 26/48/31 31/19/31 20/22/31
f 22/43/32 34/41/32 33/47/32
f 28/49/33 30/8/33 34/41/33
f 38/44/34 33/47/34 42/37/34
f 24/50/35 35/34/35 26/48/35
f 20/22/21 43/31/21 36/51/21
f 18/52/21 43/31/21 30/53/21
f 24/50/36 42/37/36 32/54/36
f 20/27/37 41/42/37 26/55/37
f 39/39/38 27/56/38 25/35/38
f 27/56/39 37/29/39 21/57/39
f 41/42/40 24/50/40 26/55/40
f 42/37/41 25/35/41 32/54/41
f 43/31/21 19/58/21 30/53/21
f 12/1/42 6/20/42 4/2/42
f 17/4/43 14/16/43 2/5/43
f 8/7/44 19/59/44 30/8/44
f 16/10/45 13/25/45 1/11/45
f 15/13/46 37/29/46 19/14/46
f 15/13/47 8/15/47 2/5/47
f 36/17/48 16/10/48 7/12/48
f 2/5/49 8/7/49 11/9/49
f 31/19/50 21/32/50 6/20/50
f 31/19/51 12/1/51 5/21/51
f 1/11/52 10/6/52 11/9/52
f 7/23/53 11/9/53 30/8/53
f 13/25/54 17/4/54 10/6/54
f 12/1/55 9/3/55 3/26/55
f 3/26/56 9/3/56 17/4/56
f 20/27/57 5/30/57 16/10/57
f 6/28/58 15/13/58 14/16/58
f 6/28/59 21/57/59 37/29/59
f 3/26/45 13/25/45 16/10/45
f 4/2/60 14/16/60 17/4/60
f 43/31/21 31/19/21 21/32/21
f 35/34/61 32/54/61 25/35/61
f 42/37/62 33/47/62 23/38/62
f 30/8/63 19/59/63 29/40/63
f 41/42/64 28/46/64 22/43/64
f 40/45/65 29/60/65 19/14/65
f 23/38/66 29/60/66 40/45/66
f 36/17/67 18/18/67 28/46/67
f 34/41/68 29/40/68 23/38/68
f 31/19/69 35/34/69 27/36/69
f 26/48/70 35/34/70 31/19/70
f 22/43/71 28/49/71 34/41/71
f 28/49/72 18/24/72 30/8/72
f 38/44/73 22/43/73 33/47/73
f 24/50/74 32/54/74 35/34/74
f 20/22/21 31/19/21 43/31/21
f 18/52/21 36/51/21 43/31/21
f 24/50/75 38/44/75 42/37/75
f 20/27/76 36/17/76 41/42/76
f 39/39/77 40/45/77 27/56/77
f 27/56/78 40/45/78 37/29/78
f 41/42/25 38/44/25 24/50/25
f 42/37/79 39/39/79 25/35/79
f 43/31/21 37/33/21 19/58/21
usemtl Joints
f 81/61/80 122/62/80 50/63/80
f 120/64/81 49/65/81 121/66/81
f 65/67/82 46/68/82 47/69/82
f 118/70/83 44/71/83 45/72/83
f 121/66/84 50/63/84 122/62/84
f 65/67/85 48/73/85 120/64/85
f 119/74/86 45/72/86 46/68/86
f 117/75/87 66/76/87 44/71/87
f 45/72/88 51/77/88 52/78/88
f 49/65/89 57/79/89 50/63/89
f 47/69/90 55/80/90 48/73/90
f 46/68/91 52/78/91 53/81/91
f 44/71/92 66/82/92 51/77/92
f 81/83/93 50/63/93 57/79/93
f 48/73/94 56/84/94 49/65/94
f 47/69/95 53/81/95 54/85/95
f 57/79/96 63/86/96 64/87/96
f 55/80/97 61/88/97 62/89/97
f 52/78/98 60/90/98 53/81/98
f 51/77/99 66/91/99 58/92/99
f 81/93/100 57/79/100 64/87/100
f 56/84/101 62/89/101 63/86/101
f 53/81/102 61/88/102 54/85/102
f 51/77/103 59/94/103 52/78/103
f 58/92/104 66/95/104 89/96/104
f 81/97/105 64/87/105 95/98/105
f 63/86/106 93/99/106 94/100/106
f 60/90/107 92/101/107 61/88/107
f 58/92/108 90/102/108 59/94/108
f 64/87/109 94/100/109 95/98/109
f 62/89/110 92/101/110 93/99/110
f 59/94/111 91/103/111 60/90/111
f 81/61/112 73/104/112 122/62/112
f 72/105/113 120/64/113 121/66/113
f 65/67/114 69/106/114 119/74/114
f 118/70/115 67/107/115 117/75/115
f 73/104/116 121/66/116 122/62/116
f 71/108/117 65/67/117 120/64/117
f 119/74/118 68/109/118 118/70/118
f 117/75/119 67/107/119 66/76/119
f 68/109/120 74/110/120 67/107/120
f 80/111/121 72/105/121 73/104/121
f 78/112/122 70/113/122 71/108/122
f 69/106/123 75/114/123 68/109/123
f 67/107/124 74/110/124 66/82/124
f 81/83/125 80/111/125 73/104/125
f 79/115/126 71/108/126 72/105/126
f 70/113/127 76/116/127 69/106/127
f 80/111/128 87/117/128 79/115/128
f 78/112/129 85/118/129 77/119/129
f 84/120/130 75/114/130 76/116/130
f 74/110/131 82/121/131 66/91/131
f 81/93/132 88/122/132 80/111/132
f 79/115/133 86/123/133 78/112/133
f 85/118/134 76/116/134 77/119/134
f 83/124/135 74/110/135 75/114/135
f 82/121/136 89/96/136 66/95/136
f 81/97/137 95/98/137 88/122/137
f 87/117/138 93/99/138 86/123/138
f 92/101/139 84/120/139 85/118/139
f 90/102/140 82/121/140 83/124/140
f 88/122/141 94/100/141 87/117/141
f 86/123/142 92/101/142 85/118/142
f 91/103/143 83/124/143 84/120/143
f 94/100/21 100/125/21 93/99/21
f 99/126/21 91/103/21 92/101/21
f 97/127/21 89/96/21 90/102/21
f 95/98/21 101/128/21 94/100/21
f 93/99/21 99/126/21 92/101/21
f 98/129/21 90/102/21 91/103/21
f 89/96/21 96/130/21 66/131/21
f 81/132/21 102/133/21 95/98/21
f 102/133/21 108/134/21 101/128/21
f 100/125/21 106/135/21 99/126/21
f 105/136/21 97/127/21 98/129/21
f 96/130/21 103/137/21 66/138/21
f 81/139/21 109/140/21 102/133/21
f 101/128/21 107/141/21 100/125/21
f 106/135/21 98/129/21 99/126/21
f 104/142/21 96/130/21 97/127/21
f 114/143/21 106/144/21 107/145/21
f 105/146/21 111/147/21 104/148/21
f 103/149/21 110/150/21 66/151/21
f 81/152/21 116/153/21 109/154/21
f 115/155/21 107/145/21 108/156/21
f 106/144/21 112/157/21 105/146/21
f 104/148/21 110/150/21 103/149/21
f 116/153/21 108/156/21 109/154/21
f 81/158/21 122/62/21 116/153/21
f 121/66/21 114/143/21 115/155/21
f 113/159/21 119/74/21 112/157/21
f 111/147/21 117/75/21 110/150/21
f 122/62/21 115/155/21 116/153/21
f 120/64/21 113/159/21 114/143/21
f 112/157/21 118/70/21 111/147/21
f 110/150/21 117/75/21 66/160/21
f 120/64/144 48/73/144 49/65/144
f 65/67/145 119/74/145 46/68/145
f 118/70/146 117/75/146 44/71/146
f 121/66/147 49/65/147 50/63/147
f 65/67/148 47/69/148 48/73/148
f 119/74/149 118/70/149 45/72/149
f 45/72/88 44/71/88 51/77/88
f 49/65/89 56/84/89 57/79/89
f 47/69/90 54/85/90 55/80/90
f 46/68/91 45/72/91 52/78/91
f 48/73/94 55/80/94 56/84/94
f 47/69/95 46/68/95 53/81/95
f 57/79/96 56/84/96 63/86/96
f 55/80/97 54/85/97 61/88/97
f 52/78/98 59/94/98 60/90/98
f 56/84/101 55/80/101 62/89/101
f 53/81/102 60/90/102 61/88/102
f 51/77/103 58/92/103 59/94/103
f 63/86/150 62/89/150 93/99/150
f 60/90/151 91/103/151 92/101/151
f 58/92/152 89/96/152 90/102/152
f 64/87/153 63/86/153 94/100/153
f 62/89/154 61/88/154 92/101/154
f 59/94/155 90/102/155 91/103/155
f 72/105/156 71/108/156 120/64/156
f 65/67/157 70/113/157 69/106/157
f 118/70/158 68/109/158 67/107/158
f 73/104/159 72/105/159 121/66/159
f 71/108/160 70/113/160 65/67/160
f 119/74/161 69/106/161 68/109/161
f 68/109/120 75/114/120 74/110/120
f 80/111/121 79/115/121 72/105/121
f 78/112/122 77/119/122 70/113/122
f 69/106/123 76/116/123 75/114/123
f 79/115/126 78/112/126 71/108/126
f 70/113/127 77/119/127 76/116/127
f 80/111/128 88/122/128 87/117/128
f 78/112/129 86/123/129 85/118/129
f 84/120/130 83/124/130 75/114/130
f 79/115/133 87/117/133 86/123/133
f 85/118/134 84/120/134 76/116/134
f 83/124/135 82/121/135 74/110/135
f 87/117/162 94/100/162 93/99/162
f 92/101/163 91/103/163 84/120/163
f 90/102/164 89/96/164 82/121/164
f 88/122/165 95/98/165 94/100/165
f 86/123/166 93/99/166 92/101/166
f 91/103/167 90/102/167 83/124/167
f 94/100/21 101/128/21 100/125/21
f 99/126/21 98/129/21 91/103/21
f 97/127/21 96/130/21 89/96/21
f 95/98/21 102/133/21 101/128/21
f 93/99/21 100/125/21 99/126/21
f 98/129/21 97/127/21 90/102/21
f 102/133/21 109/140/21 108/134/21
f 100/125/21 107/141/21 106/135/21
f 105/136/21 104/142/21 97/127/21
f 101/128/21 108/134/21 107/141/21
f 106/135/21 105/136/21 98/129/21
f 104/142/21 103/137/21 96/130/21
f 114/143/21 113/159/21 106/144/21
f 105/146/21 112/157/21 111/147/21
f 115/155/21 114/143/21 107/145/21
f 106/144/21 113/159/21 112/157/21
f 104/148/21 111/147/21 110/150/21
f 116/153/21 115/155/21 108/156/21
f 121/66/21 120/64/21 114/143/21
f 113/159/21 65/67/21 119/74/21
f 111/147/21 118/70/21 117/75/21
f 122/62/21 121/66/21 115/155/21
f 120/64/21 65/67/21 113/159/21
f 112/157/21 119/74/21 118/70/21
