# Blender v2.80 (sub 55) OBJ File: 'mannquin.blend'
# www.blender.org
mtllib left_lower_arm.mtl
o Left_Lower_Arm.001_Cube.011
v 0.050324 -0.063066 0.055655
v 0.048283 0.051130 0.055655
v 0.050324 -0.063066 -0.055981
v 0.048283 0.051130 -0.055981
v 0.618876 -0.061063 0.045017
v 0.625582 0.028349 0.045017
v 0.618876 -0.061063 -0.045343
v 0.625582 0.028349 -0.045343
v 0.249539 -0.082490 -0.055981
v 0.235183 0.058566 -0.055981
v 0.249539 -0.082490 0.055655
v 0.235183 0.058566 0.055655
v 0.049304 -0.005968 0.071487
v 0.049304 -0.005968 -0.071812
v 0.626146 -0.009306 -0.058157
v 0.626146 -0.009306 0.057832
v 0.250979 -0.006478 0.071487
v 0.250979 -0.006478 -0.071812
v 0.048591 -0.077335 -0.000163
v 0.050233 0.067187 -0.000163
v 0.622010 -0.075921 -0.000163
v 0.625582 0.043173 -0.000163
v 0.237215 0.076701 -0.000163
v 0.247207 -0.103311 -0.000163
v 0.626146 -0.009306 -0.000163
v 0.049412 -0.005074 -0.000163
v -0.000322 -0.000258 -0.075824
v -0.000322 0.075556 -0.000009
v 0.020193 0.069785 -0.020525
v 0.037585 0.053351 -0.037917
v 0.049206 0.028755 -0.049537
v 0.053287 -0.000258 -0.053618
v 0.049206 -0.029271 -0.049537
v 0.037585 -0.053867 -0.037917
v 0.020193 -0.070301 -0.020525
v 0.028691 0.069785 -0.000009
v 0.053287 0.053351 -0.000009
v 0.069722 0.028755 -0.000009
v 0.075492 -0.000258 -0.000009
v 0.069722 -0.029271 -0.000009
v 0.053287 -0.053867 -0.000009
v 0.028691 -0.070301 -0.000009
v -0.000322 -0.076073 -0.000009
v 0.020193 0.069785 0.020506
v 0.037585 0.053351 0.037898
v 0.049206 0.028755 0.049519
v 0.053287 -0.000258 0.053599
v 0.049206 -0.029271 0.049519
v 0.037585 -0.053867 0.037898
v 0.020193 -0.070301 0.020506
v -0.000322 0.069785 0.029004
v -0.000322 0.053351 0.053599
v -0.000322 0.028755 0.070034
v -0.000322 -0.000258 0.075805
v -0.000322 -0.029271 0.070034
v -0.000322 -0.053867 0.053599
v -0.000322 -0.070301 0.029004
v -0.020837 0.069785 0.020506
v -0.038229 0.053351 0.037898
v -0.049850 0.028755 0.049519
v -0.053931 -0.000258 0.053599
v -0.049850 -0.029271 0.049519
v -0.038229 -0.053867 0.037898
v -0.020837 -0.070301 0.020506
v -0.029335 0.069785 -0.000009
v -0.053931 0.053351 -0.000009
v -0.070365 0.028755 -0.000009
v -0.076136 -0.000258 -0.000009
v -0.070365 -0.029271 -0.000009
v -0.053931 -0.053867 -0.000009
v -0.029335 -0.070301 -0.000009
v -0.020837 0.069785 -0.020525
v -0.038229 0.053351 -0.037917
v -0.049850 0.028755 -0.049537
v -0.053931 -0.000258 -0.053618
v -0.049850 -0.029271 -0.049537
v -0.038229 -0.053867 -0.037917
v -0.020837 -0.070301 -0.020525
v -0.000322 0.069785 -0.029022
v -0.000322 0.053351 -0.053618
v -0.000322 0.028755 -0.070053
v -0.000322 -0.029271 -0.070053
v -0.000322 -0.053867 -0.053618
v -0.000322 -0.070301 -0.029022
vt 0.500000 0.125000
vt 0.625000 0.250000
vt 0.500000 0.250000
vt 0.500000 0.375000
vt 0.625000 0.500000
vt 0.500000 0.500000
vt 0.500000 0.625000
vt 0.625000 0.750000
vt 0.500000 0.750000
vt 0.625000 0.875000
vt 0.500000 1.000000
vt 0.500000 0.875000
vt 0.250000 0.625000
vt 0.375000 0.750000
vt 0.250000 0.750000
vt 0.875000 0.625000
vt 0.750000 0.750000
vt 0.750000 0.625000
vt 0.625000 0.625000
vt 0.125000 0.750000
vt 0.125000 0.625000
vt 0.625000 0.375000
vt 0.375000 0.250000
vt 0.375000 0.375000
vt 0.375000 0.875000
vt 0.375000 1.000000
vt 0.375000 0.625000
vt 0.375000 0.500000
vt 0.375000 0.125000
vt 0.375000 0.000000
vt 0.125000 0.500000
vt 0.750000 0.500000
vt 0.250000 0.500000
vt 0.625000 0.000000
vt 0.500000 0.000000
vt 0.625000 0.125000
vt 0.625000 1.000000
vt 0.875000 0.750000
vt 0.875000 0.500000
vt 0.687500 0.000000
vt 0.750000 0.125000
vt 0.625000 0.125000
vt 0.750000 0.375000
vt 0.625000 0.250000
vt 0.750000 0.250000
vt 0.750000 0.625000
vt 0.625000 0.500000
vt 0.750000 0.500000
vt 0.750000 0.750000
vt 0.625000 0.875000
vt 0.625000 0.750000
vt 0.625000 0.375000
vt 0.625000 0.625000
vt 0.750000 0.875000
vt 0.687500 1.000000
vt 0.500000 0.875000
vt 0.500000 0.750000
vt 0.500000 0.125000
vt 0.500000 0.500000
vt 0.500000 0.375000
vt 0.500000 0.625000
vt 0.562500 1.000000
vt 0.562500 0.000000
vt 0.500000 0.250000
vt 0.375000 0.250000
vt 0.375000 0.125000
vt 0.375000 0.375000
vt 0.375000 0.625000
vt 0.437500 1.000000
vt 0.375000 0.875000
vt 0.437500 0.000000
vt 0.375000 0.500000
vt 0.375000 0.750000
vt 0.312500 1.000000
vt 0.250000 0.875000
vt 0.312500 0.000000
vt 0.250000 0.125000
vt 0.250000 0.375000
vt 0.250000 0.250000
vt 0.250000 0.625000
vt 0.250000 0.500000
vt 0.250000 0.750000
vt 0.125000 0.375000
vt 0.125000 0.250000
vt 0.125000 0.625000
vt 0.125000 0.500000
vt 0.125000 0.750000
vt 0.125000 0.125000
vt 0.187500 1.000000
vt 0.125000 0.875000
vt 0.187500 0.000000
vt 0.000000 0.125000
vt 0.000000 0.375000
vt 0.000000 0.625000
vt 0.062500 1.000000
vt 0.000000 0.875000
vt 0.062500 0.000000
vt 0.000000 0.250000
vt 0.000000 0.500000
vt 0.000000 0.750000
vt 1.000000 0.500000
vt 0.875000 0.375000
vt 1.000000 0.375000
vt 1.000000 0.625000
vt 0.875000 0.750000
vt 0.875000 0.625000
vt 1.000000 0.875000
vt 0.937500 1.000000
vt 0.875000 0.875000
vt 0.937500 0.000000
vt 1.000000 0.125000
vt 0.875000 0.125000
vt 0.875000 0.250000
vt 1.000000 0.250000
vt 0.875000 0.500000
vt 1.000000 0.750000
vt 0.812500 0.000000
vt 0.812500 1.000000
vn -0.9998 -0.0184 0.0017
vn 0.0369 0.3224 -0.9459
vn 0.9999 0.0150 0.0000
vn 0.0006 0.2366 0.9716
vn 0.0643 -0.9359 0.3464
vn -0.0484 0.9505 0.3070
vn 0.0818 0.9470 0.3107
vn -0.1256 -0.9602 0.2494
vn 0.0369 0.3224 0.9459
vn 0.0006 0.2366 -0.9716
vn -0.0198 -0.2035 -0.9789
vn 0.0400 -0.2045 0.9781
vn -0.0198 -0.2035 0.9789
vn 0.9941 -0.0617 0.0892
vn 0.0400 -0.2045 -0.9781
vn -0.9995 0.0114 -0.0281
vn -0.9995 0.0114 0.0281
vn 0.9941 -0.0617 -0.0892
vn -0.1256 -0.9602 -0.2494
vn 0.0818 0.9470 -0.3107
vn -0.0484 0.9505 -0.3070
vn 0.0643 -0.9359 -0.3464
vn -0.9998 -0.0184 -0.0017
vn -0.9994 0.0114 0.0316
vn 0.0455 0.2467 -0.9680
vn 0.9999 0.0107 0.0035
vn -0.0106 0.2670 0.9636
vn 0.0691 -0.9462 0.3160
vn -0.0382 0.9607 0.2750
vn 0.0818 0.9470 0.3106
vn -0.0909 -0.9318 0.3514
vn 0.0455 0.2467 0.9680
vn -0.0106 0.2670 -0.9636
vn -0.0007 -0.2672 -0.9636
vn 0.0334 -0.2446 0.9690
vn -0.0007 -0.2672 0.9636
vn 0.9903 -0.1391 0.0000
vn 0.0334 -0.2446 -0.9690
vn -0.9998 -0.0174 0.0017
vn -0.9998 -0.0174 -0.0017
vn -0.0909 -0.9318 -0.3514
vn 0.0818 0.9470 -0.3106
vn -0.0382 0.9607 -0.2750
vn 0.0691 -0.9462 -0.3160
vn 0.9999 0.0107 -0.0035
vn -0.9994 0.0114 -0.0316
vn 0.0805 -0.9776 -0.1945
vn 0.3256 -0.5253 -0.7862
vn 0.3764 0.1807 -0.9087
vn 0.2243 0.8103 -0.5414
vn 0.2243 -0.8103 -0.5414
vn 0.3764 -0.1807 -0.9087
vn 0.3256 0.5253 -0.7862
vn 0.0805 0.9776 -0.1945
vn 0.5414 0.8103 -0.2243
vn 0.5414 -0.8103 -0.2243
vn 0.9087 -0.1807 -0.3764
vn 0.7861 0.5253 -0.3256
vn 0.1945 0.9776 -0.0805
vn 0.1945 -0.9776 -0.0805
vn 0.7861 -0.5253 -0.3256
vn 0.9087 0.1807 -0.3764
vn 0.5414 -0.8103 0.2243
vn 0.9087 -0.1807 0.3764
vn 0.7861 0.5253 0.3256
vn 0.1945 0.9776 0.0805
vn 0.1945 -0.9776 0.0805
vn 0.7861 -0.5253 0.3256
vn 0.9087 0.1807 0.3764
vn 0.5414 0.8103 0.2243
vn 0.0805 0.9776 0.1945
vn 0.0805 -0.9776 0.1945
vn 0.3256 -0.5253 0.7862
vn 0.3764 0.1807 0.9087
vn 0.2243 0.8103 0.5414
vn 0.2243 -0.8103 0.5414
vn 0.3764 -0.1807 0.9087
vn 0.3256 0.5253 0.7862
vn -0.3256 -0.5253 0.7862
vn -0.3764 0.1807 0.9087
vn -0.2243 0.8103 0.5414
vn -0.2243 -0.8103 0.5414
vn -0.3764 -0.1807 0.9087
vn -0.3256 0.5253 0.7862
vn -0.0805 0.9776 0.1945
vn -0.0805 -0.9776 0.1945
vn -0.5414 -0.8103 0.2243
vn -0.9087 -0.1807 0.3764
vn -0.7862 0.5253 0.3256
vn -0.1945 0.9776 0.0806
vn -0.1945 -0.9776 0.0806
vn -0.7862 -0.5253 0.3256
vn -0.9087 0.1807 0.3764
vn -0.5414 0.8103 0.2243
vn -0.9087 -0.1807 -0.3764
vn -0.7862 0.5253 -0.3256
vn -0.1945 0.9776 -0.0806
vn -0.1945 -0.9776 -0.0806
vn -0.7862 -0.5253 -0.3256
vn -0.9087 0.1807 -0.3764
vn -0.5414 0.8103 -0.2243
vn -0.5414 -0.8103 -0.2243
vn -0.0805 -0.9776 -0.1945
vn -0.3256 -0.5253 -0.7862
vn -0.3764 0.1807 -0.9087
vn -0.2243 0.8103 -0.5414
vn -0.2243 -0.8103 -0.5414
vn -0.3764 -0.1807 -0.9087
vn -0.3256 0.5253 -0.7862
vn -0.0805 0.9776 -0.1945
vn 0.7862 0.5253 -0.3256
vn 0.7862 0.5253 0.3256
vn -0.3256 -0.5253 0.7861
vn -0.3256 -0.5253 -0.7861
usemtl Base
s off
f 26/1/1 4/2/1 14/3/1
f 18/4/2 8/5/2 15/6/2
f 25/7/3 6/8/3 16/9/3
f 12/10/4 13/11/4 17/12/4
f 24/13/5 5/14/5 11/15/5
f 20/16/6 12/17/6 23/18/6
f 23/18/7 6/8/7 22/19/7
f 24/13/8 1/20/8 19/21/8
f 6/8/9 17/12/9 16/9/9
f 14/3/10 10/22/10 18/4/10
f 3/23/11 18/4/11 9/24/11
f 5/14/12 17/12/12 11/25/12
f 17/12/13 1/26/13 11/25/13
f 25/7/14 5/14/14 21/27/14
f 18/4/15 7/28/15 9/24/15
f 26/1/16 3/23/16 19/29/16
f 1/30/17 26/1/17 19/29/17
f 7/28/18 25/7/18 21/27/18
f 3/31/19 24/13/19 19/21/19
f 8/5/20 23/18/20 22/19/20
f 10/32/21 20/16/21 23/18/21
f 7/28/22 24/13/22 9/33/22
f 8/5/3 25/7/3 15/6/3
f 2/34/23 26/1/23 13/35/23
f 26/1/24 20/36/24 4/2/24
f 18/4/25 10/22/25 8/5/25
f 25/7/26 22/19/26 6/8/26
f 12/10/27 2/37/27 13/11/27
f 24/13/28 21/27/28 5/14/28
f 20/16/29 2/38/29 12/17/29
f 23/18/30 12/17/30 6/8/30
f 24/13/31 11/15/31 1/20/31
f 6/8/32 12/10/32 17/12/32
f 14/3/33 4/2/33 10/22/33
f 3/23/34 14/3/34 18/4/34
f 5/14/35 16/9/35 17/12/35
f 17/12/36 13/11/36 1/26/36
f 25/7/37 16/9/37 5/14/37
f 18/4/38 15/6/38 7/28/38
f 26/1/39 14/3/39 3/23/39
f 1/30/40 13/35/40 26/1/40
f 7/28/37 15/6/37 25/7/37
f 3/31/41 9/33/41 24/13/41
f 8/5/42 10/32/42 23/18/42
f 10/32/43 4/39/43 20/16/43
f 7/28/44 21/27/44 24/13/44
f 8/5/45 22/19/45 25/7/45
f 2/34/46 20/36/46 26/1/46
usemtl Joints
f 43/40/47 84/41/47 35/42/47
f 82/43/48 34/44/48 83/45/48
f 81/46/49 32/47/49 27/48/49
f 80/49/50 29/50/50 30/51/50
f 83/45/51 35/42/51 84/41/51
f 82/43/52 32/47/52 33/52/52
f 81/46/53 30/51/53 31/53/53
f 79/54/54 28/55/54 29/50/54
f 30/51/55 36/56/55 37/57/55
f 34/44/56 42/58/56 35/42/56
f 33/52/57 39/59/57 40/60/57
f 31/53/58 37/57/58 38/61/58
f 29/50/59 28/62/59 36/56/59
f 43/63/60 35/42/60 42/58/60
f 33/52/61 41/64/61 34/44/61
f 31/53/62 39/59/62 32/47/62
f 42/58/63 49/65/63 50/66/63
f 39/59/64 48/67/64 40/60/64
f 37/57/65 46/68/65 38/61/65
f 36/56/66 28/69/66 44/70/66
f 43/71/67 42/58/67 50/66/67
f 41/64/68 48/67/68 49/65/68
f 39/59/69 46/68/69 47/72/69
f 36/56/70 45/73/70 37/57/70
f 44/70/71 28/74/71 51/75/71
f 43/76/72 50/66/72 57/77/72
f 49/65/73 55/78/73 56/79/73
f 47/72/74 53/80/74 54/81/74
f 44/70/75 52/82/75 45/73/75
f 50/66/76 56/79/76 57/77/76
f 47/72/77 55/78/77 48/67/77
f 45/73/78 53/80/78 46/68/78
f 56/79/79 62/83/79 63/84/79
f 54/81/80 60/85/80 61/86/80
f 51/75/81 59/87/81 52/82/81
f 56/79/82 64/88/82 57/77/82
f 54/81/83 62/83/83 55/78/83
f 52/82/84 60/85/84 53/80/84
f 51/75/85 28/89/85 58/90/85
f 43/91/86 57/77/86 64/88/86
f 63/84/87 71/92/87 64/88/87
f 61/86/88 69/93/88 62/83/88
f 59/87/89 67/94/89 60/85/89
f 58/90/90 28/95/90 65/96/90
f 43/97/91 64/88/91 71/92/91
f 63/84/92 69/93/92 70/98/92
f 61/86/93 67/94/93 68/99/93
f 59/87/94 65/96/94 66/100/94
f 68/101/95 76/102/95 69/103/95
f 67/104/96 73/105/96 74/106/96
f 65/107/97 28/108/97 72/109/97
f 43/110/98 71/111/98 78/112/98
f 69/103/99 77/113/99 70/114/99
f 68/101/100 74/106/100 75/115/100
f 65/107/101 73/105/101 66/116/101
f 71/111/102 77/113/102 78/112/102
f 43/117/103 78/112/103 84/41/103
f 76/102/104 83/45/104 77/113/104
f 74/106/105 27/48/105 75/115/105
f 73/105/106 79/54/106 80/49/106
f 77/113/107 84/41/107 78/112/107
f 76/102/108 27/48/108 82/43/108
f 74/106/109 80/49/109 81/46/109
f 72/109/110 28/118/110 79/54/110
f 82/43/48 33/52/48 34/44/48
f 81/46/49 31/53/49 32/47/49
f 80/49/50 79/54/50 29/50/50
f 83/45/51 34/44/51 35/42/51
f 82/43/52 27/48/52 32/47/52
f 81/46/53 80/49/53 30/51/53
f 30/51/55 29/50/55 36/56/55
f 34/44/56 41/64/56 42/58/56
f 33/52/57 32/47/57 39/59/57
f 31/53/111 30/51/111 37/57/111
f 33/52/61 40/60/61 41/64/61
f 31/53/62 38/61/62 39/59/62
f 42/58/63 41/64/63 49/65/63
f 39/59/64 47/72/64 48/67/64
f 37/57/112 45/73/112 46/68/112
f 41/64/68 40/60/68 48/67/68
f 39/59/69 38/61/69 46/68/69
f 36/56/70 44/70/70 45/73/70
f 49/65/73 48/67/73 55/78/73
f 47/72/74 46/68/74 53/80/74
f 44/70/75 51/75/75 52/82/75
f 50/66/76 49/65/76 56/79/76
f 47/72/77 54/81/77 55/78/77
f 45/73/78 52/82/78 53/80/78
f 56/79/113 55/78/113 62/83/113
f 54/81/80 53/80/80 60/85/80
f 51/75/81 58/90/81 59/87/81
f 56/79/82 63/84/82 64/88/82
f 54/81/83 61/86/83 62/83/83
f 52/82/84 59/87/84 60/85/84
f 63/84/87 70/98/87 71/92/87
f 61/86/88 68/99/88 69/93/88
f 59/87/89 66/100/89 67/94/89
f 63/84/92 62/83/92 69/93/92
f 61/86/93 60/85/93 67/94/93
f 59/87/94 58/90/94 65/96/94
f 68/101/95 75/115/95 76/102/95
f 67/104/96 66/116/96 73/105/96
f 69/103/99 76/102/99 77/113/99
f 68/101/100 67/104/100 74/106/100
f 65/107/101 72/109/101 73/105/101
f 71/111/102 70/114/102 77/113/102
f 76/102/114 82/43/114 83/45/114
f 74/106/105 81/46/105 27/48/105
f 73/105/106 72/109/106 79/54/106
f 77/113/107 83/45/107 84/41/107
f 76/102/108 75/115/108 27/48/108
f 74/106/109 73/105/109 80/49/109
