# Blender v2.80 (sub 55) OBJ File: 'mannquin.blend'
# www.blender.org
mtllib left_upper_arm.mtl
o Left_Upper_Arm.001_Cube.010
v 0.070866 -0.056176 0.068127
v 0.055073 0.083752 0.068127
v 0.070866 -0.056176 -0.069969
v 0.055073 0.083752 -0.069969
v 0.551031 -0.058239 0.068127
v 0.578106 0.077562 0.068127
v 0.551031 -0.058239 -0.069969
v 0.578106 0.077562 -0.069969
v 0.283874 -0.086303 -0.069969
v 0.242134 0.093246 -0.069969
v 0.283874 -0.086303 0.068127
v 0.242134 0.093246 0.068127
v 0.062969 0.013788 0.087711
v 0.062969 0.013788 -0.089553
v 0.564569 0.009661 -0.089553
v 0.564569 0.009661 0.087711
v 0.263004 0.003471 0.087711
v 0.263004 0.003471 -0.089553
v 0.070866 -0.073956 -0.000921
v 0.055073 0.103760 -0.000921
v 0.551031 -0.076576 -0.000921
v 0.578106 0.095899 -0.000921
v 0.242134 0.115819 -0.000921
v 0.283874 -0.112219 -0.000921
v 0.564569 0.009661 -0.000921
v 0.062969 0.014902 -0.000921
v 0.000068 0.000515 -0.088727
v 0.000068 0.088474 -0.000768
v 0.023870 0.081778 -0.024569
v 0.044048 0.062711 -0.044747
v 0.057530 0.034175 -0.058230
v 0.062265 0.000515 -0.062964
v 0.057530 -0.033146 -0.058230
v 0.044048 -0.061682 -0.044747
v 0.023870 -0.080749 -0.024569
v 0.033729 0.081778 -0.000768
v 0.062265 0.062711 -0.000768
v 0.081332 0.034175 -0.000768
v 0.088027 0.000515 -0.000768
v 0.081332 -0.033146 -0.000768
v 0.062265 -0.061682 -0.000768
v 0.033729 -0.080749 -0.000768
v 0.000068 -0.087445 -0.000768
v 0.023870 0.081778 0.023034
v 0.044048 0.062711 0.043212
v 0.057530 0.034175 0.056695
v 0.062265 0.000515 0.061429
v 0.057530 -0.033146 0.056695
v 0.044048 -0.061682 0.043212
v 0.023870 -0.080749 0.023034
v 0.000068 0.081778 0.032893
v 0.000068 0.062711 0.061429
v 0.000068 0.034175 0.080496
v 0.000068 0.000515 0.087192
v 0.000068 -0.033146 0.080496
v 0.000068 -0.061682 0.061429
v 0.000068 -0.080749 0.032893
v -0.023733 0.081778 0.023034
v -0.043912 0.062711 0.043212
v -0.057394 0.034175 0.056695
v -0.062128 0.000515 0.061429
v -0.057394 -0.033146 0.056695
v -0.043912 -0.061682 0.043212
v -0.023733 -0.080749 0.023034
v -0.033593 0.081778 -0.000768
v -0.062128 0.062711 -0.000768
v -0.081196 0.034175 -0.000768
v -0.087891 0.000515 -0.000768
v -0.081196 -0.033146 -0.000768
v -0.062128 -0.061682 -0.000768
v -0.033593 -0.080749 -0.000768
v -0.023733 0.081778 -0.024569
v -0.043912 0.062711 -0.044747
v -0.057394 0.034175 -0.058230
v -0.062128 0.000515 -0.062964
v -0.057394 -0.033146 -0.058230
v -0.043912 -0.061682 -0.044747
v -0.023733 -0.080749 -0.024569
v 0.000068 0.081778 -0.034428
v 0.000068 0.062711 -0.062964
v 0.000068 0.034175 -0.082031
v 0.000068 -0.033146 -0.082031
v 0.000068 -0.061682 -0.062964
v 0.000068 -0.080749 -0.034428
vt 0.500000 0.125000
vt 0.625000 0.250000
vt 0.500000 0.250000
vt 0.500000 0.375000
vt 0.625000 0.500000
vt 0.500000 0.500000
vt 0.500000 0.625000
vt 0.625000 0.750000
vt 0.500000 0.750000
vt 0.625000 0.875000
vt 0.500000 1.000000
vt 0.500000 0.875000
vt 0.375000 0.625000
vt 0.250000 0.750000
vt 0.250000 0.625000
vt 0.875000 0.625000
vt 0.750000 0.750000
vt 0.750000 0.625000
vt 0.625000 0.625000
vt 0.125000 0.625000
vt 0.125000 0.750000
vt 0.625000 0.375000
vt 0.375000 0.250000
vt 0.375000 0.375000
vt 0.375000 0.750000
vt 0.375000 0.875000
vt 0.375000 1.000000
vt 0.375000 0.500000
vt 0.375000 0.125000
vt 0.375000 0.000000
vt 0.250000 0.500000
vt 0.125000 0.500000
vt 0.750000 0.500000
vt 0.625000 0.000000
vt 0.500000 0.000000
vt 0.625000 0.125000
vt 0.625000 1.000000
vt 0.875000 0.750000
vt 0.875000 0.500000
vt 0.687500 0.000000
vt 0.750000 0.125000
vt 0.625000 0.125000
vt 0.750000 0.375000
vt 0.625000 0.250000
vt 0.750000 0.250000
vt 0.750000 0.625000
vt 0.625000 0.500000
vt 0.750000 0.500000
vt 0.750000 0.750000
vt 0.625000 0.875000
vt 0.625000 0.750000
vt 0.625000 0.375000
vt 0.625000 0.625000
vt 0.750000 0.875000
vt 0.687500 1.000000
vt 0.500000 0.875000
vt 0.500000 0.750000
vt 0.500000 0.125000
vt 0.500000 0.500000
vt 0.500000 0.375000
vt 0.500000 0.625000
vt 0.562500 1.000000
vt 0.562500 0.000000
vt 0.500000 0.250000
vt 0.375000 0.250000
vt 0.375000 0.125000
vt 0.375000 0.375000
vt 0.375000 0.625000
vt 0.437500 1.000000
vt 0.375000 0.875000
vt 0.437500 0.000000
vt 0.375000 0.500000
vt 0.375000 0.750000
vt 0.312500 1.000000
vt 0.250000 0.875000
vt 0.312500 0.000000
vt 0.250000 0.125000
vt 0.250000 0.375000
vt 0.250000 0.250000
vt 0.250000 0.625000
vt 0.250000 0.500000
vt 0.250000 0.750000
vt 0.125000 0.375000
vt 0.125000 0.250000
vt 0.125000 0.625000
vt 0.125000 0.500000
vt 0.125000 0.875000
vt 0.125000 0.750000
vt 0.125000 0.125000
vt 0.187500 1.000000
vt 0.187500 0.000000
vt 0.000000 0.125000
vt 0.000000 0.375000
vt 0.000000 0.625000
vt 0.062500 1.000000
vt 0.000000 0.875000
vt 0.062500 0.000000
vt 0.000000 0.250000
vt 0.000000 0.500000
vt 0.000000 0.750000
vt 1.000000 0.500000
vt 0.875000 0.375000
vt 1.000000 0.375000
vt 1.000000 0.625000
vt 0.875000 0.750000
vt 0.875000 0.625000
vt 1.000000 0.875000
vt 0.937500 1.000000
vt 0.875000 0.875000
vt 0.937500 0.000000
vt 1.000000 0.125000
vt 0.875000 0.125000
vt 0.875000 0.250000
vt 1.000000 0.250000
vt 0.875000 0.500000
vt 1.000000 0.750000
vt 0.812500 0.000000
vt 0.812500 1.000000
vn -0.9936 -0.1125 0.0014
vn -0.0057 0.2782 -0.9605
vn 0.9807 -0.1955 0.0000
vn 0.0111 0.2156 0.9764
vn 0.1239 -0.9290 0.3487
vn -0.0612 0.9487 0.3102
vn 0.0451 0.9655 0.2564
vn -0.1357 -0.9595 0.2471
vn -0.0057 0.2782 0.9605
vn 0.0111 0.2156 -0.9764
vn -0.0311 -0.2199 -0.9750
vn 0.0219 -0.2082 0.9778
vn -0.0311 -0.2199 0.9750
vn 0.9871 -0.1549 0.0411
vn 0.0219 -0.2082 -0.9778
vn -0.9958 -0.0885 -0.0228
vn -0.9958 -0.0885 0.0228
vn 0.9871 -0.1549 -0.0411
vn -0.1357 -0.9595 -0.2471
vn 0.0451 0.9655 -0.2564
vn -0.0612 0.9487 -0.3102
vn 0.1239 -0.9290 -0.3487
vn -0.9936 -0.1125 -0.0014
vn -0.9957 -0.0885 0.0256
vn 0.0101 0.2154 -0.9765
vn -0.0136 0.2681 0.9633
vn 0.1010 -0.9616 0.2554
vn -0.0487 0.9593 0.2780
vn 0.0563 0.9490 0.3102
vn -0.1658 -0.9233 0.3465
vn 0.0101 0.2154 0.9765
vn -0.0136 0.2681 -0.9633
vn -0.0140 -0.2710 -0.9625
vn 0.0057 -0.2782 0.9605
vn -0.0140 -0.2710 0.9625
vn 0.0057 -0.2782 -0.9605
vn -0.9937 -0.1118 0.0014
vn -0.9937 -0.1118 -0.0014
vn -0.1658 -0.9233 -0.3465
vn 0.0563 0.9490 -0.3102
vn -0.0487 0.9593 -0.2780
vn 0.1010 -0.9616 -0.2554
vn -0.9957 -0.0885 -0.0256
vn 0.0805 -0.9776 -0.1945
vn 0.3256 -0.5253 -0.7862
vn 0.3764 0.1807 -0.9087
vn 0.2243 0.8103 -0.5414
vn 0.2243 -0.8103 -0.5414
vn 0.3764 -0.1807 -0.9087
vn 0.3256 0.5253 -0.7862
vn 0.0805 0.9776 -0.1945
vn 0.5414 0.8103 -0.2243
vn 0.5414 -0.8103 -0.2243
vn 0.9087 -0.1807 -0.3764
vn 0.7861 0.5253 -0.3256
vn 0.1945 0.9776 -0.0806
vn 0.1945 -0.9776 -0.0805
vn 0.7861 -0.5253 -0.3256
vn 0.9087 0.1807 -0.3764
vn 0.5414 -0.8103 0.2243
vn 0.9087 -0.1807 0.3764
vn 0.7861 0.5253 0.3256
vn 0.1945 0.9776 0.0806
vn 0.1945 -0.9776 0.0805
vn 0.7861 -0.5253 0.3256
vn 0.9087 0.1807 0.3764
vn 0.5414 0.8103 0.2243
vn 0.0805 0.9776 0.1945
vn 0.0805 -0.9776 0.1945
vn 0.3256 -0.5253 0.7862
vn 0.3764 0.1807 0.9087
vn 0.2243 0.8103 0.5414
vn 0.2243 -0.8103 0.5414
vn 0.3764 -0.1807 0.9087
vn 0.3256 0.5253 0.7862
vn -0.3256 -0.5253 0.7862
vn -0.3764 0.1807 0.9087
vn -0.2243 0.8103 0.5414
vn -0.2243 -0.8103 0.5414
vn -0.3764 -0.1807 0.9087
vn -0.3256 0.5253 0.7862
vn -0.0806 0.9776 0.1945
vn -0.0805 -0.9776 0.1945
vn -0.5414 -0.8103 0.2243
vn -0.9087 -0.1807 0.3764
vn -0.7862 0.5253 0.3256
vn -0.1945 0.9776 0.0806
vn -0.1945 -0.9776 0.0806
vn -0.7862 -0.5253 0.3256
vn -0.9087 0.1807 0.3764
vn -0.5414 0.8103 0.2243
vn -0.9087 -0.1807 -0.3764
vn -0.7862 0.5253 -0.3256
vn -0.1945 0.9776 -0.0806
vn -0.1945 -0.9776 -0.0806
vn -0.7862 -0.5253 -0.3256
vn -0.9087 0.1807 -0.3764
vn -0.5414 0.8103 -0.2243
vn -0.5414 -0.8103 -0.2243
vn -0.0805 -0.9776 -0.1945
vn -0.3256 -0.5253 -0.7862
vn -0.3764 0.1807 -0.9087
vn -0.2243 0.8103 -0.5414
vn -0.2243 -0.8103 -0.5414
vn -0.3764 -0.1807 -0.9087
vn -0.3256 0.5253 -0.7862
vn -0.0806 0.9776 -0.1945
vn 0.7862 0.5253 -0.3256
vn 0.7862 0.5253 0.3256
vn -0.3256 -0.5253 -0.7861
usemtl Base
s off
f 26/1/1 4/2/1 14/3/1
f 18/4/2 8/5/2 15/6/2
f 25/7/3 6/8/3 16/9/3
f 12/10/4 13/11/4 17/12/4
f 21/13/5 11/14/5 24/15/5
f 20/16/6 12/17/6 23/18/6
f 22/19/7 12/17/7 6/8/7
f 19/20/8 11/14/8 1/21/8
f 6/8/9 17/12/9 16/9/9
f 14/3/10 10/22/10 18/4/10
f 3/23/11 18/4/11 9/24/11
f 5/25/12 17/12/12 11/26/12
f 17/12/13 1/27/13 11/26/13
f 25/7/14 5/25/14 21/13/14
f 18/4/15 7/28/15 9/24/15
f 26/1/16 3/23/16 19/29/16
f 1/30/17 26/1/17 19/29/17
f 7/28/18 25/7/18 21/13/18
f 9/31/19 19/20/19 3/32/19
f 10/33/20 22/19/20 8/5/20
f 10/33/21 20/16/21 23/18/21
f 9/31/22 21/13/22 24/15/22
f 8/5/3 25/7/3 15/6/3
f 2/34/23 26/1/23 13/35/23
f 26/1/24 20/36/24 4/2/24
f 18/4/25 10/22/25 8/5/25
f 25/7/18 22/19/18 6/8/18
f 12/10/26 2/37/26 13/11/26
f 21/13/27 5/25/27 11/14/27
f 20/16/28 2/38/28 12/17/28
f 22/19/29 23/18/29 12/17/29
f 19/20/30 24/15/30 11/14/30
f 6/8/31 12/10/31 17/12/31
f 14/3/32 4/2/32 10/22/32
f 3/23/33 14/3/33 18/4/33
f 5/25/34 16/9/34 17/12/34
f 17/12/35 13/11/35 1/27/35
f 25/7/3 16/9/3 5/25/3
f 18/4/36 15/6/36 7/28/36
f 26/1/37 14/3/37 3/23/37
f 1/30/38 13/35/38 26/1/38
f 7/28/3 15/6/3 25/7/3
f 9/31/39 24/15/39 19/20/39
f 10/33/40 23/18/40 22/19/40
f 10/33/41 4/39/41 20/16/41
f 9/31/42 7/28/42 21/13/42
f 8/5/14 22/19/14 25/7/14
f 2/34/43 20/36/43 26/1/43
usemtl Joints
f 43/40/44 84/41/44 35/42/44
f 82/43/45 34/44/45 83/45/45
f 81/46/46 32/47/46 27/48/46
f 80/49/47 29/50/47 30/51/47
f 83/45/48 35/42/48 84/41/48
f 82/43/49 32/47/49 33/52/49
f 81/46/50 30/51/50 31/53/50
f 79/54/51 28/55/51 29/50/51
f 30/51/52 36/56/52 37/57/52
f 34/44/53 42/58/53 35/42/53
f 33/52/54 39/59/54 40/60/54
f 31/53/55 37/57/55 38/61/55
f 29/50/56 28/62/56 36/56/56
f 43/63/57 35/42/57 42/58/57
f 33/52/58 41/64/58 34/44/58
f 31/53/59 39/59/59 32/47/59
f 42/58/60 49/65/60 50/66/60
f 39/59/61 48/67/61 40/60/61
f 37/57/62 46/68/62 38/61/62
f 36/56/63 28/69/63 44/70/63
f 43/71/64 42/58/64 50/66/64
f 41/64/65 48/67/65 49/65/65
f 39/59/66 46/68/66 47/72/66
f 36/56/67 45/73/67 37/57/67
f 44/70/68 28/74/68 51/75/68
f 43/76/69 50/66/69 57/77/69
f 49/65/70 55/78/70 56/79/70
f 47/72/71 53/80/71 54/81/71
f 44/70/72 52/82/72 45/73/72
f 50/66/73 56/79/73 57/77/73
f 47/72/74 55/78/74 48/67/74
f 45/73/75 53/80/75 46/68/75
f 56/79/76 62/83/76 63/84/76
f 54/81/77 60/85/77 61/86/77
f 52/82/78 58/87/78 59/88/78
f 56/79/79 64/89/79 57/77/79
f 54/81/80 62/83/80 55/78/80
f 52/82/81 60/85/81 53/80/81
f 51/75/82 28/90/82 58/87/82
f 43/91/83 57/77/83 64/89/83
f 63/84/84 71/92/84 64/89/84
f 61/86/85 69/93/85 62/83/85
f 59/88/86 67/94/86 60/85/86
f 58/87/87 28/95/87 65/96/87
f 43/97/88 64/89/88 71/92/88
f 63/84/89 69/93/89 70/98/89
f 61/86/90 67/94/90 68/99/90
f 59/88/91 65/96/91 66/100/91
f 68/101/92 76/102/92 69/103/92
f 67/104/93 73/105/93 74/106/93
f 65/107/94 28/108/94 72/109/94
f 43/110/95 71/111/95 78/112/95
f 69/103/96 77/113/96 70/114/96
f 68/101/97 74/106/97 75/115/97
f 65/107/98 73/105/98 66/116/98
f 71/111/99 77/113/99 78/112/99
f 43/117/100 78/112/100 84/41/100
f 76/102/101 83/45/101 77/113/101
f 74/106/102 27/48/102 75/115/102
f 72/109/103 80/49/103 73/105/103
f 77/113/104 84/41/104 78/112/104
f 76/102/105 27/48/105 82/43/105
f 74/106/106 80/49/106 81/46/106
f 72/109/107 28/118/107 79/54/107
f 82/43/45 33/52/45 34/44/45
f 81/46/46 31/53/46 32/47/46
f 80/49/47 79/54/47 29/50/47
f 83/45/48 34/44/48 35/42/48
f 82/43/49 27/48/49 32/47/49
f 81/46/50 80/49/50 30/51/50
f 30/51/52 29/50/52 36/56/52
f 34/44/53 41/64/53 42/58/53
f 33/52/54 32/47/54 39/59/54
f 31/53/108 30/51/108 37/57/108
f 33/52/58 40/60/58 41/64/58
f 31/53/59 38/61/59 39/59/59
f 42/58/60 41/64/60 49/65/60
f 39/59/61 47/72/61 48/67/61
f 37/57/109 45/73/109 46/68/109
f 41/64/65 40/60/65 48/67/65
f 39/59/66 38/61/66 46/68/66
f 36/56/67 44/70/67 45/73/67
f 49/65/70 48/67/70 55/78/70
f 47/72/71 46/68/71 53/80/71
f 44/70/72 51/75/72 52/82/72
f 50/66/73 49/65/73 56/79/73
f 47/72/74 54/81/74 55/78/74
f 45/73/75 52/82/75 53/80/75
f 56/79/76 55/78/76 62/83/76
f 54/81/77 53/80/77 60/85/77
f 52/82/78 51/75/78 58/87/78
f 56/79/79 63/84/79 64/89/79
f 54/81/80 61/86/80 62/83/80
f 52/82/81 59/88/81 60/85/81
f 63/84/84 70/98/84 71/92/84
f 61/86/85 68/99/85 69/93/85
f 59/88/86 66/100/86 67/94/86
f 63/84/89 62/83/89 69/93/89
f 61/86/90 60/85/90 67/94/90
f 59/88/91 58/87/91 65/96/91
f 68/101/92 75/115/92 76/102/92
f 67/104/93 66/116/93 73/105/93
f 69/103/96 76/102/96 77/113/96
f 68/101/97 67/104/97 74/106/97
f 65/107/98 72/109/98 73/105/98
f 71/111/99 70/114/99 77/113/99
f 76/102/110 82/43/110 83/45/110
f 74/106/102 81/46/102 27/48/102
f 72/109/103 79/54/103 80/49/103
f 77/113/104 83/45/104 84/41/104
f 76/102/105 75/115/105 27/48/105
f 74/106/106 73/105/106 80/49/106
