# Blender v2.80 (sub 55) OBJ File: 'mannquin.blend'
# www.blender.org
mtllib left_foot.mtl
o Left_Foot.001_Cube.014
v -0.088337 -0.134659 0.124882
v -0.045123 0.010988 0.116548
v -0.088337 -0.134659 -0.100935
v -0.045123 -0.001513 -0.106491
v 0.113383 -0.134659 0.124882
v 0.056559 0.004720 0.116548
v 0.113383 -0.134659 -0.100935
v 0.056559 -0.007780 -0.106491
v -0.088292 -0.134659 0.342413
v -0.046451 -0.019016 0.229906
v 0.113428 -0.134659 0.342413
v 0.055232 -0.019016 0.229906
v -0.084930 -0.061836 0.120715
v -0.084930 -0.068086 -0.103713
v 0.103919 -0.071220 -0.103713
v 0.103919 -0.064970 0.120715
v -0.085564 -0.081005 0.330606
v 0.103285 -0.081005 0.330606
v 0.000005 0.000161 -0.061461
v 0.000005 0.061490 -0.000131
v 0.016600 0.056822 -0.016727
v 0.030669 0.043527 -0.030796
v 0.040070 0.023631 -0.040197
v 0.043371 0.000161 -0.043498
v 0.040070 -0.023309 -0.040197
v 0.030669 -0.043205 -0.030796
v 0.016600 -0.056500 -0.016727
v 0.023475 0.056822 -0.000132
v 0.043371 0.043527 -0.000132
v 0.056666 0.023631 -0.000132
v 0.061334 0.000161 -0.000132
v 0.056666 -0.023309 -0.000132
v 0.043371 -0.043205 -0.000132
v 0.023475 -0.056500 -0.000132
v 0.000005 -0.061168 -0.000132
v 0.016600 0.056822 0.016464
v 0.030669 0.043527 0.030533
v 0.040070 0.023631 0.039934
v 0.043371 0.000161 0.043235
v 0.040070 -0.023309 0.039934
v 0.030669 -0.043205 0.030533
v 0.016600 -0.056500 0.016464
v 0.000005 0.056822 0.023338
v 0.000005 0.043527 0.043235
v 0.000005 0.023631 0.056529
v 0.000005 0.000161 0.061198
v 0.000005 -0.023309 0.056529
v 0.000005 -0.043205 0.043235
v 0.000005 -0.056500 0.023338
v -0.016591 0.056822 0.016464
v -0.030660 0.043527 0.030533
v -0.040061 0.023631 0.039934
v -0.043362 0.000161 0.043235
v -0.040061 -0.023309 0.039934
v -0.030660 -0.043205 0.030533
v -0.016591 -0.056500 0.016464
v -0.023465 0.056822 -0.000132
v -0.043362 0.043527 -0.000132
v -0.056656 0.023631 -0.000132
v -0.061325 0.000161 -0.000132
v -0.056656 -0.023309 -0.000132
v -0.043362 -0.043205 -0.000132
v -0.023465 -0.056500 -0.000132
v -0.016591 0.056822 -0.016727
v -0.030660 0.043527 -0.030796
v -0.040061 0.023631 -0.040197
v -0.043362 0.000161 -0.043498
v -0.040061 -0.023309 -0.040197
v -0.030660 -0.043205 -0.030796
v -0.016591 -0.056500 -0.016727
v 0.000005 0.056822 -0.023601
v 0.000005 0.043527 -0.043498
v 0.000005 0.023631 -0.056793
v 0.000005 -0.023309 -0.056793
v 0.000005 -0.043205 -0.043498
v 0.000005 -0.056500 -0.023601
vt 0.625000 0.000000
vt 0.500000 0.250000
vt 0.500000 0.000000
vt 0.625000 0.500000
vt 0.500000 0.500000
vt 0.625000 0.750000
vt 0.500000 0.750000
vt 0.875000 0.750000
vt 0.625000 0.750000
vt 0.375000 0.500000
vt 0.125000 0.750000
vt 0.125000 0.500000
vt 0.875000 0.500000
vt 0.500000 1.000000
vt 0.500000 0.750000
vt 0.375000 0.000000
vt 0.500000 0.000000
vt 0.375000 0.750000
vt 0.125000 0.750000
vt 0.625000 0.000000
vt 0.375000 0.750000
vt 0.375000 1.000000
vt 0.375000 0.250000
vt 0.625000 0.250000
vt 0.875000 0.750000
vt 0.625000 1.000000
vt 0.375000 0.000000
vt 0.687500 0.000000
vt 0.750000 0.125000
vt 0.625000 0.125000
vt 0.750000 0.375000
vt 0.625000 0.250000
vt 0.750000 0.250000
vt 0.750000 0.625000
vt 0.625000 0.500000
vt 0.750000 0.500000
vt 0.750000 0.750000
vt 0.625000 0.875000
vt 0.625000 0.750000
vt 0.625000 0.375000
vt 0.625000 0.625000
vt 0.750000 0.875000
vt 0.687500 1.000000
vt 0.500000 0.875000
vt 0.500000 0.750000
vt 0.500000 0.125000
vt 0.500000 0.500000
vt 0.500000 0.375000
vt 0.500000 0.625000
vt 0.562500 1.000000
vt 0.562500 0.000000
vt 0.500000 0.250000
vt 0.375000 0.250000
vt 0.375000 0.125000
vt 0.375000 0.375000
vt 0.375000 0.625000
vt 0.437500 1.000000
vt 0.375000 0.875000
vt 0.437500 0.000000
vt 0.375000 0.500000
vt 0.375000 0.750000
vt 0.312500 1.000000
vt 0.250000 0.875000
vt 0.312500 0.000000
vt 0.250000 0.125000
vt 0.250000 0.375000
vt 0.250000 0.250000
vt 0.250000 0.625000
vt 0.250000 0.500000
vt 0.250000 0.750000
vt 0.125000 0.375000
vt 0.125000 0.250000
vt 0.125000 0.625000
vt 0.125000 0.500000
vt 0.125000 0.750000
vt 0.125000 0.125000
vt 0.187500 1.000000
vt 0.125000 0.875000
vt 0.187500 0.000000
vt 0.000000 0.125000
vt 0.000000 0.375000
vt 0.000000 0.625000
vt 0.062500 1.000000
vt 0.000000 0.875000
vt 0.062500 0.000000
vt 0.000000 0.250000
vt 0.000000 0.500000
vt 0.000000 0.750000
vt 1.000000 0.500000
vt 0.875000 0.375000
vt 1.000000 0.375000
vt 1.000000 0.625000
vt 0.875000 0.750000
vt 0.875000 0.625000
vt 1.000000 0.875000
vt 0.937500 1.000000
vt 0.875000 0.875000
vt 0.937500 0.000000
vt 1.000000 0.125000
vt 0.875000 0.125000
vt 0.875000 0.250000
vt 1.000000 0.250000
vt 0.875000 0.500000
vt 1.000000 0.750000
vt 0.812500 0.000000
vt 0.812500 1.000000
vn -0.8777 0.4790 -0.0133
vn -0.0007 -0.0443 -0.9990
vn 0.8274 0.5614 -0.0156
vn 0.0602 0.9769 0.2053
vn 0.0000 -1.0000 0.0000
vn 0.0614 0.9965 -0.0559
vn 0.0000 0.8516 0.5242
vn 0.7457 0.6642 0.0530
vn -0.9989 0.0468 0.0013
vn -0.8686 0.4815 0.1173
vn 0.9826 0.1857 -0.0002
vn 0.0000 0.2149 0.9766
vn 0.9909 0.1346 0.0000
vn 0.0000 -0.0437 -0.9990
vn -0.9989 0.0467 0.0000
vn -0.8584 0.5121 -0.0287
vn -0.0025 -0.0402 -0.9992
vn 0.8016 0.5969 -0.0335
vn 0.0000 0.9667 0.2559
vn 0.8168 0.5627 0.1274
vn -0.9987 0.0508 0.0002
vn -0.8046 0.5915 0.0516
vn 0.9907 0.1353 0.0133
vn 0.9891 0.1474 -0.0041
vn -0.0007 -0.0417 -0.9991
vn -0.9987 0.0511 -0.0014
vn 0.0805 -0.9776 -0.1945
vn 0.3256 -0.5253 -0.7862
vn 0.3764 0.1807 -0.9087
vn 0.2243 0.8103 -0.5414
vn 0.2243 -0.8103 -0.5414
vn 0.3764 -0.1807 -0.9087
vn 0.3256 0.5253 -0.7862
vn 0.0805 0.9776 -0.1945
vn 0.5414 0.8103 -0.2243
vn 0.5414 -0.8103 -0.2243
vn 0.9087 -0.1807 -0.3764
vn 0.7861 0.5253 -0.3256
vn 0.1945 0.9776 -0.0805
vn 0.1945 -0.9776 -0.0805
vn 0.7862 -0.5253 -0.3256
vn 0.9087 0.1807 -0.3764
vn 0.5414 -0.8103 0.2243
vn 0.9087 -0.1807 0.3764
vn 0.7861 0.5253 0.3256
vn 0.1945 0.9776 0.0805
vn 0.1945 -0.9776 0.0805
vn 0.7862 -0.5253 0.3256
vn 0.9087 0.1807 0.3764
vn 0.5414 0.8103 0.2243
vn 0.0805 0.9776 0.1945
vn 0.0805 -0.9776 0.1945
vn 0.3256 -0.5253 0.7862
vn 0.3764 0.1807 0.9087
vn 0.2243 0.8103 0.5414
vn 0.2243 -0.8103 0.5414
vn 0.3764 -0.1807 0.9087
vn 0.3256 0.5253 0.7862
vn -0.3256 -0.5253 0.7862
vn -0.3764 0.1807 0.9087
vn -0.2243 0.8103 0.5414
vn -0.2243 -0.8103 0.5414
vn -0.3764 -0.1807 0.9087
vn -0.3256 0.5253 0.7862
vn -0.0805 0.9776 0.1945
vn -0.0805 -0.9776 0.1945
vn -0.5414 -0.8103 0.2243
vn -0.9087 -0.1807 0.3764
vn -0.7862 0.5253 0.3256
vn -0.1945 0.9776 0.0805
vn -0.1945 -0.9776 0.0805
vn -0.7862 -0.5253 0.3256
vn -0.9087 0.1807 0.3764
vn -0.5414 0.8103 0.2243
vn -0.9087 -0.1807 -0.3764
vn -0.7862 0.5253 -0.3256
vn -0.1945 0.9776 -0.0805
vn -0.1945 -0.9776 -0.0805
vn -0.7862 -0.5253 -0.3256
vn -0.9087 0.1807 -0.3764
vn -0.5414 0.8103 -0.2243
vn -0.5414 -0.8103 -0.2243
vn -0.0805 -0.9776 -0.1945
vn -0.3256 -0.5253 -0.7862
vn -0.3764 0.1807 -0.9087
vn -0.2243 0.8103 -0.5414
vn -0.2243 -0.8103 -0.5414
vn -0.3764 -0.1807 -0.9087
vn -0.3256 0.5253 -0.7862
vn -0.0805 0.9776 -0.1945
vn 0.7862 0.5253 -0.3256
vn 0.7861 -0.5253 -0.3256
vn 0.7862 0.5253 0.3256
vn 0.7861 -0.5253 0.3256
usemtl Base
s off
f 2/1/1 14/2/1 13/3/1
f 14/2/2 8/4/2 15/5/2
f 15/5/3 6/6/3 16/7/3
f 2/8/4 12/9/4 6/6/4
f 7/10/5 1/11/5 3/12/5
f 4/13/6 6/6/6 8/4/6
f 12/9/7 17/14/7 18/15/7
f 16/7/8 12/9/8 18/15/8
f 1/16/9 17/17/9 13/3/9
f 5/18/5 9/19/5 1/11/5
f 13/3/10 10/20/10 2/1/10
f 5/18/11 18/15/11 11/21/11
f 18/15/12 9/22/12 11/21/12
f 7/10/13 16/7/13 5/18/13
f 3/23/14 15/5/14 7/10/14
f 13/3/15 3/23/15 1/16/15
f 2/1/16 4/24/16 14/2/16
f 14/2/17 4/24/17 8/4/17
f 15/5/18 8/4/18 6/6/18
f 2/8/19 10/25/19 12/9/19
f 7/10/5 5/18/5 1/11/5
f 4/13/6 2/8/6 6/6/6
f 12/9/7 10/26/7 17/14/7
f 16/7/20 6/6/20 12/9/20
f 1/16/21 9/27/21 17/17/21
f 5/18/5 11/21/5 9/19/5
f 13/3/22 17/17/22 10/20/22
f 5/18/23 16/7/23 18/15/23
f 18/15/12 17/14/12 9/22/12
f 7/10/24 15/5/24 16/7/24
f 3/23/25 14/2/25 15/5/25
f 13/3/26 14/2/26 3/23/26
usemtl Joints
f 35/28/27 76/29/27 27/30/27
f 74/31/28 26/32/28 75/33/28
f 73/34/29 24/35/29 19/36/29
f 72/37/30 21/38/30 22/39/30
f 75/33/31 27/30/31 76/29/31
f 74/31/32 24/35/32 25/40/32
f 73/34/33 22/39/33 23/41/33
f 71/42/34 20/43/34 21/38/34
f 22/39/35 28/44/35 29/45/35
f 26/32/36 34/46/36 27/30/36
f 25/40/37 31/47/37 32/48/37
f 23/41/38 29/45/38 30/49/38
f 21/38/39 20/50/39 28/44/39
f 35/51/40 27/30/40 34/46/40
f 25/40/41 33/52/41 26/32/41
f 23/41/42 31/47/42 24/35/42
f 34/46/43 41/53/43 42/54/43
f 31/47/44 40/55/44 32/48/44
f 29/45/45 38/56/45 30/49/45
f 28/44/46 20/57/46 36/58/46
f 35/59/47 34/46/47 42/54/47
f 33/52/48 40/55/48 41/53/48
f 31/47/49 38/56/49 39/60/49
f 28/44/50 37/61/50 29/45/50
f 36/58/51 20/62/51 43/63/51
f 35/64/52 42/54/52 49/65/52
f 41/53/53 47/66/53 48/67/53
f 39/60/54 45/68/54 46/69/54
f 36/58/55 44/70/55 37/61/55
f 42/54/56 48/67/56 49/65/56
f 39/60/57 47/66/57 40/55/57
f 37/61/58 45/68/58 38/56/58
f 48/67/59 54/71/59 55/72/59
f 46/69/60 52/73/60 53/74/60
f 43/63/61 51/75/61 44/70/61
f 48/67/62 56/76/62 49/65/62
f 46/69/63 54/71/63 47/66/63
f 44/70/64 52/73/64 45/68/64
f 43/63/65 20/77/65 50/78/65
f 35/79/66 49/65/66 56/76/66
f 55/72/67 63/80/67 56/76/67
f 53/74/68 61/81/68 54/71/68
f 51/75/69 59/82/69 52/73/69
f 50/78/70 20/83/70 57/84/70
f 35/85/71 56/76/71 63/80/71
f 55/72/72 61/81/72 62/86/72
f 53/74/73 59/82/73 60/87/73
f 51/75/74 57/84/74 58/88/74
f 60/89/75 68/90/75 61/91/75
f 59/92/76 65/93/76 66/94/76
f 57/95/77 20/96/77 64/97/77
f 35/98/78 63/99/78 70/100/78
f 61/91/79 69/101/79 62/102/79
f 60/89/80 66/94/80 67/103/80
f 57/95/81 65/93/81 58/104/81
f 63/99/82 69/101/82 70/100/82
f 35/105/83 70/100/83 76/29/83
f 68/90/84 75/33/84 69/101/84
f 66/94/85 19/36/85 67/103/85
f 65/93/86 71/42/86 72/37/86
f 69/101/87 76/29/87 70/100/87
f 68/90/88 19/36/88 74/31/88
f 66/94/89 72/37/89 73/34/89
f 64/97/90 20/106/90 71/42/90
f 74/31/28 25/40/28 26/32/28
f 73/34/29 23/41/29 24/35/29
f 72/37/30 71/42/30 21/38/30
f 75/33/31 26/32/31 27/30/31
f 74/31/32 19/36/32 24/35/32
f 73/34/33 72/37/33 22/39/33
f 22/39/35 21/38/35 28/44/35
f 26/32/36 33/52/36 34/46/36
f 25/40/37 24/35/37 31/47/37
f 23/41/91 22/39/91 29/45/91
f 25/40/92 32/48/92 33/52/92
f 23/41/42 30/49/42 31/47/42
f 34/46/43 33/52/43 41/53/43
f 31/47/44 39/60/44 40/55/44
f 29/45/93 37/61/93 38/56/93
f 33/52/94 32/48/94 40/55/94
f 31/47/49 30/49/49 38/56/49
f 28/44/50 36/58/50 37/61/50
f 41/53/53 40/55/53 47/66/53
f 39/60/54 38/56/54 45/68/54
f 36/58/55 43/63/55 44/70/55
f 42/54/56 41/53/56 48/67/56
f 39/60/57 46/69/57 47/66/57
f 37/61/58 44/70/58 45/68/58
f 48/67/59 47/66/59 54/71/59
f 46/69/60 45/68/60 52/73/60
f 43/63/61 50/78/61 51/75/61
f 48/67/62 55/72/62 56/76/62
f 46/69/63 53/74/63 54/71/63
f 44/70/64 51/75/64 52/73/64
f 55/72/67 62/86/67 63/80/67
f 53/74/68 60/87/68 61/81/68
f 51/75/69 58/88/69 59/82/69
f 55/72/72 54/71/72 61/81/72
f 53/74/73 52/73/73 59/82/73
f 51/75/74 50/78/74 57/84/74
f 60/89/75 67/103/75 68/90/75
f 59/92/76 58/104/76 65/93/76
f 61/91/79 68/90/79 69/101/79
f 60/89/80 59/92/80 66/94/80
f 57/95/81 64/97/81 65/93/81
f 63/99/82 62/102/82 69/101/82
f 68/90/84 74/31/84 75/33/84
f 66/94/85 73/34/85 19/36/85
f 65/93/86 64/97/86 71/42/86
f 69/101/87 75/33/87 76/29/87
f 68/90/88 67/103/88 19/36/88
f 66/94/89 65/93/89 72/37/89
