# Blender v2.80 (sub 55) OBJ File: 'mannquin.blend'
# www.blender.org
mtllib left_upper_leg.mtl
o Left_Upper_Leg.001_Cube.022
v -0.000016 0.000369 -0.093773
v -0.000016 0.094106 -0.000036
v 0.025349 0.086971 -0.025401
v 0.046853 0.066651 -0.046904
v 0.061221 0.036240 -0.061273
v 0.066267 0.000369 -0.066318
v 0.061221 -0.035503 -0.061273
v 0.046853 -0.065914 -0.046904
v 0.025349 -0.086234 -0.025401
v 0.035856 0.086971 -0.000036
v 0.066267 0.066651 -0.000036
v 0.086587 0.036240 -0.000036
v 0.093722 0.000369 -0.000036
v 0.086587 -0.035503 -0.000036
v 0.066267 -0.065914 -0.000036
v 0.035856 -0.086234 -0.000036
v -0.000016 -0.093369 -0.000036
v 0.025349 0.086971 0.025330
v 0.046853 0.066651 0.046833
v 0.061221 0.036240 0.061201
v 0.066267 0.000369 0.066247
v 0.061221 -0.035503 0.061201
v 0.046853 -0.065914 0.046833
v 0.025349 -0.086234 0.025330
v -0.000016 0.086971 0.035836
v -0.000016 0.066651 0.066247
v -0.000016 0.036240 0.086567
v -0.000016 0.000369 0.093702
v -0.000016 -0.035503 0.086567
v -0.000016 -0.065914 0.066247
v -0.000016 -0.086234 0.035836
v -0.025381 0.086971 0.025330
v -0.046885 0.066651 0.046833
v -0.061253 0.036240 0.061201
v -0.066298 0.000369 0.066247
v -0.061253 -0.035503 0.061201
v -0.046885 -0.065914 0.046833
v -0.025381 -0.086234 0.025330
v -0.035888 0.086971 -0.000036
v -0.066298 0.066651 -0.000036
v -0.086618 0.036240 -0.000036
v -0.093753 0.000369 -0.000036
v -0.086618 -0.035503 -0.000036
v -0.066298 -0.065914 -0.000036
v -0.035888 -0.086234 -0.000036
v -0.025381 0.086971 -0.025401
v -0.046885 0.066651 -0.046904
v -0.061253 0.036240 -0.061273
v -0.066298 0.000369 -0.066318
v -0.061253 -0.035503 -0.061273
v -0.046885 -0.065914 -0.046904
v -0.025381 -0.086234 -0.025401
v -0.000016 0.086971 -0.035907
v -0.000016 0.066651 -0.066318
v -0.000016 0.036240 -0.086638
v -0.000016 -0.035503 -0.086638
v -0.000016 -0.065914 -0.066318
v -0.000016 -0.086234 -0.035907
v -0.098438 -0.935424 0.058056
v -0.080995 -0.057357 0.054104
v -0.098438 -0.941077 -0.048052
v -0.080995 -0.057357 -0.057934
v 0.085173 -0.960860 0.059971
v 0.077697 -0.060183 0.055884
v 0.085173 -0.966513 -0.049732
v 0.077697 -0.060183 -0.059949
v -0.107575 -0.702086 0.080457
v -0.104252 -0.132426 0.083092
v -0.104252 -0.148442 -0.084288
v -0.107575 -0.705854 -0.073087
v 0.107599 -0.160689 -0.087195
v 0.105107 -0.736001 -0.075616
v 0.107599 -0.144673 0.085855
v 0.105107 -0.732232 0.083130
v -0.006633 -0.953795 -0.077800
v -0.001649 -0.058770 -0.093609
v -0.006633 -0.948142 0.091953
v -0.001649 -0.058770 0.085629
v -0.001234 -0.717159 0.127789
v 0.001673 -0.138550 0.132005
v -0.001234 -0.720927 -0.117851
v 0.001673 -0.154565 -0.135769
v -0.115052 -0.938251 0.005002
v -0.094606 -0.057357 -0.001915
v 0.100177 -0.963687 0.005119
v 0.091415 -0.060183 -0.002033
v 0.123545 -0.734116 0.003757
v 0.126466 -0.152681 -0.000670
v -0.125762 -0.703970 0.003685
v -0.121868 -0.140434 -0.000598
v -0.001649 -0.058770 -0.003990
v -0.006633 -0.950969 0.007077
vt 0.541667 0.125000
vt 0.625000 0.250000
vt 0.541667 0.250000
vt 0.541667 0.375000
vt 0.625000 0.500000
vt 0.541667 0.500000
vt 0.541667 0.625000
vt 0.625000 0.750000
vt 0.541667 0.750000
vt 0.625000 0.875000
vt 0.541667 1.000000
vt 0.541667 0.875000
vt 0.250000 0.625000
vt 0.375000 0.750000
vt 0.250000 0.750000
vt 0.750000 0.625000
vt 0.875000 0.750000
vt 0.750000 0.750000
vt 0.458333 0.875000
vt 0.375000 1.000000
vt 0.375000 0.875000
vt 0.458333 1.000000
vt 0.458333 0.625000
vt 0.375000 0.625000
vt 0.458333 0.750000
vt 0.375000 0.375000
vt 0.458333 0.500000
vt 0.375000 0.500000
vt 0.458333 0.375000
vt 0.458333 0.125000
vt 0.375000 0.250000
vt 0.375000 0.125000
vt 0.458333 0.250000
vt 0.625000 0.625000
vt 0.125000 0.750000
vt 0.125000 0.625000
vt 0.625000 0.375000
vt 0.125000 0.500000
vt 0.458333 0.000000
vt 0.375000 0.000000
vt 0.875000 0.500000
vt 0.750000 0.500000
vt 0.250000 0.500000
vt 0.625000 0.000000
vt 0.541667 0.000000
vt 0.625000 0.125000
vt 0.625000 1.000000
vt 0.875000 0.625000
vt 0.687500 0.000000
vt 0.750000 0.125000
vt 0.625000 0.125000
vt 0.750000 0.375000
vt 0.625000 0.250000
vt 0.750000 0.250000
vt 0.750000 0.625000
vt 0.625000 0.500000
vt 0.750000 0.500000
vt 0.750000 0.750000
vt 0.625000 0.875000
vt 0.625000 0.750000
vt 0.625000 0.375000
vt 0.625000 0.625000
vt 0.750000 0.875000
vt 0.687500 1.000000
vt 0.500000 0.875000
vt 0.500000 0.750000
vt 0.500000 0.125000
vt 0.500000 0.500000
vt 0.500000 0.375000
vt 0.500000 0.625000
vt 0.562500 1.000000
vt 0.562500 0.000000
vt 0.500000 0.250000
vt 0.375000 0.250000
vt 0.375000 0.125000
vt 0.375000 0.375000
vt 0.375000 0.625000
vt 0.437500 1.000000
vt 0.375000 0.875000
vt 0.437500 0.000000
vt 0.375000 0.500000
vt 0.375000 0.750000
vt 0.312500 1.000000
vt 0.250000 0.875000
vt 0.312500 0.000000
vt 0.250000 0.125000
vt 0.250000 0.375000
vt 0.250000 0.250000
vt 0.250000 0.625000
vt 0.250000 0.500000
vt 0.250000 0.750000
vt 0.125000 0.375000
vt 0.125000 0.250000
vt 0.125000 0.625000
vt 0.125000 0.500000
vt 0.125000 0.875000
vt 0.125000 0.750000
vt 0.125000 0.125000
vt 0.187500 1.000000
vt 0.187500 0.000000
vt 0.000000 0.125000
vt 0.000000 0.375000
vt 0.000000 0.625000
vt 0.062500 1.000000
vt 0.000000 0.875000
vt 0.062500 0.000000
vt 0.000000 0.250000
vt 0.000000 0.500000
vt 0.000000 0.750000
vt 1.000000 0.500000
vt 0.875000 0.375000
vt 1.000000 0.375000
vt 1.000000 0.625000
vt 0.875000 0.750000
vt 0.875000 0.625000
vt 1.000000 0.875000
vt 0.937500 1.000000
vt 0.875000 0.875000
vt 0.937500 0.000000
vt 1.000000 0.125000
vt 0.875000 0.125000
vt 0.875000 0.250000
vt 1.000000 0.250000
vt 0.875000 0.500000
vt 1.000000 0.750000
vt 0.812500 0.000000
vt 0.812500 1.000000
vn -0.9268 0.3014 -0.2239
vn 0.4071 0.3498 -0.8437
vn 0.9104 0.3801 0.1633
vn -0.3502 0.4598 0.8160
vn -0.1259 -0.9915 0.0330
vn 0.0178 0.9998 0.0000
vn -0.3596 -0.1348 0.9233
vn -0.4072 -0.0046 0.9133
vn 0.9588 -0.0960 0.2672
vn 0.9740 -0.0032 0.2263
vn 0.2733 -0.1306 -0.9530
vn 0.3666 -0.0203 -0.9302
vn -0.9540 -0.0453 -0.2963
vn -0.9731 0.0012 -0.2305
vn -0.3911 -0.0271 -0.9200
vn -0.3237 -0.1531 -0.9337
vn 0.3865 -0.0059 0.9223
vn 0.3113 -0.1226 0.9424
vn 0.0151 0.9999 0.0036
vn -0.1177 -0.9890 0.0895
vn 0.3819 0.4261 0.8201
vn -0.3910 0.3593 -0.8473
vn -0.1168 -0.9930 0.0163
vn 0.0153 0.9999 -0.0036
vn -0.9731 0.0085 0.2303
vn -0.9528 -0.0419 0.3006
vn 0.9741 -0.0088 -0.2261
vn 0.9600 -0.1119 -0.2568
vn -0.1470 -0.9886 0.0329
vn 0.9139 0.3343 -0.2302
vn -0.9235 0.3483 0.1610
vn -0.9268 0.3006 -0.2252
vn 0.3662 0.3855 -0.8470
vn 0.9120 0.3488 0.2160
vn -0.3273 0.4269 0.8430
vn -0.1179 -0.9928 0.0189
vn 0.0151 0.9999 -0.0037
vn -0.4166 -0.1030 0.9032
vn -0.4193 -0.0018 0.9078
vn 0.9679 -0.1074 0.2274
vn 0.9769 -0.0051 0.2135
vn 0.3434 -0.1669 -0.9242
vn 0.4152 -0.0309 -0.9092
vn -0.9715 -0.0621 -0.2286
vn -0.9784 0.0052 -0.2064
vn -0.4378 -0.0155 -0.8989
vn -0.3990 -0.1124 -0.9100
vn 0.3990 -0.0087 0.9169
vn 0.3645 -0.1511 0.9189
vn -0.1491 -0.9883 0.0329
vn 0.3142 0.4869 0.8150
vn -0.3797 0.3453 -0.8582
vn -0.1266 -0.9914 0.0330
vn -0.9786 0.0048 0.2055
vn -0.9710 -0.0602 0.2315
vn 0.9771 -0.0065 -0.2125
vn 0.9697 -0.1000 -0.2229
vn 0.0153 0.9999 0.0037
vn -0.1163 -0.9898 0.0828
vn 0.9140 0.3432 -0.2165
vn -0.9248 0.3070 0.2247
vn 0.0805 -0.9776 -0.1945
vn 0.3256 -0.5253 -0.7862
vn 0.3764 0.1807 -0.9087
vn 0.2243 0.8103 -0.5414
vn 0.2243 -0.8103 -0.5414
vn 0.3764 -0.1807 -0.9087
vn 0.3256 0.5253 -0.7862
vn 0.0805 0.9776 -0.1945
vn 0.5414 0.8103 -0.2243
vn 0.5414 -0.8103 -0.2243
vn 0.9087 -0.1807 -0.3764
vn 0.7861 0.5253 -0.3256
vn 0.1945 0.9776 -0.0806
vn 0.1945 -0.9776 -0.0805
vn 0.7862 -0.5253 -0.3256
vn 0.9087 0.1807 -0.3764
vn 0.5414 -0.8103 0.2243
vn 0.9087 -0.1807 0.3764
vn 0.7861 0.5253 0.3256
vn 0.1945 0.9776 0.0806
vn 0.1945 -0.9776 0.0805
vn 0.7861 -0.5253 0.3256
vn 0.9087 0.1807 0.3764
vn 0.5414 0.8103 0.2243
vn 0.0805 0.9776 0.1945
vn 0.0805 -0.9776 0.1945
vn 0.3256 -0.5253 0.7862
vn 0.3764 0.1807 0.9087
vn 0.2243 0.8103 0.5414
vn 0.2243 -0.8103 0.5414
vn 0.3764 -0.1807 0.9087
vn 0.3256 0.5253 0.7862
vn -0.3256 -0.5253 0.7862
vn -0.3764 0.1807 0.9087
vn -0.2243 0.8103 0.5414
vn -0.2243 -0.8103 0.5414
vn -0.3764 -0.1807 0.9087
vn -0.3256 0.5253 0.7862
vn -0.0806 0.9776 0.1945
vn -0.0805 -0.9776 0.1945
vn -0.5414 -0.8103 0.2243
vn -0.9087 -0.1807 0.3764
vn -0.7862 0.5253 0.3256
vn -0.1945 0.9776 0.0806
vn -0.1945 -0.9776 0.0806
vn -0.7862 -0.5253 0.3256
vn -0.9087 0.1807 0.3764
vn -0.5414 0.8103 0.2243
vn -0.9087 -0.1807 -0.3764
vn -0.7862 0.5253 -0.3256
vn -0.1945 0.9776 -0.0806
vn -0.1945 -0.9776 -0.0806
vn -0.7862 -0.5253 -0.3256
vn -0.9087 0.1807 -0.3764
vn -0.5414 0.8103 -0.2243
vn -0.5414 -0.8103 -0.2243
vn -0.0805 -0.9776 -0.1945
vn -0.3256 -0.5253 -0.7862
vn -0.3764 0.1807 -0.9087
vn -0.2243 0.8103 -0.5414
vn -0.2243 -0.8103 -0.5414
vn -0.3764 -0.1807 -0.9087
vn -0.3256 0.5253 -0.7862
vn -0.0806 0.9776 -0.1945
vn 0.7862 0.5253 -0.3256
vn 0.7861 -0.5253 -0.3256
vn 0.7862 0.5253 0.3256
vn -0.3256 -0.5253 -0.7861
usemtl Base
s off
f 90/1/1 62/2/1 69/3/1
f 82/4/2 66/5/2 71/6/2
f 88/7/3 64/8/3 73/9/3
f 78/10/4 68/11/4 80/12/4
f 92/13/5 63/14/5 77/15/5
f 91/16/6 60/17/6 78/18/6
f 79/19/7 59/20/7 77/21/7
f 80/12/8 67/22/8 79/19/8
f 87/23/9 63/14/9 85/24/9
f 88/7/10 74/25/10 87/23/10
f 75/26/11 72/27/11 65/28/11
f 81/29/12 71/6/12 72/27/12
f 89/30/13 61/31/13 83/32/13
f 89/30/14 69/3/14 70/33/14
f 70/33/15 82/4/15 81/29/15
f 61/31/16 81/29/16 75/26/16
f 73/9/17 79/19/17 74/25/17
f 74/25/18 77/21/18 63/14/18
f 91/16/19 64/8/19 86/34/19
f 92/13/20 59/35/20 83/36/20
f 64/8/21 80/12/21 73/9/21
f 69/3/22 76/37/22 82/4/22
f 61/38/23 92/13/23 83/36/23
f 66/5/24 91/16/24 86/34/24
f 67/39/25 90/1/25 89/30/25
f 59/40/26 89/30/26 83/32/26
f 71/6/27 87/23/27 72/27/27
f 72/27/28 85/24/28 65/28/28
f 62/41/6 91/16/6 76/42/6
f 65/28/29 92/13/29 75/43/29
f 66/5/30 88/7/30 71/6/30
f 60/44/31 90/1/31 68/45/31
f 90/1/32 84/46/32 62/2/32
f 82/4/33 76/37/33 66/5/33
f 88/7/34 86/34/34 64/8/34
f 78/10/35 60/47/35 68/11/35
f 92/13/36 85/24/36 63/14/36
f 91/16/37 84/48/37 60/17/37
f 79/19/38 67/22/38 59/20/38
f 80/12/39 68/11/39 67/22/39
f 87/23/40 74/25/40 63/14/40
f 88/7/41 73/9/41 74/25/41
f 75/26/42 81/29/42 72/27/42
f 81/29/43 82/4/43 71/6/43
f 89/30/44 70/33/44 61/31/44
f 89/30/45 90/1/45 69/3/45
f 70/33/46 69/3/46 82/4/46
f 61/31/47 70/33/47 81/29/47
f 73/9/48 80/12/48 79/19/48
f 74/25/49 79/19/49 77/21/49
f 91/16/6 78/18/6 64/8/6
f 92/13/50 77/15/50 59/35/50
f 64/8/51 78/10/51 80/12/51
f 69/3/52 62/2/52 76/37/52
f 61/38/53 75/43/53 92/13/53
f 66/5/6 76/42/6 91/16/6
f 67/39/54 68/45/54 90/1/54
f 59/40/55 67/39/55 89/30/55
f 71/6/56 88/7/56 87/23/56
f 72/27/57 87/23/57 85/24/57
f 62/41/58 84/48/58 91/16/58
f 65/28/59 85/24/59 92/13/59
f 66/5/60 86/34/60 88/7/60
f 60/44/61 84/46/61 90/1/61
usemtl Joints
f 17/49/62 58/50/62 9/51/62
f 56/52/63 8/53/63 57/54/63
f 55/55/64 6/56/64 1/57/64
f 54/58/65 3/59/65 4/60/65
f 57/54/66 9/51/66 58/50/66
f 56/52/67 6/56/67 7/61/67
f 55/55/68 4/60/68 5/62/68
f 53/63/69 2/64/69 3/59/69
f 4/60/70 10/65/70 11/66/70
f 8/53/71 16/67/71 9/51/71
f 7/61/72 13/68/72 14/69/72
f 5/62/73 11/66/73 12/70/73
f 3/59/74 2/71/74 10/65/74
f 17/72/75 9/51/75 16/67/75
f 7/61/76 15/73/76 8/53/76
f 5/62/77 13/68/77 6/56/77
f 16/67/78 23/74/78 24/75/78
f 13/68/79 22/76/79 14/69/79
f 11/66/80 20/77/80 12/70/80
f 10/65/81 2/78/81 18/79/81
f 17/80/82 16/67/82 24/75/82
f 15/73/83 22/76/83 23/74/83
f 13/68/84 20/77/84 21/81/84
f 10/65/85 19/82/85 11/66/85
f 18/79/86 2/83/86 25/84/86
f 17/85/87 24/75/87 31/86/87
f 23/74/88 29/87/88 30/88/88
f 21/81/89 27/89/89 28/90/89
f 18/79/90 26/91/90 19/82/90
f 24/75/91 30/88/91 31/86/91
f 21/81/92 29/87/92 22/76/92
f 19/82/93 27/89/93 20/77/93
f 30/88/94 36/92/94 37/93/94
f 28/90/95 34/94/95 35/95/95
f 26/91/96 32/96/96 33/97/96
f 30/88/97 38/98/97 31/86/97
f 28/90/98 36/92/98 29/87/98
f 26/91/99 34/94/99 27/89/99
f 25/84/100 2/99/100 32/96/100
f 17/100/101 31/86/101 38/98/101
f 37/93/102 45/101/102 38/98/102
f 35/95/103 43/102/103 36/92/103
f 33/97/104 41/103/104 34/94/104
f 32/96/105 2/104/105 39/105/105
f 17/106/106 38/98/106 45/101/106
f 37/93/107 43/102/107 44/107/107
f 35/95/108 41/103/108 42/108/108
f 33/97/109 39/105/109 40/109/109
f 42/110/110 50/111/110 43/112/110
f 41/113/111 47/114/111 48/115/111
f 39/116/112 2/117/112 46/118/112
f 17/119/113 45/120/113 52/121/113
f 43/112/114 51/122/114 44/123/114
f 42/110/115 48/115/115 49/124/115
f 39/116/116 47/114/116 40/125/116
f 45/120/117 51/122/117 52/121/117
f 17/126/118 52/121/118 58/50/118
f 50/111/119 57/54/119 51/122/119
f 48/115/120 1/57/120 49/124/120
f 46/118/121 54/58/121 47/114/121
f 51/122/122 58/50/122 52/121/122
f 50/111/123 1/57/123 56/52/123
f 48/115/124 54/58/124 55/55/124
f 46/118/125 2/127/125 53/63/125
f 56/52/63 7/61/63 8/53/63
f 55/55/64 5/62/64 6/56/64
f 54/58/65 53/63/65 3/59/65
f 57/54/66 8/53/66 9/51/66
f 56/52/67 1/57/67 6/56/67
f 55/55/68 54/58/68 4/60/68
f 4/60/70 3/59/70 10/65/70
f 8/53/71 15/73/71 16/67/71
f 7/61/72 6/56/72 13/68/72
f 5/62/126 4/60/126 11/66/126
f 7/61/127 14/69/127 15/73/127
f 5/62/77 12/70/77 13/68/77
f 16/67/78 15/73/78 23/74/78
f 13/68/79 21/81/79 22/76/79
f 11/66/128 19/82/128 20/77/128
f 15/73/83 14/69/83 22/76/83
f 13/68/84 12/70/84 20/77/84
f 10/65/85 18/79/85 19/82/85
f 23/74/88 22/76/88 29/87/88
f 21/81/89 20/77/89 27/89/89
f 18/79/90 25/84/90 26/91/90
f 24/75/91 23/74/91 30/88/91
f 21/81/92 28/90/92 29/87/92
f 19/82/93 26/91/93 27/89/93
f 30/88/94 29/87/94 36/92/94
f 28/90/95 27/89/95 34/94/95
f 26/91/96 25/84/96 32/96/96
f 30/88/97 37/93/97 38/98/97
f 28/90/98 35/95/98 36/92/98
f 26/91/99 33/97/99 34/94/99
f 37/93/102 44/107/102 45/101/102
f 35/95/103 42/108/103 43/102/103
f 33/97/104 40/109/104 41/103/104
f 37/93/107 36/92/107 43/102/107
f 35/95/108 34/94/108 41/103/108
f 33/97/109 32/96/109 39/105/109
f 42/110/110 49/124/110 50/111/110
f 41/113/111 40/125/111 47/114/111
f 43/112/114 50/111/114 51/122/114
f 42/110/115 41/113/115 48/115/115
f 39/116/116 46/118/116 47/114/116
f 45/120/117 44/123/117 51/122/117
f 50/111/129 56/52/129 57/54/129
f 48/115/120 55/55/120 1/57/120
f 46/118/121 53/63/121 54/58/121
f 51/122/122 57/54/122 58/50/122
f 50/111/123 49/124/123 1/57/123
f 48/115/124 47/114/124 54/58/124
