# Blender v2.80 (sub 55) OBJ File: 'mannquin.blend'
# www.blender.org
mtllib pelvis.mtl
o Pelvis.001_Cube.009
v 0.311028 0.133410 0.135767
v 0.269967 0.315964 0.149628
v 0.311028 0.137033 -0.160202
v 0.269967 0.308718 -0.155398
v 0.304990 -0.012202 0.103708
v 0.192675 0.471345 0.110561
v 0.304990 -0.012202 -0.133738
v 0.192675 0.465911 -0.102860
v 0.304990 -0.030510 -0.005258
v 0.192675 0.468628 -0.005258
v 0.311028 0.135221 -0.005258
v 0.269967 0.312341 -0.005258
v -0.311028 0.133410 0.135767
v -0.269967 0.315964 0.149628
v -0.311028 0.137033 -0.160202
v -0.269967 0.308718 -0.155398
v -0.304990 -0.012202 0.103708
v -0.192675 0.471345 0.110561
v -0.304990 -0.012202 -0.133738
v -0.192675 0.465911 -0.102860
v 0.000000 -0.033940 -0.169456
v 0.000000 0.486781 -0.153201
v 0.000000 -0.055679 0.142283
v 0.000000 0.491272 0.147717
v 0.000000 0.315964 0.200251
v 0.000000 0.120729 0.193005
v 0.000000 0.301472 -0.212932
v 0.000000 0.106237 -0.218367
v -0.304990 -0.030510 -0.005258
v -0.192675 0.468628 -0.005258
v 0.000000 0.486743 -0.017015
v 0.000000 -0.071982 -0.006768
v -0.311028 0.135221 -0.005258
v -0.269967 0.312341 -0.005258
vt 0.541667 0.625000
vt 0.458333 0.750000
vt 0.458333 0.625000
vt 0.541667 0.375000
vt 0.625000 0.500000
vt 0.541667 0.500000
vt 0.625000 0.750000
vt 0.541667 0.750000
vt 0.375000 0.750000
vt 0.375000 0.625000
vt 0.250000 0.625000
vt 0.250000 0.750000
vt 0.458333 0.875000
vt 0.750000 0.625000
vt 0.625000 0.625000
vt 0.458333 0.375000
vt 0.375000 0.500000
vt 0.375000 0.375000
vt 0.541667 0.875000
vt 0.375000 0.875000
vt 0.458333 0.500000
vt 0.250000 0.500000
vt 0.458333 0.750000
vt 0.541667 0.625000
vt 0.458333 0.625000
vt 0.625000 0.500000
vt 0.625000 0.375000
vt 0.625000 0.750000
vt 0.625000 0.625000
vt 0.375000 0.750000
vt 0.375000 0.625000
vt 0.541667 0.750000
vt 0.375000 0.500000
vt 0.541667 0.500000
vt 0.750000 0.500000
vt 0.458333 0.500000
vt 0.750000 0.750000
vt 0.625000 0.875000
vn 0.9742 0.2258 0.0029
vn 0.1818 0.3910 -0.9023
vn 0.8963 0.4433 -0.0104
vn 0.9993 -0.0364 0.0061
vn 0.1536 -0.9823 0.1074
vn 0.1822 -0.0336 0.9827
vn 0.0950 0.9952 -0.0233
vn 0.1329 -0.3265 -0.9358
vn 0.1746 0.3209 0.9309
vn 0.1589 -0.2728 0.9489
vn 0.1767 0.0697 -0.9818
vn 0.0952 0.9951 -0.0277
vn 0.0956 -0.9693 -0.2266
vn 0.9993 -0.0364 -0.0052
vn 0.8959 0.4441 -0.0107
vn 0.9726 0.2325 0.0027
vn -0.9742 0.2258 0.0029
vn -0.2713 0.2953 -0.9161
vn -0.8963 0.4433 -0.0104
vn -0.9993 -0.0364 0.0061
vn -0.1321 -0.9775 0.1642
vn -0.1822 -0.0336 0.9827
vn -0.0950 0.9952 -0.0233
vn -0.1329 -0.3265 -0.9358
vn -0.1746 0.3209 0.9309
vn -0.1852 -0.2186 0.9581
vn -0.2077 0.0272 -0.9778
vn -0.1076 0.9942 0.0003
vn -0.0956 -0.9693 -0.2266
vn -0.9992 -0.0405 -0.0005
vn -0.8959 0.4441 -0.0107
vn -0.9726 0.2325 0.0027
vn 0.9755 0.2198 -0.0051
vn 0.2713 0.2953 -0.9161
vn 0.9991 -0.0413 -0.0005
vn 0.1321 -0.9775 0.1642
vn 0.1842 -0.0365 0.9822
vn 0.0976 0.9948 -0.0274
vn 0.1979 -0.1789 -0.9637
vn 0.2097 0.2807 0.9366
vn 0.1852 -0.2186 0.9581
vn 0.2077 0.0272 -0.9778
vn 0.1076 0.9942 0.0003
vn 0.1341 -0.9811 -0.1398
vn 0.9992 -0.0405 -0.0005
vn 0.8963 0.4433 -0.0123
vn 0.9742 0.2258 -0.0054
vn -0.9755 0.2198 -0.0051
vn -0.1818 0.3910 -0.9023
vn -0.9991 -0.0413 -0.0005
vn -0.1536 -0.9823 0.1074
vn -0.1842 -0.0365 0.9822
vn -0.0976 0.9948 -0.0274
vn -0.1979 -0.1789 -0.9637
vn -0.2097 0.2807 0.9366
vn -0.1589 -0.2728 0.9489
vn -0.1767 0.0697 -0.9818
vn -0.0952 0.9951 -0.0277
vn -0.1341 -0.9811 -0.1398
vn -0.9993 -0.0364 -0.0052
vn -0.8963 0.4433 -0.0123
vn -0.9742 0.2258 -0.0054
usemtl Base
s off
f 12/1/1 1/2/1 11/3/1
f 27/4/2 8/5/2 4/6/2
f 12/1/3 6/7/3 2/8/3
f 11/3/4 5/9/4 9/10/4
f 32/11/5 5/9/5 23/12/5
f 2/8/6 26/13/6 1/2/6
f 31/14/7 6/7/7 10/15/7
f 28/16/8 7/17/8 21/18/8
f 6/7/9 25/19/9 2/8/9
f 5/9/10 26/13/10 23/20/10
f 28/16/11 4/6/11 3/21/11
f 8/5/12 31/14/12 10/15/12
f 7/17/13 32/11/13 21/22/13
f 7/17/14 11/3/14 9/10/14
f 8/5/15 12/1/15 4/6/15
f 4/6/16 11/3/16 3/21/16
f 13/23/17 34/24/17 33/25/17
f 27/4/18 20/26/18 22/27/18
f 34/24/19 18/28/19 30/29/19
f 17/30/20 33/25/20 29/31/20
f 32/11/21 17/30/21 29/31/21
f 26/13/22 14/32/22 13/23/22
f 18/28/23 31/14/23 30/29/23
f 19/33/24 28/16/24 21/18/24
f 25/19/25 18/28/25 14/32/25
f 17/30/26 26/13/26 13/23/26
f 28/16/27 16/34/27 27/4/27
f 20/26/28 31/14/28 22/35/28
f 32/11/29 19/33/29 21/22/29
f 19/33/30 33/25/30 15/36/30
f 34/24/31 20/26/31 16/34/31
f 33/25/32 16/34/32 15/36/32
f 12/1/33 2/8/33 1/2/33
f 27/4/34 22/27/34 8/5/34
f 12/1/3 10/15/3 6/7/3
f 11/3/35 1/2/35 5/9/35
f 32/11/36 9/10/36 5/9/36
f 2/8/37 25/19/37 26/13/37
f 31/14/38 24/37/38 6/7/38
f 28/16/39 3/21/39 7/17/39
f 6/7/40 24/38/40 25/19/40
f 5/9/41 1/2/41 26/13/41
f 28/16/42 27/4/42 4/6/42
f 8/5/43 22/35/43 31/14/43
f 7/17/44 9/10/44 32/11/44
f 7/17/45 3/21/45 11/3/45
f 8/5/46 10/15/46 12/1/46
f 4/6/47 12/1/47 11/3/47
f 13/23/48 14/32/48 34/24/48
f 27/4/49 16/34/49 20/26/49
f 34/24/19 14/32/19 18/28/19
f 17/30/50 13/23/50 33/25/50
f 32/11/51 23/12/51 17/30/51
f 26/13/52 25/19/52 14/32/52
f 18/28/53 24/37/53 31/14/53
f 19/33/54 15/36/54 28/16/54
f 25/19/55 24/38/55 18/28/55
f 17/30/56 23/20/56 26/13/56
f 28/16/57 15/36/57 16/34/57
f 20/26/58 30/29/58 31/14/58
f 32/11/59 29/31/59 19/33/59
f 19/33/60 29/31/60 33/25/60
f 34/24/61 30/29/61 20/26/61
f 33/25/62 34/24/62 16/34/62
