# Blender v2.80 (sub 55) OBJ File: 'mannquin.blend'
# www.blender.org
mtllib right_upper_leg.mtl
o Right_Upper_Leg.001_Cube.018
v 0.000210 -0.000020 -0.093869
v 0.000210 0.093718 -0.000131
v -0.025155 0.086582 -0.025497
v -0.046659 0.066263 -0.047000
v -0.061027 0.035852 -0.061369
v -0.066072 -0.000020 -0.066414
v -0.061027 -0.035892 -0.061369
v -0.046659 -0.066302 -0.047000
v -0.025155 -0.086622 -0.025497
v -0.035662 0.086582 -0.000132
v -0.066072 0.066263 -0.000132
v -0.086392 0.035852 -0.000132
v -0.093527 -0.000020 -0.000132
v -0.086392 -0.035892 -0.000132
v -0.066072 -0.066302 -0.000132
v -0.035662 -0.086622 -0.000132
v 0.000210 -0.093758 -0.000132
v -0.025155 0.086582 0.025234
v -0.046659 0.066263 0.046737
v -0.061027 0.035852 0.061106
v -0.066072 -0.000020 0.066151
v -0.061027 -0.035892 0.061106
v -0.046659 -0.066302 0.046737
v -0.025155 -0.086622 0.025234
v 0.000210 0.086582 0.035740
v 0.000210 0.066263 0.066151
v 0.000210 0.035852 0.086471
v 0.000210 -0.000020 0.093606
v 0.000210 -0.035892 0.086471
v 0.000210 -0.066302 0.066151
v 0.000210 -0.086622 0.035740
v 0.025575 0.086582 0.025234
v 0.047079 0.066263 0.046737
v 0.061447 0.035852 0.061106
v 0.066493 -0.000020 0.066151
v 0.061447 -0.035892 0.061106
v 0.047079 -0.066302 0.046737
v 0.025575 -0.086622 0.025234
v 0.036082 0.086582 -0.000132
v 0.066493 0.066263 -0.000132
v 0.086812 0.035852 -0.000131
v 0.093948 -0.000020 -0.000132
v 0.086812 -0.035892 -0.000131
v 0.066493 -0.066302 -0.000132
v 0.036082 -0.086622 -0.000132
v 0.025575 0.086582 -0.025497
v 0.047079 0.066263 -0.047000
v 0.061447 0.035852 -0.061369
v 0.066493 -0.000020 -0.066414
v 0.061447 -0.035892 -0.061369
v 0.047079 -0.066302 -0.047000
v 0.025575 -0.086622 -0.025497
v 0.000210 0.086582 -0.036003
v 0.000210 0.066263 -0.066414
v 0.000210 0.035852 -0.086734
v 0.000210 -0.035892 -0.086734
v 0.000210 -0.066302 -0.066414
v 0.000210 -0.086622 -0.036003
v 0.098632 -0.935813 0.057961
v 0.081190 -0.057745 0.054008
v 0.098632 -0.941465 -0.048148
v 0.081190 -0.057745 -0.058030
v -0.084978 -0.961249 0.059875
v -0.077503 -0.060571 0.055788
v -0.084978 -0.966901 -0.049828
v -0.077503 -0.060571 -0.060045
v 0.107769 -0.702474 0.080361
v 0.104447 -0.132815 0.082996
v 0.104447 -0.148830 -0.084383
v 0.107769 -0.706242 -0.073183
v -0.107404 -0.161077 -0.087291
v -0.104913 -0.736389 -0.075712
v -0.107404 -0.145062 0.085759
v -0.104913 -0.732621 0.083034
v 0.006827 -0.954183 -0.077895
v 0.001844 -0.059158 -0.093705
v 0.006827 -0.948531 0.091857
v 0.001844 -0.059158 0.085533
v 0.001428 -0.717547 0.127693
v -0.001479 -0.138938 0.131909
v 0.001428 -0.721316 -0.117947
v -0.001479 -0.154953 -0.135865
v 0.115246 -0.938639 0.004906
v 0.094800 -0.057745 -0.002011
v -0.099983 -0.964075 0.005023
v -0.091220 -0.060571 -0.002129
v -0.123350 -0.734505 0.003661
v -0.126271 -0.153069 -0.000766
v 0.125957 -0.704358 0.003589
v 0.122062 -0.140822 -0.000694
v 0.001844 -0.059158 -0.004086
v 0.006827 -0.951357 0.006981
vt 0.541667 0.125000
vt 0.625000 0.250000
vt 0.625000 0.125000
vt 0.541667 0.375000
vt 0.625000 0.500000
vt 0.625000 0.375000
vt 0.541667 0.625000
vt 0.625000 0.750000
vt 0.625000 0.625000
vt 0.541667 1.000000
vt 0.625000 0.875000
vt 0.541667 0.875000
vt 0.250000 0.625000
vt 0.375000 0.750000
vt 0.375000 0.625000
vt 0.750000 0.625000
vt 0.875000 0.750000
vt 0.875000 0.625000
vt 0.375000 1.000000
vt 0.458333 0.875000
vt 0.375000 0.875000
vt 0.458333 1.000000
vt 0.458333 0.625000
vt 0.458333 0.750000
vt 0.375000 0.375000
vt 0.458333 0.500000
vt 0.458333 0.375000
vt 0.541667 0.500000
vt 0.375000 0.250000
vt 0.458333 0.125000
vt 0.375000 0.125000
vt 0.541667 0.250000
vt 0.458333 0.250000
vt 0.541667 0.750000
vt 0.125000 0.750000
vt 0.125000 0.625000
vt 0.125000 0.500000
vt 0.250000 0.500000
vt 0.750000 0.500000
vt 0.458333 0.000000
vt 0.541667 0.000000
vt 0.375000 0.000000
vt 0.375000 0.500000
vt 0.875000 0.500000
vt 0.625000 0.000000
vt 0.625000 1.000000
vt 0.250000 0.750000
vt 0.750000 0.750000
vt 0.687500 0.000000
vt 0.625000 0.125000
vt 0.750000 0.125000
vt 0.625000 0.250000
vt 0.750000 0.375000
vt 0.750000 0.250000
vt 0.625000 0.500000
vt 0.750000 0.625000
vt 0.750000 0.500000
vt 0.750000 0.750000
vt 0.625000 0.875000
vt 0.750000 0.875000
vt 0.625000 0.750000
vt 0.687500 1.000000
vt 0.500000 0.875000
vt 0.500000 0.125000
vt 0.625000 0.375000
vt 0.500000 0.500000
vt 0.625000 0.625000
vt 0.500000 0.750000
vt 0.562500 1.000000
vt 0.562500 0.000000
vt 0.500000 0.250000
vt 0.375000 0.250000
vt 0.375000 0.375000
vt 0.500000 0.375000
vt 0.375000 0.625000
vt 0.500000 0.625000
vt 0.375000 0.875000
vt 0.437500 1.000000
vt 0.437500 0.000000
vt 0.375000 0.125000
vt 0.375000 0.750000
vt 0.250000 0.875000
vt 0.312500 1.000000
vt 0.312500 0.000000
vt 0.250000 0.125000
vt 0.250000 0.375000
vt 0.375000 0.500000
vt 0.250000 0.625000
vt 0.250000 0.750000
vt 0.250000 0.250000
vt 0.125000 0.375000
vt 0.250000 0.500000
vt 0.125000 0.625000
vt 0.125000 0.875000
vt 0.125000 0.125000
vt 0.187500 1.000000
vt 0.187500 0.000000
vt 0.000000 0.125000
vt 0.125000 0.250000
vt 0.000000 0.375000
vt 0.125000 0.500000
vt 0.000000 0.625000
vt 0.125000 0.750000
vt 0.000000 0.875000
vt 0.062500 1.000000
vt 0.062500 0.000000
vt 0.875000 0.375000
vt 1.000000 0.500000
vt 1.000000 0.375000
vt 1.000000 0.625000
vt 0.875000 0.750000
vt 1.000000 0.750000
vt 1.000000 0.875000
vt 0.875000 0.875000
vt 0.937500 1.000000
vt 0.937500 0.000000
vt 0.875000 0.125000
vt 1.000000 0.125000
vt 0.875000 0.250000
vt 1.000000 0.250000
vt 0.875000 0.625000
vt 0.812500 0.000000
vt 0.875000 0.500000
vt 0.812500 1.000000
vt 0.000000 0.250000
vt 0.000000 0.500000
vt 0.000000 0.750000
vn 0.9268 0.3006 -0.2252
vn -0.3662 0.3855 -0.8470
vn -0.9120 0.3488 0.2160
vn 0.3502 0.4598 0.8160
vn 0.1179 -0.9928 0.0189
vn -0.0151 0.9999 -0.0037
vn 0.3596 -0.1348 0.9233
vn 0.4072 -0.0046 0.9133
vn -0.9588 -0.0960 0.2672
vn -0.9740 -0.0032 0.2263
vn -0.3434 -0.1669 -0.9242
vn -0.4152 -0.0309 -0.9092
vn 0.9540 -0.0453 -0.2963
vn 0.9784 0.0052 -0.2064
vn 0.4378 -0.0155 -0.8989
vn 0.3990 -0.1124 -0.9100
vn -0.3865 -0.0059 0.9223
vn -0.3113 -0.1226 0.9424
vn -0.0151 0.9999 0.0036
vn 0.1177 -0.9890 0.0896
vn -0.3819 0.4261 0.8201
vn 0.3797 0.3453 -0.8582
vn 0.1266 -0.9914 0.0330
vn -0.0178 0.9998 0.0000
vn 0.9786 0.0048 0.2055
vn 0.9710 -0.0602 0.2315
vn -0.9741 -0.0088 -0.2261
vn -0.9600 -0.1119 -0.2568
vn 0.1470 -0.9886 0.0329
vn -0.9139 0.3343 -0.2302
vn 0.9235 0.3483 0.1610
vn 0.9268 0.3014 -0.2239
vn -0.4071 0.3498 -0.8437
vn -0.9104 0.3801 0.1633
vn 0.3273 0.4269 0.8430
vn 0.1259 -0.9915 0.0330
vn 0.4166 -0.1030 0.9032
vn 0.4193 -0.0018 0.9078
vn -0.9679 -0.1074 0.2274
vn -0.9769 -0.0051 0.2135
vn -0.2733 -0.1306 -0.9530
vn -0.3666 -0.0203 -0.9302
vn 0.9715 -0.0621 -0.2286
vn 0.9731 0.0012 -0.2305
vn 0.3911 -0.0271 -0.9200
vn 0.3237 -0.1531 -0.9337
vn -0.3990 -0.0087 0.9169
vn -0.3645 -0.1511 0.9189
vn 0.1491 -0.9883 0.0329
vn -0.3142 0.4869 0.8150
vn 0.3910 0.3593 -0.8473
vn 0.1168 -0.9930 0.0163
vn -0.0153 0.9999 -0.0036
vn 0.9731 0.0085 0.2303
vn 0.9528 -0.0419 0.3006
vn -0.9771 -0.0065 -0.2125
vn -0.9697 -0.1000 -0.2229
vn -0.0153 0.9999 0.0037
vn 0.1163 -0.9898 0.0828
vn -0.9140 0.3432 -0.2165
vn 0.9248 0.3070 0.2247
vn -0.0805 -0.9776 -0.1945
vn -0.3256 -0.5253 -0.7862
vn -0.3764 0.1807 -0.9087
vn -0.2243 0.8103 -0.5414
vn -0.2243 -0.8103 -0.5414
vn -0.3764 -0.1807 -0.9087
vn -0.3256 0.5253 -0.7862
vn -0.0805 0.9776 -0.1945
vn -0.5414 0.8103 -0.2243
vn -0.5414 -0.8103 -0.2243
vn -0.9087 -0.1807 -0.3764
vn -0.7862 0.5253 -0.3256
vn -0.1945 0.9776 -0.0806
vn -0.1945 -0.9776 -0.0805
vn -0.7862 -0.5253 -0.3256
vn -0.9087 0.1807 -0.3764
vn -0.5414 -0.8103 0.2243
vn -0.9087 -0.1807 0.3764
vn -0.7861 0.5253 0.3256
vn -0.1945 0.9776 0.0806
vn -0.1945 -0.9776 0.0805
vn -0.7861 -0.5253 0.3256
vn -0.9087 0.1807 0.3764
vn -0.5414 0.8103 0.2243
vn -0.0805 0.9776 0.1945
vn -0.0805 -0.9776 0.1945
vn -0.3256 -0.5253 0.7862
vn -0.3764 0.1807 0.9087
vn -0.2243 0.8103 0.5414
vn -0.2243 -0.8103 0.5414
vn -0.3764 -0.1807 0.9087
vn -0.3256 0.5253 0.7862
vn 0.3256 -0.5253 0.7862
vn 0.3764 0.1807 0.9087
vn 0.2243 0.8103 0.5414
vn 0.2243 -0.8103 0.5414
vn 0.3764 -0.1807 0.9087
vn 0.3256 0.5253 0.7862
vn 0.0806 0.9776 0.1945
vn 0.0805 -0.9776 0.1945
vn 0.5414 -0.8103 0.2243
vn 0.9087 -0.1807 0.3764
vn 0.7862 0.5253 0.3256
vn 0.1945 0.9776 0.0806
vn 0.1945 -0.9776 0.0806
vn 0.7862 -0.5253 0.3256
vn 0.9087 0.1807 0.3764
vn 0.5414 0.8103 0.2243
vn 0.9087 -0.1807 -0.3764
vn 0.7862 0.5253 -0.3256
vn 0.1945 0.9776 -0.0806
vn 0.1945 -0.9776 -0.0806
vn 0.7862 -0.5253 -0.3256
vn 0.9087 0.1807 -0.3764
vn 0.5414 0.8103 -0.2243
vn 0.5414 -0.8103 -0.2243
vn 0.0805 -0.9776 -0.1945
vn 0.3256 -0.5253 -0.7862
vn 0.3764 0.1807 -0.9087
vn 0.2243 0.8103 -0.5414
vn 0.2243 -0.8103 -0.5414
vn 0.3764 -0.1807 -0.9087
vn 0.3256 0.5253 -0.7862
vn 0.0806 0.9776 -0.1945
vn -0.7861 0.5253 -0.3256
vn -0.7861 -0.5253 -0.3256
vn -0.7862 0.5253 0.3256
vn 0.3256 -0.5253 -0.7861
usemtl Base
s off
f 90/1/1 62/2/1 84/3/1
f 82/4/2 66/5/2 76/6/2
f 88/7/3 64/8/3 86/9/3
f 68/10/4 78/11/4 80/12/4
f 92/13/5 63/14/5 85/15/5
f 91/16/6 60/17/6 84/18/6
f 59/19/7 79/20/7 77/21/7
f 67/22/8 80/12/8 79/20/8
f 63/14/9 87/23/9 85/15/9
f 74/24/10 88/7/10 87/23/10
f 75/25/11 72/26/11 81/27/11
f 81/27/12 71/28/12 82/4/12
f 61/29/13 89/30/13 83/31/13
f 89/30/14 69/32/14 90/1/14
f 70/33/15 82/4/15 69/32/15
f 61/29/16 81/27/16 70/33/16
f 79/20/17 73/34/17 74/24/17
f 77/21/18 74/24/18 63/14/18
f 64/8/19 91/16/19 86/9/19
f 59/35/20 92/13/20 83/36/20
f 80/12/21 64/8/21 73/34/21
f 69/32/22 76/6/22 62/2/22
f 61/37/23 92/13/23 75/38/23
f 66/5/24 91/16/24 76/39/24
f 67/40/25 90/1/25 68/41/25
f 59/42/26 89/30/26 67/40/26
f 87/23/27 71/28/27 72/26/27
f 85/15/28 72/26/28 65/43/28
f 91/16/24 62/44/24 76/39/24
f 92/13/29 65/43/29 75/38/29
f 88/7/30 66/5/30 71/28/30
f 90/1/31 60/45/31 68/41/31
f 90/1/32 69/32/32 62/2/32
f 82/4/33 71/28/33 66/5/33
f 88/7/34 73/34/34 64/8/34
f 68/10/35 60/46/35 78/11/35
f 92/13/36 77/47/36 63/14/36
f 91/16/24 78/48/24 60/17/24
f 59/19/37 67/22/37 79/20/37
f 67/22/38 68/10/38 80/12/38
f 63/14/39 74/24/39 87/23/39
f 74/24/40 73/34/40 88/7/40
f 75/25/41 65/43/41 72/26/41
f 81/27/42 72/26/42 71/28/42
f 61/29/43 70/33/43 89/30/43
f 89/30/44 70/33/44 69/32/44
f 70/33/45 81/27/45 82/4/45
f 61/29/46 75/25/46 81/27/46
f 79/20/47 80/12/47 73/34/47
f 77/21/48 79/20/48 74/24/48
f 64/8/24 78/48/24 91/16/24
f 59/35/49 77/47/49 92/13/49
f 80/12/50 78/11/50 64/8/50
f 69/32/51 82/4/51 76/6/51
f 61/37/52 83/36/52 92/13/52
f 66/5/53 86/9/53 91/16/53
f 67/40/54 89/30/54 90/1/54
f 59/42/55 83/31/55 89/30/55
f 87/23/56 88/7/56 71/28/56
f 85/15/57 87/23/57 72/26/57
f 91/16/58 84/18/58 62/44/58
f 92/13/59 85/15/59 65/43/59
f 88/7/60 86/9/60 66/5/60
f 90/1/61 84/3/61 60/45/61
usemtl Joints
f 17/49/62 9/50/62 58/51/62
f 8/52/63 56/53/63 57/54/63
f 6/55/64 55/56/64 1/57/64
f 54/58/65 3/59/65 53/60/65
f 9/50/66 57/54/66 58/51/66
f 56/53/67 6/55/67 1/57/67
f 55/56/68 4/61/68 54/58/68
f 53/60/69 3/59/69 2/62/69
f 4/61/70 10/63/70 3/59/70
f 16/64/71 8/52/71 9/50/71
f 7/65/72 13/66/72 6/55/72
f 5/67/73 11/68/73 4/61/73
f 3/59/74 10/63/74 2/69/74
f 17/70/75 16/64/75 9/50/75
f 15/71/76 7/65/76 8/52/76
f 13/66/77 5/67/77 6/55/77
f 16/64/78 23/72/78 15/71/78
f 22/73/79 13/66/79 14/74/79
f 20/75/80 11/68/80 12/76/80
f 10/63/81 18/77/81 2/78/81
f 17/79/82 24/80/82 16/64/82
f 15/71/83 22/73/83 14/74/83
f 13/66/84 20/75/84 12/76/84
f 19/81/85 10/63/85 11/68/85
f 18/77/86 25/82/86 2/83/86
f 17/84/87 31/85/87 24/80/87
f 23/72/88 29/86/88 22/73/88
f 21/87/89 27/88/89 20/75/89
f 26/89/90 18/77/90 19/81/90
f 24/80/91 30/90/91 23/72/91
f 29/86/92 21/87/92 22/73/92
f 27/88/93 19/81/93 20/75/93
f 30/90/94 36/91/94 29/86/94
f 28/92/95 34/93/95 27/88/95
f 26/89/96 32/94/96 25/82/96
f 38/95/97 30/90/97 31/85/97
f 36/91/98 28/92/98 29/86/98
f 34/93/99 26/89/99 27/88/99
f 25/82/100 32/94/100 2/96/100
f 17/97/101 38/95/101 31/85/101
f 45/98/102 37/99/102 38/95/102
f 43/100/103 35/101/103 36/91/103
f 41/102/104 33/103/104 34/93/104
f 32/94/105 39/104/105 2/105/105
f 17/106/106 45/98/106 38/95/106
f 37/99/107 43/100/107 36/91/107
f 35/101/108 41/102/108 34/93/108
f 33/103/109 39/104/109 32/94/109
f 50/107/110 42/108/110 43/109/110
f 41/110/111 47/111/111 40/112/111
f 39/113/112 46/114/112 2/115/112
f 17/116/113 52/117/113 45/118/113
f 51/119/114 43/109/114 44/120/114
f 42/108/115 48/121/115 41/110/115
f 47/111/116 39/113/116 40/112/116
f 45/118/117 51/119/117 44/120/117
f 17/122/118 58/51/118 52/117/118
f 57/54/119 50/107/119 51/119/119
f 1/57/120 48/121/120 49/123/120
f 54/58/121 46/114/121 47/111/121
f 58/51/122 51/119/122 52/117/122
f 50/107/123 1/57/123 49/123/123
f 48/121/124 54/58/124 47/111/124
f 46/114/125 53/60/125 2/124/125
f 8/52/63 7/65/63 56/53/63
f 6/55/64 5/67/64 55/56/64
f 54/58/65 4/61/65 3/59/65
f 9/50/66 8/52/66 57/54/66
f 56/53/67 7/65/67 6/55/67
f 55/56/68 5/67/68 4/61/68
f 4/61/70 11/68/70 10/63/70
f 16/64/71 15/71/71 8/52/71
f 7/65/72 14/74/72 13/66/72
f 5/67/126 12/76/126 11/68/126
f 15/71/127 14/74/127 7/65/127
f 13/66/77 12/76/77 5/67/77
f 16/64/78 24/80/78 23/72/78
f 22/73/79 21/87/79 13/66/79
f 20/75/128 19/81/128 11/68/128
f 15/71/83 23/72/83 22/73/83
f 13/66/84 21/87/84 20/75/84
f 19/81/85 18/77/85 10/63/85
f 23/72/88 30/90/88 29/86/88
f 21/87/89 28/92/89 27/88/89
f 26/89/90 25/82/90 18/77/90
f 24/80/91 31/85/91 30/90/91
f 29/86/92 28/92/92 21/87/92
f 27/88/93 26/89/93 19/81/93
f 30/90/94 37/99/94 36/91/94
f 28/92/95 35/101/95 34/93/95
f 26/89/96 33/103/96 32/94/96
f 38/95/97 37/99/97 30/90/97
f 36/91/98 35/101/98 28/92/98
f 34/93/99 33/103/99 26/89/99
f 45/98/102 44/125/102 37/99/102
f 43/100/103 42/126/103 35/101/103
f 41/102/104 40/127/104 33/103/104
f 37/99/107 44/125/107 43/100/107
f 35/101/108 42/126/108 41/102/108
f 33/103/109 40/127/109 39/104/109
f 50/107/110 49/123/110 42/108/110
f 41/110/111 48/121/111 47/111/111
f 51/119/114 50/107/114 43/109/114
f 42/108/115 49/123/115 48/121/115
f 47/111/116 46/114/116 39/113/116
f 45/118/117 52/117/117 51/119/117
f 57/54/129 56/53/129 50/107/129
f 1/57/120 55/56/120 48/121/120
f 54/58/121 53/60/121 46/114/121
f 58/51/122 57/54/122 51/119/122
f 50/107/123 56/53/123 1/57/123
f 48/121/124 55/56/124 54/58/124
