# Blender v2.80 (sub 55) OBJ File: 'mannquin.blend'
# www.blender.org
mtllib right_hand.mtl
o Right_Hand.001_Cube.017
v 0.000268 0.000122 -0.064155
v 0.000268 0.064594 0.000317
v -0.017178 0.059686 -0.017129
v -0.031968 0.045710 -0.031919
v -0.041851 0.024794 -0.041802
v -0.045321 0.000122 -0.045272
v -0.041851 -0.024551 -0.041802
v -0.031968 -0.045467 -0.031919
v -0.017178 -0.059443 -0.017129
v -0.024405 0.059686 0.000317
v -0.045321 0.045710 0.000317
v -0.059297 0.024794 0.000317
v -0.064204 0.000122 0.000317
v -0.059297 -0.024551 0.000317
v -0.045321 -0.045467 0.000317
v -0.024405 -0.059443 0.000317
v 0.000268 -0.064350 0.000317
v -0.017178 0.059686 0.017763
v -0.031968 0.045710 0.032553
v -0.041851 0.024794 0.042435
v -0.045321 0.000122 0.045905
v -0.041851 -0.024551 0.042435
v -0.031968 -0.045467 0.032553
v -0.017178 -0.059443 0.017763
v 0.000268 0.059686 0.024989
v 0.000268 0.045710 0.045905
v 0.000268 0.024794 0.059881
v 0.000268 0.000122 0.064789
v 0.000268 -0.024551 0.059881
v 0.000268 -0.045467 0.045905
v 0.000268 -0.059443 0.024989
v 0.017713 0.059686 0.017763
v 0.032504 0.045710 0.032553
v 0.042386 0.024794 0.042435
v 0.045856 0.000122 0.045905
v 0.042386 -0.024551 0.042435
v 0.032504 -0.045467 0.032553
v 0.017713 -0.059443 0.017763
v 0.024940 0.059686 0.000317
v 0.045856 0.045710 0.000317
v 0.059832 0.024794 0.000317
v 0.064740 0.000122 0.000317
v 0.059832 -0.024551 0.000317
v 0.045856 -0.045467 0.000317
v 0.024940 -0.059443 0.000317
v 0.017713 0.059686 -0.017129
v 0.032504 0.045710 -0.031919
v 0.042386 0.024794 -0.041802
v 0.045856 0.000122 -0.045272
v 0.042386 -0.024551 -0.041802
v 0.032504 -0.045467 -0.031919
v 0.017713 -0.059443 -0.017129
v 0.000268 0.059686 -0.024356
v 0.000268 0.045710 -0.045272
v 0.000268 0.024794 -0.059248
v 0.000268 -0.024551 -0.059248
v 0.000268 -0.045467 -0.045272
v 0.000268 -0.059443 -0.024356
v -0.053269 -0.040639 0.079610
v -0.046454 0.039561 0.079610
v -0.053269 -0.040639 -0.068518
v -0.046454 0.039561 -0.068518
v -0.403334 -0.052906 0.067429
v -0.393313 0.010557 0.067429
v -0.403334 -0.052906 -0.056338
v -0.393313 0.010557 -0.056338
v -0.214672 -0.063342 -0.085159
v -0.214672 0.053405 -0.085159
v -0.214672 -0.063342 0.096251
v -0.214672 0.053405 0.096251
vt 0.375000 0.250000
vt 0.625000 0.000000
vt 0.375000 0.000000
vt 0.375000 0.375000
vt 0.625000 0.500000
vt 0.625000 0.375000
vt 0.375000 0.500000
vt 0.625000 0.750000
vt 0.375000 1.000000
vt 0.625000 0.875000
vt 0.375000 0.875000
vt 0.250000 0.750000
vt 0.250000 0.500000
vt 0.750000 0.750000
vt 0.875000 0.500000
vt 0.750000 0.500000
vt 0.125000 0.750000
vt 0.125000 0.500000
vt 0.375000 0.750000
vt 0.625000 0.250000
vt 0.625000 1.000000
vt 0.875000 0.750000
vt 0.687500 0.000000
vt 0.625000 0.125000
vt 0.750000 0.125000
vt 0.625000 0.250000
vt 0.750000 0.375000
vt 0.750000 0.250000
vt 0.625000 0.500000
vt 0.750000 0.625000
vt 0.750000 0.500000
vt 0.750000 0.750000
vt 0.625000 0.875000
vt 0.750000 0.875000
vt 0.625000 0.750000
vt 0.687500 1.000000
vt 0.500000 0.875000
vt 0.500000 0.125000
vt 0.625000 0.375000
vt 0.500000 0.500000
vt 0.625000 0.625000
vt 0.500000 0.750000
vt 0.562500 1.000000
vt 0.562500 0.000000
vt 0.500000 0.250000
vt 0.375000 0.250000
vt 0.375000 0.375000
vt 0.500000 0.375000
vt 0.375000 0.625000
vt 0.500000 0.625000
vt 0.375000 0.875000
vt 0.437500 1.000000
vt 0.437500 0.000000
vt 0.375000 0.125000
vt 0.375000 0.750000
vt 0.250000 0.875000
vt 0.312500 1.000000
vt 0.312500 0.000000
vt 0.250000 0.125000
vt 0.250000 0.375000
vt 0.375000 0.500000
vt 0.250000 0.625000
vt 0.250000 0.750000
vt 0.250000 0.250000
vt 0.125000 0.375000
vt 0.250000 0.500000
vt 0.125000 0.625000
vt 0.125000 0.875000
vt 0.125000 0.125000
vt 0.187500 1.000000
vt 0.187500 0.000000
vt 0.000000 0.125000
vt 0.125000 0.250000
vt 0.000000 0.375000
vt 0.125000 0.500000
vt 0.000000 0.625000
vt 0.125000 0.750000
vt 0.000000 0.875000
vt 0.062500 1.000000
vt 0.062500 0.000000
vt 0.875000 0.375000
vt 1.000000 0.500000
vt 1.000000 0.375000
vt 1.000000 0.625000
vt 0.875000 0.750000
vt 1.000000 0.750000
vt 1.000000 0.875000
vt 0.875000 0.875000
vt 0.937500 1.000000
vt 0.937500 0.000000
vt 0.875000 0.125000
vt 1.000000 0.125000
vt 0.875000 0.250000
vt 1.000000 0.250000
vt 0.875000 0.625000
vt 0.812500 0.000000
vt 0.875000 0.500000
vt 0.812500 1.000000
vt 0.000000 0.250000
vt 0.000000 0.500000
vt 0.000000 0.750000
vn 0.9964 -0.0847 0.0000
vn -0.1593 -0.0000 -0.9872
vn -0.9878 0.1560 0.0000
vn 0.1026 0.0000 0.9947
vn -0.0552 -0.9985 0.0000
vn 0.0820 0.9966 0.0000
vn -0.2332 0.9724 0.0000
vn 0.1393 -0.9903 0.0000
vn -0.1497 0.0236 0.9884
vn 0.0978 -0.0083 -0.9952
vn -0.1497 0.0236 -0.9884
vn 0.0978 -0.0083 0.9952
vn -0.1593 0.0000 0.9872
vn 0.1026 -0.0000 -0.9947
vn -0.0805 -0.9776 -0.1945
vn -0.3256 -0.5253 -0.7861
vn -0.3764 0.1807 -0.9087
vn -0.2243 0.8103 -0.5414
vn -0.2243 -0.8103 -0.5414
vn -0.3764 -0.1807 -0.9087
vn -0.3256 0.5253 -0.7862
vn -0.0805 0.9776 -0.1945
vn -0.5414 0.8103 -0.2243
vn -0.5414 -0.8103 -0.2243
vn -0.9087 -0.1807 -0.3764
vn -0.7862 0.5253 -0.3256
vn -0.1945 0.9776 -0.0805
vn -0.1945 -0.9776 -0.0805
vn -0.7861 -0.5253 -0.3256
vn -0.9087 0.1807 -0.3764
vn -0.5414 -0.8103 0.2243
vn -0.9087 -0.1807 0.3764
vn -0.7861 0.5253 0.3256
vn -0.1945 0.9776 0.0805
vn -0.1945 -0.9776 0.0805
vn -0.7861 -0.5253 0.3256
vn -0.9087 0.1807 0.3764
vn -0.5414 0.8103 0.2243
vn -0.0805 0.9776 0.1945
vn -0.0805 -0.9776 0.1945
vn -0.3256 -0.5253 0.7861
vn -0.3764 0.1807 0.9087
vn -0.2243 0.8103 0.5414
vn -0.2243 -0.8103 0.5414
vn -0.3764 -0.1807 0.9087
vn -0.3256 0.5253 0.7862
vn 0.3256 -0.5253 0.7861
vn 0.3764 0.1807 0.9087
vn 0.2243 0.8103 0.5414
vn 0.2243 -0.8103 0.5414
vn 0.3764 -0.1807 0.9087
vn 0.3256 0.5253 0.7862
vn 0.0805 0.9776 0.1945
vn 0.0805 -0.9776 0.1945
vn 0.5414 -0.8103 0.2243
vn 0.9087 -0.1807 0.3764
vn 0.7862 0.5253 0.3256
vn 0.1945 0.9776 0.0805
vn 0.1945 -0.9776 0.0806
vn 0.7862 -0.5253 0.3256
vn 0.9087 0.1807 0.3764
vn 0.5414 0.8103 0.2243
vn 0.9087 -0.1807 -0.3764
vn 0.7862 0.5253 -0.3256
vn 0.1945 0.9776 -0.0805
vn 0.1945 -0.9776 -0.0806
vn 0.7862 -0.5253 -0.3256
vn 0.9087 0.1807 -0.3764
vn 0.5414 0.8103 -0.2243
vn 0.5414 -0.8103 -0.2243
vn 0.0805 -0.9776 -0.1945
vn 0.3256 -0.5253 -0.7862
vn 0.3764 0.1807 -0.9087
vn 0.2243 0.8103 -0.5414
vn 0.2243 -0.8103 -0.5414
vn 0.3764 -0.1807 -0.9087
vn 0.3256 0.5253 -0.7862
vn 0.0805 0.9776 -0.1945
vn -0.7861 0.5253 -0.3256
vn -0.7862 0.5253 0.3256
vn 0.3256 -0.5253 0.7862
vn 0.3256 -0.5253 -0.7861
usemtl Base
s off
f 61/1/1 60/2/1 59/3/1
f 67/4/2 66/5/2 68/6/2
f 65/7/3 64/8/3 66/5/3
f 59/9/4 70/10/4 69/11/4
f 69/12/5 65/7/5 67/13/5
f 70/14/6 62/15/6 68/16/6
f 64/8/7 68/16/7 66/5/7
f 59/17/8 67/13/8 61/18/8
f 69/11/9 64/8/9 63/19/9
f 61/1/10 68/6/10 62/20/10
f 61/1/1 62/20/1 60/2/1
f 67/4/11 65/7/11 66/5/11
f 65/7/3 63/19/3 64/8/3
f 59/9/12 60/21/12 70/10/12
f 69/12/5 63/19/5 65/7/5
f 70/14/6 60/22/6 62/15/6
f 64/8/7 70/14/7 68/16/7
f 59/17/8 69/12/8 67/13/8
f 69/11/13 70/10/13 64/8/13
f 61/1/14 67/4/14 68/6/14
usemtl Joints
f 17/23/15 9/24/15 58/25/15
f 8/26/16 56/27/16 57/28/16
f 6/29/17 55/30/17 1/31/17
f 54/32/18 3/33/18 53/34/18
f 9/24/19 57/28/19 58/25/19
f 56/27/20 6/29/20 1/31/20
f 55/30/21 4/35/21 54/32/21
f 53/34/22 3/33/22 2/36/22
f 4/35/23 10/37/23 3/33/23
f 16/38/24 8/26/24 9/24/24
f 7/39/25 13/40/25 6/29/25
f 5/41/26 11/42/26 4/35/26
f 3/33/27 10/37/27 2/43/27
f 17/44/28 16/38/28 9/24/28
f 15/45/29 7/39/29 8/26/29
f 13/40/30 5/41/30 6/29/30
f 16/38/31 23/46/31 15/45/31
f 22/47/32 13/40/32 14/48/32
f 20/49/33 11/42/33 12/50/33
f 10/37/34 18/51/34 2/52/34
f 17/53/35 24/54/35 16/38/35
f 15/45/36 22/47/36 14/48/36
f 13/40/37 20/49/37 12/50/37
f 19/55/38 10/37/38 11/42/38
f 18/51/39 25/56/39 2/57/39
f 17/58/40 31/59/40 24/54/40
f 23/46/41 29/60/41 22/47/41
f 21/61/42 27/62/42 20/49/42
f 26/63/43 18/51/43 19/55/43
f 24/54/44 30/64/44 23/46/44
f 29/60/45 21/61/45 22/47/45
f 27/62/46 19/55/46 20/49/46
f 30/64/47 36/65/47 29/60/47
f 28/66/48 34/67/48 27/62/48
f 26/63/49 32/68/49 25/56/49
f 38/69/50 30/64/50 31/59/50
f 36/65/51 28/66/51 29/60/51
f 34/67/52 26/63/52 27/62/52
f 25/56/53 32/68/53 2/70/53
f 17/71/54 38/69/54 31/59/54
f 45/72/55 37/73/55 38/69/55
f 43/74/56 35/75/56 36/65/56
f 41/76/57 33/77/57 34/67/57
f 32/68/58 39/78/58 2/79/58
f 17/80/59 45/72/59 38/69/59
f 37/73/60 43/74/60 36/65/60
f 35/75/61 41/76/61 34/67/61
f 33/77/62 39/78/62 32/68/62
f 50/81/63 42/82/63 43/83/63
f 41/84/64 47/85/64 40/86/64
f 39/87/65 46/88/65 2/89/65
f 17/90/66 52/91/66 45/92/66
f 51/93/67 43/83/67 44/94/67
f 42/82/68 48/95/68 41/84/68
f 47/85/69 39/87/69 40/86/69
f 45/92/70 51/93/70 44/94/70
f 17/96/71 58/25/71 52/91/71
f 57/28/72 50/81/72 51/93/72
f 1/31/73 48/95/73 49/97/73
f 47/85/74 53/34/74 46/88/74
f 52/91/75 57/28/75 51/93/75
f 50/81/76 1/31/76 49/97/76
f 48/95/77 54/32/77 47/85/77
f 46/88/78 53/34/78 2/98/78
f 8/26/16 7/39/16 56/27/16
f 6/29/17 5/41/17 55/30/17
f 54/32/18 4/35/18 3/33/18
f 9/24/19 8/26/19 57/28/19
f 56/27/20 7/39/20 6/29/20
f 55/30/21 5/41/21 4/35/21
f 4/35/23 11/42/23 10/37/23
f 16/38/24 15/45/24 8/26/24
f 7/39/25 14/48/25 13/40/25
f 5/41/79 12/50/79 11/42/79
f 15/45/29 14/48/29 7/39/29
f 13/40/30 12/50/30 5/41/30
f 16/38/31 24/54/31 23/46/31
f 22/47/32 21/61/32 13/40/32
f 20/49/80 19/55/80 11/42/80
f 15/45/36 23/46/36 22/47/36
f 13/40/37 21/61/37 20/49/37
f 19/55/38 18/51/38 10/37/38
f 23/46/41 30/64/41 29/60/41
f 21/61/42 28/66/42 27/62/42
f 26/63/43 25/56/43 18/51/43
f 24/54/44 31/59/44 30/64/44
f 29/60/45 28/66/45 21/61/45
f 27/62/46 26/63/46 19/55/46
f 30/64/81 37/73/81 36/65/81
f 28/66/48 35/75/48 34/67/48
f 26/63/49 33/77/49 32/68/49
f 38/69/50 37/73/50 30/64/50
f 36/65/51 35/75/51 28/66/51
f 34/67/52 33/77/52 26/63/52
f 45/72/55 44/99/55 37/73/55
f 43/74/56 42/100/56 35/75/56
f 41/76/57 40/101/57 33/77/57
f 37/73/60 44/99/60 43/74/60
f 35/75/61 42/100/61 41/76/61
f 33/77/62 40/101/62 39/78/62
f 50/81/63 49/97/63 42/82/63
f 41/84/64 48/95/64 47/85/64
f 51/93/67 50/81/67 43/83/67
f 42/82/68 49/97/68 48/95/68
f 47/85/69 46/88/69 39/87/69
f 45/92/70 52/91/70 51/93/70
f 57/28/82 56/27/82 50/81/82
f 1/31/73 55/30/73 48/95/73
f 47/85/74 54/32/74 53/34/74
f 52/91/75 58/25/75 57/28/75
f 50/81/76 56/27/76 1/31/76
f 48/95/77 55/30/77 54/32/77
