# Blender v2.80 (sub 55) OBJ File: 'mannquin.blend'
# www.blender.org
mtllib right_upper_arm.mtl
o Right_Upper_Arm.001_Cube.016
v 0.000003 -0.000251 -0.087857
v 0.000003 0.087709 0.000102
v -0.023799 0.081013 -0.023699
v -0.043977 0.061946 -0.043877
v -0.057460 0.033410 -0.057360
v -0.062194 -0.000251 -0.062094
v -0.057460 -0.033911 -0.057360
v -0.043977 -0.062447 -0.043877
v -0.023799 -0.081514 -0.023699
v -0.033658 0.081013 0.000102
v -0.062194 0.061946 0.000102
v -0.081262 0.033410 0.000102
v -0.087957 -0.000251 0.000102
v -0.081262 -0.033911 0.000102
v -0.062194 -0.062447 0.000102
v -0.033658 -0.081514 0.000102
v 0.000003 -0.088210 0.000102
v -0.023799 0.081013 0.023904
v -0.043977 0.061946 0.044082
v -0.057460 0.033410 0.057565
v -0.062194 -0.000251 0.062299
v -0.057460 -0.033911 0.057565
v -0.043977 -0.062447 0.044082
v -0.023799 -0.081514 0.023904
v 0.000003 0.081013 0.033763
v 0.000003 0.061946 0.062299
v 0.000003 0.033410 0.081366
v 0.000003 -0.000251 0.088062
v 0.000003 -0.033911 0.081366
v 0.000003 -0.062447 0.062299
v 0.000003 -0.081514 0.033763
v 0.023804 0.081013 0.023904
v 0.043982 0.061946 0.044082
v 0.057464 0.033410 0.057565
v 0.062199 -0.000251 0.062299
v 0.057464 -0.033911 0.057565
v 0.043982 -0.062447 0.044082
v 0.023804 -0.081514 0.023904
v 0.033663 0.081013 0.000102
v 0.062199 0.061946 0.000102
v 0.081266 0.033410 0.000102
v 0.087962 -0.000251 0.000102
v 0.081266 -0.033911 0.000102
v 0.062199 -0.062447 0.000102
v 0.033663 -0.081514 0.000102
v 0.023804 0.081013 -0.023699
v 0.043982 0.061946 -0.043877
v 0.057464 0.033410 -0.057360
v 0.062199 -0.000251 -0.062094
v 0.057464 -0.033911 -0.057360
v 0.043982 -0.062447 -0.043877
v 0.023804 -0.081514 -0.023699
v 0.000003 0.081013 -0.033558
v 0.000003 0.061946 -0.062094
v 0.000003 0.033410 -0.081161
v 0.000003 -0.033911 -0.081161
v 0.000003 -0.062447 -0.062094
v 0.000003 -0.081514 -0.033558
v -0.070796 -0.056941 0.068997
v -0.055002 0.082986 0.068997
v -0.070796 -0.056941 -0.069099
v -0.055002 0.082986 -0.069099
v -0.550961 -0.059005 0.068997
v -0.578035 0.076796 0.068997
v -0.550961 -0.059005 -0.069099
v -0.578035 0.076796 -0.069099
v -0.283804 -0.087068 -0.069099
v -0.242064 0.092481 -0.069099
v -0.283804 -0.087068 0.068997
v -0.242064 0.092481 0.068997
v -0.062899 0.013022 0.088581
v -0.062899 0.013022 -0.088683
v -0.564498 0.008896 -0.088683
v -0.564498 0.008896 0.088581
v -0.262934 0.002706 0.088581
v -0.262934 0.002706 -0.088683
v -0.070796 -0.074721 -0.000051
v -0.055002 0.102995 -0.000051
v -0.550961 -0.077342 -0.000051
v -0.578035 0.095134 -0.000051
v -0.242064 0.115054 -0.000051
v -0.283804 -0.112985 -0.000051
v -0.564498 0.008896 -0.000051
v -0.062899 0.014137 -0.000051
vt 0.500000 0.125000
vt 0.625000 0.250000
vt 0.625000 0.125000
vt 0.500000 0.375000
vt 0.625000 0.500000
vt 0.625000 0.375000
vt 0.500000 0.625000
vt 0.625000 0.750000
vt 0.625000 0.625000
vt 0.500000 1.000000
vt 0.625000 0.875000
vt 0.500000 0.875000
vt 0.250000 0.750000
vt 0.375000 0.625000
vt 0.250000 0.625000
vt 0.750000 0.750000
vt 0.875000 0.625000
vt 0.750000 0.625000
vt 0.125000 0.625000
vt 0.500000 0.750000
vt 0.500000 0.250000
vt 0.375000 0.250000
vt 0.375000 0.750000
vt 0.375000 1.000000
vt 0.375000 0.875000
vt 0.375000 0.500000
vt 0.375000 0.375000
vt 0.375000 0.125000
vt 0.375000 0.000000
vt 0.500000 0.000000
vt 0.500000 0.500000
vt 0.250000 0.500000
vt 0.125000 0.500000
vt 0.750000 0.500000
vt 0.875000 0.500000
vt 0.625000 0.000000
vt 0.625000 1.000000
vt 0.875000 0.750000
vt 0.125000 0.750000
vt 0.687500 0.000000
vt 0.625000 0.125000
vt 0.750000 0.125000
vt 0.625000 0.250000
vt 0.750000 0.375000
vt 0.750000 0.250000
vt 0.625000 0.500000
vt 0.750000 0.625000
vt 0.750000 0.500000
vt 0.750000 0.750000
vt 0.625000 0.875000
vt 0.750000 0.875000
vt 0.625000 0.750000
vt 0.687500 1.000000
vt 0.500000 0.875000
vt 0.500000 0.125000
vt 0.625000 0.375000
vt 0.500000 0.500000
vt 0.625000 0.625000
vt 0.500000 0.750000
vt 0.562500 1.000000
vt 0.562500 0.000000
vt 0.500000 0.250000
vt 0.375000 0.250000
vt 0.375000 0.375000
vt 0.500000 0.375000
vt 0.375000 0.625000
vt 0.500000 0.625000
vt 0.375000 0.875000
vt 0.437500 1.000000
vt 0.437500 0.000000
vt 0.375000 0.125000
vt 0.375000 0.750000
vt 0.250000 0.875000
vt 0.312500 1.000000
vt 0.312500 0.000000
vt 0.250000 0.125000
vt 0.250000 0.375000
vt 0.375000 0.500000
vt 0.250000 0.625000
vt 0.250000 0.750000
vt 0.250000 0.250000
vt 0.125000 0.375000
vt 0.250000 0.500000
vt 0.125000 0.625000
vt 0.125000 0.750000
vt 0.125000 0.125000
vt 0.125000 0.875000
vt 0.187500 1.000000
vt 0.187500 0.000000
vt 0.000000 0.125000
vt 0.125000 0.250000
vt 0.000000 0.375000
vt 0.125000 0.500000
vt 0.000000 0.625000
vt 0.000000 0.875000
vt 0.062500 1.000000
vt 0.062500 0.000000
vt 0.875000 0.375000
vt 1.000000 0.500000
vt 1.000000 0.375000
vt 1.000000 0.625000
vt 0.875000 0.750000
vt 1.000000 0.750000
vt 1.000000 0.875000
vt 0.875000 0.875000
vt 0.937500 1.000000
vt 0.937500 0.000000
vt 0.875000 0.125000
vt 1.000000 0.125000
vt 0.875000 0.250000
vt 1.000000 0.250000
vt 0.875000 0.625000
vt 0.812500 0.000000
vt 0.875000 0.500000
vt 0.812500 1.000000
vt 0.000000 0.250000
vt 0.000000 0.500000
vt 0.000000 0.750000
vn 0.9957 -0.0885 0.0256
vn -0.0101 0.2154 -0.9765
vn -0.9871 -0.1549 -0.0411
vn -0.0111 0.2156 0.9764
vn -0.1239 -0.9290 0.3487
vn 0.0612 0.9487 0.3102
vn -0.0563 0.9490 0.3102
vn 0.1658 -0.9233 0.3465
vn 0.0057 0.2782 0.9605
vn 0.0136 0.2681 -0.9633
vn 0.0140 -0.2710 -0.9625
vn -0.0057 -0.2782 0.9605
vn 0.0311 -0.2199 0.9750
vn -0.9871 -0.1549 0.0411
vn -0.0219 -0.2082 -0.9778
vn 0.9958 -0.0885 -0.0228
vn 0.9937 -0.1118 -0.0014
vn -0.9807 -0.1955 0.0000
vn 0.1357 -0.9595 -0.2471
vn -0.0451 0.9655 -0.2564
vn 0.0487 0.9593 -0.2780
vn -0.1010 -0.9616 -0.2554
vn 0.9936 -0.1125 -0.0014
vn 0.9936 -0.1125 0.0014
vn 0.0057 0.2782 -0.9605
vn 0.0136 0.2681 0.9633
vn -0.1010 -0.9616 0.2554
vn 0.0487 0.9593 0.2780
vn -0.0451 0.9655 0.2564
vn 0.1357 -0.9595 0.2471
vn -0.0101 0.2154 0.9765
vn -0.0111 0.2156 -0.9764
vn 0.0311 -0.2199 -0.9750
vn -0.0219 -0.2082 0.9778
vn 0.0140 -0.2710 0.9625
vn -0.0057 -0.2782 -0.9605
vn 0.9937 -0.1118 0.0014
vn 0.9958 -0.0885 0.0228
vn 0.1658 -0.9233 -0.3465
vn -0.0563 0.9490 -0.3102
vn 0.0612 0.9487 -0.3102
vn -0.1239 -0.9290 -0.3487
vn 0.9957 -0.0885 -0.0256
vn -0.0805 -0.9776 -0.1945
vn -0.3256 -0.5253 -0.7862
vn -0.3764 0.1807 -0.9087
vn -0.2243 0.8103 -0.5414
vn -0.2243 -0.8103 -0.5414
vn -0.3764 -0.1807 -0.9087
vn -0.3256 0.5253 -0.7862
vn -0.0805 0.9776 -0.1945
vn -0.5414 0.8103 -0.2243
vn -0.5414 -0.8103 -0.2243
vn -0.9087 -0.1807 -0.3764
vn -0.7862 0.5253 -0.3256
vn -0.1945 0.9776 -0.0806
vn -0.1945 -0.9776 -0.0805
vn -0.7862 -0.5253 -0.3256
vn -0.9087 0.1807 -0.3764
vn -0.5414 -0.8103 0.2243
vn -0.9087 -0.1807 0.3764
vn -0.7861 0.5253 0.3256
vn -0.1945 0.9776 0.0806
vn -0.1945 -0.9776 0.0805
vn -0.7861 -0.5253 0.3256
vn -0.9087 0.1807 0.3764
vn -0.5414 0.8103 0.2243
vn -0.0805 0.9776 0.1945
vn -0.0805 -0.9776 0.1945
vn -0.3256 -0.5253 0.7862
vn -0.3764 0.1807 0.9087
vn -0.2243 0.8103 0.5414
vn -0.2243 -0.8103 0.5414
vn -0.3764 -0.1807 0.9087
vn -0.3256 0.5253 0.7862
vn 0.3256 -0.5253 0.7862
vn 0.3764 0.1807 0.9087
vn 0.2243 0.8103 0.5414
vn 0.2243 -0.8103 0.5414
vn 0.3764 -0.1807 0.9087
vn 0.3256 0.5253 0.7862
vn 0.0806 0.9776 0.1945
vn 0.0805 -0.9776 0.1945
vn 0.5414 -0.8103 0.2243
vn 0.9087 -0.1807 0.3764
vn 0.7862 0.5253 0.3256
vn 0.1945 0.9776 0.0806
vn 0.1945 -0.9776 0.0806
vn 0.7862 -0.5253 0.3256
vn 0.9087 0.1807 0.3764
vn 0.5414 0.8103 0.2243
vn 0.9087 -0.1807 -0.3764
vn 0.7862 0.5253 -0.3256
vn 0.1945 0.9776 -0.0806
vn 0.1945 -0.9776 -0.0806
vn 0.7862 -0.5253 -0.3256
vn 0.9087 0.1807 -0.3764
vn 0.5414 0.8103 -0.2243
vn 0.5414 -0.8103 -0.2243
vn 0.0805 -0.9776 -0.1945
vn 0.3256 -0.5253 -0.7862
vn 0.3764 0.1807 -0.9087
vn 0.2243 0.8103 -0.5414
vn 0.2243 -0.8103 -0.5414
vn 0.3764 -0.1807 -0.9087
vn 0.3256 0.5253 -0.7862
vn 0.0806 0.9776 -0.1945
vn -0.7861 0.5253 -0.3256
vn -0.7861 -0.5253 -0.3256
vn -0.7862 0.5253 0.3256
vn 0.3256 -0.5253 -0.7861
usemtl Base
s off
f 84/1/1 62/2/1 78/3/1
f 76/4/2 66/5/2 68/6/2
f 83/7/3 64/8/3 80/9/3
f 71/10/4 70/11/4 75/12/4
f 69/13/5 79/14/5 82/15/5
f 70/16/6 78/17/6 81/18/6
f 80/9/7 70/16/7 81/18/7
f 77/19/8 69/13/8 82/15/8
f 75/12/9 64/8/9 74/20/9
f 72/21/10 68/6/10 62/2/10
f 61/22/11 76/4/11 72/21/11
f 63/23/12 75/12/12 74/20/12
f 59/24/13 75/12/13 69/25/13
f 63/23/14 83/7/14 79/14/14
f 65/26/15 76/4/15 67/27/15
f 61/22/16 84/1/16 77/28/16
f 59/29/17 84/1/17 71/30/17
f 65/26/18 83/7/18 73/31/18
f 77/19/19 67/32/19 61/33/19
f 80/9/20 68/34/20 66/5/20
f 68/34/21 78/17/21 62/35/21
f 67/32/22 79/14/22 65/26/22
f 83/7/18 66/5/18 73/31/18
f 84/1/23 60/36/23 71/30/23
f 84/1/24 72/21/24 62/2/24
f 76/4/25 73/31/25 66/5/25
f 83/7/18 74/20/18 64/8/18
f 71/10/26 60/37/26 70/11/26
f 69/13/27 63/23/27 79/14/27
f 70/16/28 60/38/28 78/17/28
f 80/9/29 64/8/29 70/16/29
f 77/19/30 59/39/30 69/13/30
f 75/12/31 70/11/31 64/8/31
f 72/21/32 76/4/32 68/6/32
f 61/22/33 67/27/33 76/4/33
f 63/23/34 69/25/34 75/12/34
f 59/24/35 71/10/35 75/12/35
f 63/23/18 74/20/18 83/7/18
f 65/26/36 73/31/36 76/4/36
f 61/22/37 72/21/37 84/1/37
f 59/29/38 77/28/38 84/1/38
f 65/26/3 79/14/3 83/7/3
f 77/19/39 82/15/39 67/32/39
f 80/9/40 81/18/40 68/34/40
f 68/34/41 81/18/41 78/17/41
f 67/32/42 82/15/42 79/14/42
f 83/7/14 80/9/14 66/5/14
f 84/1/43 78/3/43 60/36/43
usemtl Joints
f 17/40/44 9/41/44 58/42/44
f 8/43/45 56/44/45 57/45/45
f 6/46/46 55/47/46 1/48/46
f 54/49/47 3/50/47 53/51/47
f 9/41/48 57/45/48 58/42/48
f 56/44/49 6/46/49 1/48/49
f 55/47/50 4/52/50 54/49/50
f 53/51/51 3/50/51 2/53/51
f 4/52/52 10/54/52 3/50/52
f 16/55/53 8/43/53 9/41/53
f 7/56/54 13/57/54 6/46/54
f 5/58/55 11/59/55 4/52/55
f 3/50/56 10/54/56 2/60/56
f 17/61/57 16/55/57 9/41/57
f 15/62/58 7/56/58 8/43/58
f 13/57/59 5/58/59 6/46/59
f 16/55/60 23/63/60 15/62/60
f 22/64/61 13/57/61 14/65/61
f 20/66/62 11/59/62 12/67/62
f 10/54/63 18/68/63 2/69/63
f 17/70/64 24/71/64 16/55/64
f 15/62/65 22/64/65 14/65/65
f 13/57/66 20/66/66 12/67/66
f 19/72/67 10/54/67 11/59/67
f 18/68/68 25/73/68 2/74/68
f 17/75/69 31/76/69 24/71/69
f 23/63/70 29/77/70 22/64/70
f 21/78/71 27/79/71 20/66/71
f 26/80/72 18/68/72 19/72/72
f 24/71/73 30/81/73 23/63/73
f 29/77/74 21/78/74 22/64/74
f 27/79/75 19/72/75 20/66/75
f 30/81/76 36/82/76 29/77/76
f 28/83/77 34/84/77 27/79/77
f 33/85/78 25/73/78 26/80/78
f 38/86/79 30/81/79 31/76/79
f 36/82/80 28/83/80 29/77/80
f 34/84/81 26/80/81 27/79/81
f 25/73/82 32/87/82 2/88/82
f 17/89/83 38/86/83 31/76/83
f 45/90/84 37/91/84 38/86/84
f 43/92/85 35/93/85 36/82/85
f 41/94/86 33/85/86 34/84/86
f 32/87/87 39/95/87 2/96/87
f 17/97/88 45/90/88 38/86/88
f 37/91/89 43/92/89 36/82/89
f 35/93/90 41/94/90 34/84/90
f 33/85/91 39/95/91 32/87/91
f 50/98/92 42/99/92 43/100/92
f 41/101/93 47/102/93 40/103/93
f 39/104/94 46/105/94 2/106/94
f 17/107/95 52/108/95 45/109/95
f 51/110/96 43/100/96 44/111/96
f 42/99/97 48/112/97 41/101/97
f 47/102/98 39/104/98 40/103/98
f 45/109/99 51/110/99 44/111/99
f 17/113/100 58/42/100 52/108/100
f 57/45/101 50/98/101 51/110/101
f 1/48/102 48/112/102 49/114/102
f 47/102/103 53/51/103 46/105/103
f 58/42/104 51/110/104 52/108/104
f 50/98/105 1/48/105 49/114/105
f 48/112/106 54/49/106 47/102/106
f 46/105/107 53/51/107 2/115/107
f 8/43/45 7/56/45 56/44/45
f 6/46/46 5/58/46 55/47/46
f 54/49/47 4/52/47 3/50/47
f 9/41/48 8/43/48 57/45/48
f 56/44/49 7/56/49 6/46/49
f 55/47/50 5/58/50 4/52/50
f 4/52/52 11/59/52 10/54/52
f 16/55/53 15/62/53 8/43/53
f 7/56/54 14/65/54 13/57/54
f 5/58/108 12/67/108 11/59/108
f 15/62/109 14/65/109 7/56/109
f 13/57/59 12/67/59 5/58/59
f 16/55/60 24/71/60 23/63/60
f 22/64/61 21/78/61 13/57/61
f 20/66/110 19/72/110 11/59/110
f 15/62/65 23/63/65 22/64/65
f 13/57/66 21/78/66 20/66/66
f 19/72/67 18/68/67 10/54/67
f 23/63/70 30/81/70 29/77/70
f 21/78/71 28/83/71 27/79/71
f 26/80/72 25/73/72 18/68/72
f 24/71/73 31/76/73 30/81/73
f 29/77/74 28/83/74 21/78/74
f 27/79/75 26/80/75 19/72/75
f 30/81/76 37/91/76 36/82/76
f 28/83/77 35/93/77 34/84/77
f 33/85/78 32/87/78 25/73/78
f 38/86/79 37/91/79 30/81/79
f 36/82/80 35/93/80 28/83/80
f 34/84/81 33/85/81 26/80/81
f 45/90/84 44/116/84 37/91/84
f 43/92/85 42/117/85 35/93/85
f 41/94/86 40/118/86 33/85/86
f 37/91/89 44/116/89 43/92/89
f 35/93/90 42/117/90 41/94/90
f 33/85/91 40/118/91 39/95/91
f 50/98/92 49/114/92 42/99/92
f 41/101/93 48/112/93 47/102/93
f 51/110/96 50/98/96 43/100/96
f 42/99/97 49/114/97 48/112/97
f 47/102/98 46/105/98 39/104/98
f 45/109/99 52/108/99 51/110/99
f 57/45/111 56/44/111 50/98/111
f 1/48/102 55/47/102 48/112/102
f 47/102/103 54/49/103 53/51/103
f 58/42/104 57/45/104 51/110/104
f 50/98/105 56/44/105 1/48/105
f 48/112/106 55/47/106 54/49/106
