# Blender v2.80 (sub 55) OBJ File: 'mannquin.blend'
# www.blender.org
mtllib right_lower_leg.mtl
o Right_Lower_leg.001_Cube.019
v 0.000043 -0.000276 -0.075418
v 0.000043 0.075175 0.000033
v -0.020374 0.069432 -0.020384
v -0.037683 0.053076 -0.037693
v -0.049248 0.028598 -0.049258
v -0.053309 -0.000276 -0.053319
v -0.049248 -0.029150 -0.049258
v -0.037683 -0.053628 -0.037693
v -0.020374 -0.069984 -0.020384
v -0.028831 0.069432 0.000033
v -0.053309 0.053076 0.000033
v -0.069665 0.028598 0.000033
v -0.075408 -0.000276 0.000033
v -0.069665 -0.029150 0.000033
v -0.053309 -0.053628 0.000033
v -0.028831 -0.069984 0.000033
v 0.000043 -0.075727 0.000033
v -0.020374 0.069432 0.020450
v -0.037683 0.053076 0.037758
v -0.049248 0.028598 0.049324
v -0.053309 -0.000276 0.053385
v -0.049248 -0.029150 0.049324
v -0.037683 -0.053628 0.037758
v -0.020374 -0.069984 0.020450
v 0.000043 0.069432 0.028907
v 0.000043 0.053076 0.053385
v 0.000043 0.028598 0.069741
v 0.000043 -0.000276 0.075484
v 0.000043 -0.029150 0.069741
v 0.000043 -0.053628 0.053385
v 0.000043 -0.069984 0.028907
v 0.020460 0.069432 0.020450
v 0.037768 0.053076 0.037758
v 0.049334 0.028598 0.049324
v 0.053395 -0.000276 0.053385
v 0.049334 -0.029150 0.049324
v 0.037768 -0.053628 0.037758
v 0.020460 -0.069984 0.020450
v 0.028917 0.069432 0.000033
v 0.053395 0.053076 0.000033
v 0.069751 0.028598 0.000033
v 0.075494 -0.000276 0.000033
v 0.069751 -0.029150 0.000033
v 0.053395 -0.053628 0.000033
v 0.028917 -0.069984 0.000033
v 0.020460 0.069432 -0.020384
v 0.037768 0.053076 -0.037693
v 0.049334 0.028598 -0.049258
v 0.053395 -0.000276 -0.053319
v 0.049334 -0.029150 -0.049258
v 0.037768 -0.053628 -0.037693
v 0.020460 -0.069984 -0.020384
v 0.000043 0.069432 -0.028841
v 0.000043 0.053076 -0.053319
v 0.000043 0.028598 -0.069675
v 0.000043 -0.029150 -0.069675
v 0.000043 -0.053628 -0.053319
v 0.000043 -0.069984 -0.028841
v 0.054824 -0.986807 0.025998
v 0.066468 -0.045806 0.049078
v 0.054824 -0.990225 -0.038177
v 0.066468 -0.045806 -0.052903
v -0.056226 -1.002191 0.027156
v -0.077980 -0.048378 0.050699
v -0.056226 -1.005609 -0.039194
v -0.077980 -0.048378 -0.054737
v 0.081198 -0.706517 0.058188
v 0.079891 -0.133082 0.062215
v 0.079891 -0.146241 -0.063447
v 0.081198 -0.709613 -0.066909
v -0.094176 -0.156304 -0.065630
v -0.093549 -0.734383 -0.068969
v -0.094176 -0.143145 0.064289
v -0.093549 -0.731286 0.060366
v -0.000701 -0.997917 -0.056169
v -0.005756 -0.047092 -0.085376
v -0.000701 -0.994499 0.046500
v -0.005756 -0.047092 0.077774
v -0.006176 -0.718902 0.096751
v -0.007143 -0.138114 0.098936
v -0.006176 -0.721998 -0.103379
v -0.007143 -0.151273 -0.102097
v 0.064873 -0.988516 -0.006089
v 0.078857 -0.045806 -0.001913
v -0.065301 -1.003900 -0.006019
v -0.090466 -0.048378 -0.002019
v -0.108698 -0.732835 -0.004301
v -0.109677 -0.149724 -0.000671
v 0.096141 -0.708065 -0.004360
v 0.094364 -0.139662 -0.000616
v -0.005756 -0.047092 -0.003801
v -0.000701 -0.996208 -0.004835
v 0.086670 -0.417302 0.083906
v 0.086670 -0.427019 -0.065989
v -0.099978 -0.447840 -0.068525
v -0.099978 -0.438124 0.086448
v -0.006654 -0.437430 -0.110893
v -0.006654 -0.427713 0.128908
v 0.102411 -0.422161 0.008959
v -0.116379 -0.442982 0.008961
vt 0.541667 0.125000
vt 0.625000 0.250000
vt 0.625000 0.125000
vt 0.541667 0.375000
vt 0.625000 0.500000
vt 0.625000 0.375000
vt 0.541667 0.750000
vt 0.625000 0.625000
vt 0.541667 0.625000
vt 0.541667 1.000000
vt 0.625000 0.875000
vt 0.541667 0.875000
vt 0.250000 0.625000
vt 0.375000 0.750000
vt 0.375000 0.625000
vt 0.750000 0.625000
vt 0.875000 0.750000
vt 0.875000 0.625000
vt 0.375000 1.000000
vt 0.458333 0.875000
vt 0.375000 0.875000
vt 0.500000 1.000000
vt 0.500000 0.875000
vt 0.458333 0.625000
vt 0.500000 0.750000
vt 0.500000 0.625000
vt 0.375000 0.375000
vt 0.458333 0.500000
vt 0.458333 0.375000
vt 0.500000 0.375000
vt 0.541667 0.500000
vt 0.375000 0.125000
vt 0.458333 0.250000
vt 0.458333 0.125000
vt 0.500000 0.125000
vt 0.541667 0.250000
vt 0.500000 0.250000
vt 0.375000 0.250000
vt 0.458333 0.750000
vt 0.625000 0.750000
vt 0.125000 0.750000
vt 0.125000 0.625000
vt 0.125000 0.500000
vt 0.250000 0.500000
vt 0.750000 0.500000
vt 0.500000 0.000000
vt 0.541667 0.000000
vt 0.375000 0.000000
vt 0.458333 0.000000
vt 0.500000 0.500000
vt 0.375000 0.500000
vt 0.875000 0.500000
vt 0.625000 0.000000
vt 0.458333 1.000000
vt 0.625000 1.000000
vt 0.250000 0.750000
vt 0.750000 0.750000
vt 0.687500 0.000000
vt 0.625000 0.125000
vt 0.750000 0.125000
vt 0.625000 0.250000
vt 0.750000 0.375000
vt 0.750000 0.250000
vt 0.625000 0.500000
vt 0.750000 0.625000
vt 0.750000 0.500000
vt 0.750000 0.750000
vt 0.625000 0.875000
vt 0.750000 0.875000
vt 0.625000 0.750000
vt 0.687500 1.000000
vt 0.500000 0.875000
vt 0.500000 0.125000
vt 0.625000 0.375000
vt 0.500000 0.500000
vt 0.625000 0.625000
vt 0.500000 0.750000
vt 0.562500 1.000000
vt 0.562500 0.000000
vt 0.500000 0.250000
vt 0.375000 0.250000
vt 0.375000 0.375000
vt 0.500000 0.375000
vt 0.375000 0.625000
vt 0.500000 0.625000
vt 0.375000 0.875000
vt 0.437500 1.000000
vt 0.437500 0.000000
vt 0.375000 0.125000
vt 0.375000 0.750000
vt 0.250000 0.875000
vt 0.312500 1.000000
vt 0.312500 0.000000
vt 0.250000 0.125000
vt 0.250000 0.375000
vt 0.375000 0.500000
vt 0.250000 0.625000
vt 0.250000 0.750000
vt 0.250000 0.250000
vt 0.125000 0.375000
vt 0.250000 0.500000
vt 0.125000 0.625000
vt 0.125000 0.750000
vt 0.125000 0.125000
vt 0.125000 0.875000
vt 0.187500 1.000000
vt 0.187500 0.000000
vt 0.000000 0.125000
vt 0.125000 0.250000
vt 0.000000 0.375000
vt 0.125000 0.500000
vt 0.000000 0.625000
vt 0.000000 0.875000
vt 0.062500 1.000000
vt 0.062500 0.000000
vt 0.875000 0.375000
vt 1.000000 0.500000
vt 1.000000 0.375000
vt 1.000000 0.625000
vt 0.875000 0.750000
vt 1.000000 0.750000
vt 1.000000 0.875000
vt 0.875000 0.875000
vt 0.937500 1.000000
vt 0.937500 0.000000
vt 0.875000 0.125000
vt 1.000000 0.125000
vt 0.875000 0.250000
vt 1.000000 0.250000
vt 0.875000 0.625000
vt 0.812500 0.000000
vt 0.875000 0.500000
vt 0.812500 1.000000
vt 0.000000 0.250000
vt 0.000000 0.500000
vt 0.000000 0.750000
vn 0.9599 0.1554 -0.2332
vn -0.3883 0.1511 -0.9091
vn -0.9600 0.1848 0.2104
vn 0.3704 0.2050 0.9060
vn 0.1179 -0.9928 0.0189
vn -0.0151 0.9999 -0.0037
vn 0.3614 -0.1603 0.9185
vn 0.4239 0.0939 0.9008
vn -0.9510 -0.1540 0.2681
vn -0.9783 0.0291 0.2052
vn -0.3411 -0.1651 -0.9254
vn -0.3877 0.0277 -0.9214
vn 0.9677 -0.1065 -0.2286
vn 0.9738 0.0201 -0.2264
vn 0.4049 0.0181 -0.9142
vn 0.3976 -0.1304 -0.9083
vn -0.4200 0.0762 0.9043
vn -0.3054 -0.1572 0.9392
vn -0.0151 0.9999 0.0036
vn 0.1177 -0.9890 0.0896
vn -0.3725 0.1938 0.9076
vn 0.4033 0.1487 -0.9029
vn 0.1266 -0.9914 0.0330
vn -0.0178 0.9998 0.0000
vn 0.9746 0.0401 0.2203
vn 0.9652 -0.1176 0.2335
vn -0.9778 0.0215 -0.2083
vn -0.9543 -0.1591 -0.2529
vn 0.1470 -0.9886 0.0329
vn -0.9549 0.1680 -0.2449
vn 0.9555 0.1819 0.2322
vn -0.9735 -0.0215 -0.2275
vn 0.9775 -0.0370 0.2077
vn -0.3719 -0.0903 0.9239
vn 0.4341 -0.0055 -0.9009
vn 0.9787 -0.0119 -0.2048
vn -0.4110 -0.0248 -0.9113
vn -0.9728 -0.0362 0.2288
vn 0.4135 -0.0993 0.9051
vn 0.9594 0.1531 -0.2370
vn -0.3894 0.1502 -0.9087
vn -0.9543 0.1955 0.2260
vn 0.3594 0.1927 0.9131
vn 0.1259 -0.9915 0.0330
vn 0.4165 -0.1423 0.8979
vn 0.3836 0.0794 0.9201
vn -0.9602 -0.1603 0.2288
vn -0.9729 0.0363 0.2285
vn -0.2714 -0.1419 -0.9520
vn -0.4149 0.0173 -0.9097
vn 0.9493 -0.1190 -0.2909
vn 0.9780 0.0255 -0.2071
vn 0.4308 0.0285 -0.9020
vn 0.3238 -0.1533 -0.9336
vn -0.3729 0.0949 0.9230
vn -0.3574 -0.1744 0.9175
vn 0.1491 -0.9883 0.0329
vn -0.3460 0.2175 0.9127
vn 0.3950 0.1405 -0.9079
vn 0.1168 -0.9930 0.0163
vn -0.0153 0.9999 -0.0036
vn 0.9785 0.0348 0.2033
vn 0.9471 -0.1075 0.3023
vn -0.9723 0.0145 -0.2335
vn -0.9630 -0.1528 -0.2219
vn -0.0153 0.9999 0.0037
vn 0.1163 -0.9898 0.0828
vn -0.9575 0.1785 -0.2268
vn 0.9651 0.1623 0.2053
vn -0.9784 -0.0165 -0.2061
vn 0.9719 -0.0322 0.2330
vn -0.4026 -0.1011 0.9098
vn 0.3879 -0.0237 -0.9214
vn 0.9726 -0.0181 -0.2319
vn -0.3656 -0.0068 -0.9307
vn -0.9770 -0.0400 0.2093
vn 0.4406 -0.0878 0.8934
vn -0.0805 -0.9776 -0.1945
vn -0.3256 -0.5253 -0.7861
vn -0.3764 0.1807 -0.9087
vn -0.2243 0.8103 -0.5414
vn -0.2243 -0.8103 -0.5414
vn -0.3764 -0.1807 -0.9087
vn -0.3256 0.5253 -0.7862
vn -0.0805 0.9776 -0.1945
vn -0.5414 0.8103 -0.2243
vn -0.5414 -0.8103 -0.2243
vn -0.9087 -0.1807 -0.3764
vn -0.7862 0.5253 -0.3256
vn -0.1945 0.9776 -0.0805
vn -0.1945 -0.9776 -0.0805
vn -0.7861 -0.5253 -0.3256
vn -0.9087 0.1807 -0.3764
vn -0.5414 -0.8103 0.2243
vn -0.9087 -0.1807 0.3764
vn -0.7861 0.5253 0.3256
vn -0.1945 0.9776 0.0805
vn -0.1945 -0.9776 0.0805
vn -0.7861 -0.5253 0.3256
vn -0.9087 0.1807 0.3764
vn -0.5414 0.8103 0.2243
vn -0.0805 0.9776 0.1945
vn -0.0805 -0.9776 0.1945
vn -0.3256 -0.5253 0.7861
vn -0.3764 0.1807 0.9087
vn -0.2243 0.8103 0.5414
vn -0.2243 -0.8103 0.5414
vn -0.3764 -0.1807 0.9087
vn -0.3256 0.5253 0.7862
vn 0.3256 -0.5253 0.7861
vn 0.3764 0.1807 0.9087
vn 0.2243 0.8103 0.5414
vn 0.2243 -0.8103 0.5414
vn 0.3764 -0.1807 0.9087
vn 0.3256 0.5253 0.7862
vn 0.0805 0.9776 0.1945
vn 0.0805 -0.9776 0.1945
vn 0.5414 -0.8103 0.2243
vn 0.9087 -0.1807 0.3764
vn 0.7862 0.5253 0.3256
vn 0.1945 0.9776 0.0806
vn 0.1945 -0.9776 0.0806
vn 0.7862 -0.5253 0.3256
vn 0.9087 0.1807 0.3764
vn 0.5414 0.8103 0.2243
vn 0.9087 -0.1807 -0.3764
vn 0.7862 0.5253 -0.3256
vn 0.1945 0.9776 -0.0806
vn 0.1945 -0.9776 -0.0806
vn 0.7862 -0.5253 -0.3256
vn 0.9087 0.1807 -0.3764
vn 0.5414 0.8103 -0.2243
vn 0.5414 -0.8103 -0.2243
vn 0.0805 -0.9776 -0.1945
vn 0.3256 -0.5253 -0.7862
vn 0.3764 0.1807 -0.9087
vn 0.2243 0.8103 -0.5414
vn 0.2243 -0.8103 -0.5414
vn 0.3764 -0.1807 -0.9087
vn 0.3256 0.5253 -0.7862
vn 0.0805 0.9776 -0.1945
vn -0.7861 0.5253 -0.3256
vn -0.7862 0.5253 0.3256
vn -0.3256 -0.5253 0.7862
vn 0.3256 -0.5253 -0.7861
usemtl Base
s off
f 90/1/1 62/2/1 84/3/1
f 82/4/2 66/5/2 76/6/2
f 73/7/3 86/8/3 88/9/3
f 68/10/4 78/11/4 80/12/4
f 92/13/5 63/14/5 85/15/5
f 91/16/6 60/17/6 84/18/6
f 59/19/7 79/20/7 77/21/7
f 93/22/8 80/12/8 98/23/8
f 63/14/9 87/24/9 85/15/9
f 96/25/10 88/9/10 100/26/10
f 75/27/11 72/28/11 81/29/11
f 97/30/12 71/31/12 82/4/12
f 83/32/13 70/33/13 89/34/13
f 99/35/14 69/36/14 90/1/14
f 94/37/15 82/4/15 69/36/15
f 61/38/16 81/29/16 70/33/16
f 98/23/17 73/7/17 96/25/17
f 77/21/18 74/39/18 63/14/18
f 64/40/19 91/16/19 86/8/19
f 59/41/20 92/13/20 83/42/20
f 80/12/21 64/40/21 73/7/21
f 69/36/22 76/6/22 62/2/22
f 61/43/23 92/13/23 75/44/23
f 66/5/24 91/16/24 76/45/24
f 93/46/25 90/1/25 68/47/25
f 59/48/26 89/34/26 67/49/26
f 100/26/27 71/31/27 95/50/27
f 85/15/28 72/28/28 65/51/28
f 91/16/24 62/52/24 76/45/24
f 92/13/29 65/51/29 75/44/29
f 88/9/30 66/5/30 71/31/30
f 68/47/31 84/3/31 60/53/31
f 87/24/32 95/50/32 72/28/32
f 67/49/33 99/35/33 93/46/33
f 79/20/34 96/25/34 74/39/34
f 70/33/35 97/30/35 94/37/35
f 89/34/36 94/37/36 99/35/36
f 81/29/37 95/50/37 97/30/37
f 74/39/38 100/26/38 87/24/38
f 67/54/39 98/23/39 79/20/39
f 90/1/40 69/36/40 62/2/40
f 82/4/41 71/31/41 66/5/41
f 73/7/42 64/40/42 86/8/42
f 68/10/43 60/55/43 78/11/43
f 92/13/44 77/56/44 63/14/44
f 91/16/24 78/57/24 60/17/24
f 59/19/45 67/54/45 79/20/45
f 93/22/46 68/10/46 80/12/46
f 63/14/47 74/39/47 87/24/47
f 96/25/48 73/7/48 88/9/48
f 75/27/49 65/51/49 72/28/49
f 97/30/50 95/50/50 71/31/50
f 83/32/51 61/38/51 70/33/51
f 99/35/52 94/37/52 69/36/52
f 94/37/53 97/30/53 82/4/53
f 61/38/54 75/27/54 81/29/54
f 98/23/55 80/12/55 73/7/55
f 77/21/56 79/20/56 74/39/56
f 64/40/24 78/57/24 91/16/24
f 59/41/57 77/56/57 92/13/57
f 80/12/58 78/11/58 64/40/58
f 69/36/59 82/4/59 76/6/59
f 61/43/60 83/42/60 92/13/60
f 66/5/61 86/8/61 91/16/61
f 93/46/62 99/35/62 90/1/62
f 59/48/63 83/32/63 89/34/63
f 100/26/64 88/9/64 71/31/64
f 85/15/65 87/24/65 72/28/65
f 91/16/66 84/18/66 62/52/66
f 92/13/67 85/15/67 65/51/67
f 88/9/68 86/8/68 66/5/68
f 68/47/69 90/1/69 84/3/69
f 87/24/70 100/26/70 95/50/70
f 67/49/71 89/34/71 99/35/71
f 79/20/72 98/23/72 96/25/72
f 70/33/73 81/29/73 97/30/73
f 89/34/74 70/33/74 94/37/74
f 81/29/75 72/28/75 95/50/75
f 74/39/76 96/25/76 100/26/76
f 67/54/77 93/22/77 98/23/77
usemtl Joints
f 17/58/78 9/59/78 58/60/78
f 8/61/79 56/62/79 57/63/79
f 6/64/80 55/65/80 1/66/80
f 54/67/81 3/68/81 53/69/81
f 9/59/82 57/63/82 58/60/82
f 56/62/83 6/64/83 1/66/83
f 55/65/84 4/70/84 54/67/84
f 53/69/85 3/68/85 2/71/85
f 4/70/86 10/72/86 3/68/86
f 16/73/87 8/61/87 9/59/87
f 7/74/88 13/75/88 6/64/88
f 5/76/89 11/77/89 4/70/89
f 3/68/90 10/72/90 2/78/90
f 17/79/91 16/73/91 9/59/91
f 15/80/92 7/74/92 8/61/92
f 13/75/93 5/76/93 6/64/93
f 16/73/94 23/81/94 15/80/94
f 22/82/95 13/75/95 14/83/95
f 20/84/96 11/77/96 12/85/96
f 10/72/97 18/86/97 2/87/97
f 17/88/98 24/89/98 16/73/98
f 15/80/99 22/82/99 14/83/99
f 13/75/100 20/84/100 12/85/100
f 19/90/101 10/72/101 11/77/101
f 18/86/102 25/91/102 2/92/102
f 17/93/103 31/94/103 24/89/103
f 23/81/104 29/95/104 22/82/104
f 21/96/105 27/97/105 20/84/105
f 26/98/106 18/86/106 19/90/106
f 24/89/107 30/99/107 23/81/107
f 29/95/108 21/96/108 22/82/108
f 27/97/109 19/90/109 20/84/109
f 30/99/110 36/100/110 29/95/110
f 28/101/111 34/102/111 27/97/111
f 33/103/112 25/91/112 26/98/112
f 38/104/113 30/99/113 31/94/113
f 36/100/114 28/101/114 29/95/114
f 34/102/115 26/98/115 27/97/115
f 25/91/116 32/105/116 2/106/116
f 17/107/117 38/104/117 31/94/117
f 45/108/118 37/109/118 38/104/118
f 43/110/119 35/111/119 36/100/119
f 41/112/120 33/103/120 34/102/120
f 32/105/121 39/113/121 2/114/121
f 17/115/122 45/108/122 38/104/122
f 37/109/123 43/110/123 36/100/123
f 35/111/124 41/112/124 34/102/124
f 33/103/125 39/113/125 32/105/125
f 50/116/126 42/117/126 43/118/126
f 41/119/127 47/120/127 40/121/127
f 39/122/128 46/123/128 2/124/128
f 17/125/129 52/126/129 45/127/129
f 51/128/130 43/118/130 44/129/130
f 42/117/131 48/130/131 41/119/131
f 47/120/132 39/122/132 40/121/132
f 45/127/133 51/128/133 44/129/133
f 17/131/134 58/60/134 52/126/134
f 57/63/135 50/116/135 51/128/135
f 1/66/136 48/130/136 49/132/136
f 54/67/137 46/123/137 47/120/137
f 58/60/138 51/128/138 52/126/138
f 50/116/139 1/66/139 49/132/139
f 48/130/140 54/67/140 47/120/140
f 46/123/141 53/69/141 2/133/141
f 8/61/79 7/74/79 56/62/79
f 6/64/80 5/76/80 55/65/80
f 54/67/81 4/70/81 3/68/81
f 9/59/82 8/61/82 57/63/82
f 56/62/83 7/74/83 6/64/83
f 55/65/84 5/76/84 4/70/84
f 4/70/86 11/77/86 10/72/86
f 16/73/87 15/80/87 8/61/87
f 7/74/88 14/83/88 13/75/88
f 5/76/142 12/85/142 11/77/142
f 15/80/92 14/83/92 7/74/92
f 13/75/93 12/85/93 5/76/93
f 16/73/94 24/89/94 23/81/94
f 22/82/95 21/96/95 13/75/95
f 20/84/143 19/90/143 11/77/143
f 15/80/99 23/81/99 22/82/99
f 13/75/100 21/96/100 20/84/100
f 19/90/101 18/86/101 10/72/101
f 23/81/144 30/99/144 29/95/144
f 21/96/105 28/101/105 27/97/105
f 26/98/106 25/91/106 18/86/106
f 24/89/107 31/94/107 30/99/107
f 29/95/108 28/101/108 21/96/108
f 27/97/109 26/98/109 19/90/109
f 30/99/110 37/109/110 36/100/110
f 28/101/111 35/111/111 34/102/111
f 33/103/112 32/105/112 25/91/112
f 38/104/113 37/109/113 30/99/113
f 36/100/114 35/111/114 28/101/114
f 34/102/115 33/103/115 26/98/115
f 45/108/118 44/134/118 37/109/118
f 43/110/119 42/135/119 35/111/119
f 41/112/120 40/136/120 33/103/120
f 37/109/123 44/134/123 43/110/123
f 35/111/124 42/135/124 41/112/124
f 33/103/125 40/136/125 39/113/125
f 50/116/126 49/132/126 42/117/126
f 41/119/127 48/130/127 47/120/127
f 51/128/130 50/116/130 43/118/130
f 42/117/131 49/132/131 48/130/131
f 47/120/132 46/123/132 39/122/132
f 45/127/133 52/126/133 51/128/133
f 57/63/145 56/62/145 50/116/145
f 1/66/136 55/65/136 48/130/136
f 54/67/137 53/69/137 46/123/137
f 58/60/138 57/63/138 51/128/138
f 50/116/139 56/62/139 1/66/139
f 48/130/140 55/65/140 54/67/140
